
<svg width="541" height="441" viewBox="0 0 541 441" fill="none" xmlns="http://www.w3.org/2000/svg">
<g filter="url(#filter0_d_1741_94800)">
<path d="M87.5625 177.453C87.5625 266.608 179.226 338.883 292.299 338.883C405.371 338.883 497.034 266.608 497.034 177.453C497.034 88.2986 405.371 16.0237 292.299 16.0237C179.226 16.0237 87.5625 88.2986 87.5625 177.453Z" fill="#F3F2FA"/>
<path d="M20 397.924C20 406.707 61.844 413.828 113.461 413.828C165.078 413.828 206.922 406.707 206.922 397.924C206.922 389.14 165.078 382.019 113.461 382.019C61.844 382.019 20 389.14 20 397.924Z" fill="#D9D8E8"/>
<path d="M97.3789 401.096C97.3789 409.88 172.972 417 266.221 417C359.47 417 435.063 409.88 435.063 401.096C435.063 392.312 359.47 385.192 266.221 385.192C172.972 385.192 97.3789 392.312 97.3789 401.096Z" fill="#D9D8E8"/>
<path d="M220.05 16.0121C202.547 16.497 188.065 30.7251 187.058 48.4664C186.466 58.8983 190.449 68.3909 197.152 75.0882C198.143 76.0776 198.603 77.4882 198.372 78.8792L195.854 93.999L211.344 84.8389C212.226 84.3173 213.266 84.1255 214.267 84.3308C218.053 85.1051 222.065 85.2485 226.2 84.6131C241.503 82.2596 253.442 69.4027 254.853 53.7603C256.734 32.9128 240.327 15.452 220.05 16.0121Z" fill="#CBE9FF"/>
<path d="M224.7 50.3005L224.954 50.7311C223.894 51.3567 222.717 51.8384 221.424 52.1814L221.334 58.8557L221.328 59.349H220.834H219.879H219.385L219.379 58.8552L219.284 51.1094L219.279 50.7078L219.67 50.6164C220.819 50.3478 221.861 49.9993 222.797 49.5715L222.798 49.5713C223.736 49.1432 224.552 48.6511 225.248 48.0988L225.249 48.0986C225.944 47.5478 226.522 46.9343 226.986 46.2594C227.45 45.5842 227.801 44.8574 228.042 44.08C228.281 43.3057 228.402 42.4856 228.402 41.6157C228.402 40.3917 228.091 39.2405 227.465 38.1525C226.844 37.0738 225.954 36.1949 224.784 35.517C223.633 34.8512 222.243 34.5071 220.595 34.5071C218.843 34.5071 217.224 34.9705 215.727 35.8985C214.277 36.7993 213.133 38.3534 212.331 40.6355L212.121 41.231L211.589 40.8908L210.731 40.3413L210.404 40.1325L210.525 39.7642C211.286 37.4442 212.572 35.6374 214.391 34.3762C216.198 33.1229 218.255 32.499 220.547 32.499C222.494 32.499 224.225 32.8965 225.725 33.7049L225.726 33.7051C227.214 34.5086 228.387 35.6001 229.232 36.9779L229.232 36.9781C230.078 38.3598 230.5 39.9102 230.5 41.6157C230.5 42.8984 230.274 44.1081 229.819 45.2394C229.368 46.3629 228.733 47.3891 227.916 48.3167C227.098 49.247 226.109 50.0507 224.954 50.7313L224.7 50.3005ZM224.7 50.3005C225.814 49.6442 226.761 48.8734 227.541 47.9865L220.929 51.7908C222.33 51.4542 223.585 50.9585 224.7 50.3005ZM219.26 63.3135L219.26 63.3129C219.59 62.9297 220.039 62.7491 220.547 62.7491C221.076 62.7491 221.573 62.8959 221.896 63.3075L221.896 63.3084C222.178 63.6695 222.288 64.1274 222.288 64.6241C222.288 65.0908 222.154 65.519 221.879 65.8863L221.879 65.8863L221.877 65.8885C221.556 66.3128 221.083 66.499 220.547 66.499C220.032 66.499 219.562 66.342 219.235 65.9554C218.929 65.5945 218.806 65.1305 218.806 64.6241C218.806 64.1277 218.948 63.6783 219.26 63.3135Z" fill="#040606" stroke="black"/>
<path d="M122.284 375.527L123.786 388.052C123.786 388.052 151.952 401.323 149.34 401.514C146.727 401.707 106.25 398.818 106.25 398.818L108.633 376.08L122.284 375.527Z" fill="#040606"/>
<path d="M114.438 171.063C114.438 171.063 112.194 194.959 110.51 196.2C108.826 197.442 106.582 198.062 106.582 198.062L110.229 170.752L114.438 171.063Z" stroke="#333436" stroke-width="1.33333" stroke-miterlimit="10"/>
<path d="M69.9616 154.637C69.9616 154.637 58.5451 183.152 61.8594 199.039L125.144 188.362L123.825 158.739L69.9616 154.637Z" fill="#040606"/>
<path d="M125.142 188.359C125.142 188.359 125.501 256.773 125.941 280.609C126.381 304.445 130.149 378.055 130.149 378.055C130.149 378.055 118.332 385.262 106.023 379.438C105.038 378.972 94.4355 187.721 94.4355 187.721L125.142 188.359Z" fill="#040606"/>
<path d="M62.9076 190.563L36.2031 378.675C36.2031 378.675 47.865 390.76 62.5963 379.761L89.7503 226.107L102.937 216.314L104.901 188.286L62.9076 190.563Z" fill="#040606"/>
<path d="M55.893 374.024L58.3243 384.829C58.3243 384.829 76.0937 408.469 73.4752 408.469C70.8565 408.469 41.6777 393.835 41.6777 393.835L45.4186 371.322L55.893 374.024Z" fill="#040606"/>
<path d="M72.6599 166.176C72.6599 166.176 55.8306 244.44 43.3203 382.617" stroke="#333436" stroke-width="1.33333" stroke-miterlimit="10"/>
<path d="M84.1989 174.598C84.1989 174.598 78.3064 190.892 68.2402 191.164" stroke="#333436" stroke-width="1.33333" stroke-miterlimit="10"/>
<path d="M109.091 380.57L100.48 218.64L108.891 208.883" stroke="#333436" stroke-width="1.33333" stroke-miterlimit="10"/>
<path d="M108.975 72.7026C113.353 71.7111 116.549 70.9999 116.549 70.9999L143.86 87.4985C143.905 87.5267 143.952 87.5549 143.999 87.5832C152.948 93.0454 156.903 102.313 156.669 115.301L157.995 134.115L143.195 120.83L130.685 147.516L122.739 179.02C80.3374 196.075 63.8672 165.453 63.8672 165.453L77.9161 131.814L83.5904 100.747C86.2859 84.8073 94.6115 75.9552 108.975 72.7026Z" fill="#148B16"/>
<path d="M338.246 125.851C338.246 125.851 333.968 145.648 309.755 169.805C309.755 169.805 307.444 166.189 312.613 152.256C317.783 138.323 337.232 120.91 338.246 125.851Z" fill="#63A368"/>
<path d="M338.243 125.85C338.243 125.85 316.862 140.576 309.752 169.804C309.752 169.804 308.119 179.885 310.755 188.906" stroke="#040606" stroke-width="1.33333" stroke-miterlimit="10" strokeLinecap="round"/>
<path d="M282.357 138.133C282.357 138.133 288.371 133.732 279.2 121.026C270.488 108.956 261.156 98.0252 241.977 92.9025C241.977 92.9025 246.147 122.378 258.384 130.2C270.622 138.024 282.357 138.133 282.357 138.133Z" fill="#63A368"/>
<path d="M234.041 156.158C234.041 156.158 253.994 162.475 289.051 152.24C289.051 152.24 287.15 148.164 271.89 145.757C256.63 143.35 230.235 152.613 234.041 156.158Z" fill="#63A368"/>
<path d="M234.041 156.151C234.041 156.151 259.145 143.655 289.051 152.233C289.051 152.233 292.116 153.316 295.015 158.227" stroke="#040606" stroke-width="1.33333" stroke-miterlimit="10" strokeLinecap="round"/>
<path d="M249.636 177.632C249.636 177.632 270.379 194.935 305.434 184.7C305.434 184.7 299.534 170.87 284.274 168.463C269.014 166.056 245.831 174.087 249.636 177.632Z" fill="#63A368"/>
<path d="M249.639 177.626C249.639 177.626 273.678 167.234 305.437 184.693C305.437 184.693 309.166 186.855 312.065 191.766" stroke="#040606" stroke-width="1.33333" stroke-miterlimit="10" strokeLinecap="round"/>
<path d="M327.387 106.055C327.387 106.055 333.827 105.661 317.306 120.514C301.706 134.539 303.571 134.789 303.571 134.789C303.571 134.789 310.466 112.637 327.387 106.055Z" fill="#040606"/>
<path d="M292.418 141.662C292.418 141.662 297.074 144.036 306.19 135.907C315.306 127.776 319.645 108.527 327.39 106.054C327.39 106.054 308.002 111.494 292.418 141.662Z" fill="#63A368"/>
<path d="M319.844 210.805C311.387 188.479 299.328 162.943 282.357 138.134C282.357 138.134 278.231 131.29 263.564 113.268C248.897 95.2446 241.977 92.9036 241.977 92.9036" stroke="#040606" stroke-width="1.33333" stroke-miterlimit="10" strokeLinecap="round"/>
<path d="M325.082 106.921C325.082 106.921 306.503 114.363 292.414 141.651C289.002 148.261 292.299 153.918 295.01 158.227" stroke="#040606" ="1.33333" stroke-miterlimit="10" strokeLinecap="round"/>
<path d="M513.188 364.066C513.188 364.066 495.169 370.048 465.1 348.495C465.1 348.495 467.074 342.704 480.674 341.773C494.273 340.841 516.798 359.409 513.188 364.066Z" fill="#63A368"/>
<path d="M512.519 362.609C512.519 362.609 492.725 345.381 465.458 347.931C465.458 347.931 456.333 349.663 449.561 355.474" stroke="#040606" stroke-width="1.33333" stroke-miterlimit="10" strokeLinecap="round"/>
<path d="M473.971 319.65C473.971 319.65 479.759 324.406 487.44 310.544C494.737 297.375 500.854 283.951 498.682 262.258C498.682 262.258 475.044 276.625 472.557 292.015C470.071 307.406 473.971 319.65 473.971 319.65Z" fill="#63A368"/>
<path d="M520.452 344.408C520.452 344.408 524.234 350.186 504.004 342.851C484.901 335.926 485.72 337.797 485.72 337.797C485.72 337.797 506.293 332.226 520.452 344.408Z" fill="#040606"/>
<path d="M474.455 331.142C474.455 331.142 475.168 336.758 486.281 340.84C497.393 344.924 514.377 338.547 520.448 344.414C520.448 344.414 505.823 329.321 474.455 331.142Z" fill="#63A368"/>
<path d="M424.947 383.359C441.05 366.967 458.655 345.734 473.971 319.642C473.971 319.642 478.384 313.022 488.715 291.633C499.045 270.244 498.681 262.25 498.681 262.25" stroke="#040606" stroke-width="1.33333" stroke-miterlimit="10" strokeLinecap="round"/>
<path d="M518.536 342.734C518.536 342.734 502.825 329.476 474.457 331.13C467.584 331.531 464.47 335.232 459.318 342.339" stroke="#040606" stroke-width="1.33333" stroke-miterlimit="10" strokeLinecap="round"/>
<path d="M325.812 165.701C331.326 165.701 336.665 163.562 340.899 159.654L352.645 148.812C356.873 144.91 361.895 142.819 367.039 142.819H425.338C430.629 142.819 434.918 147.563 434.918 153.415V165.701V386.872C434.918 396.97 427.517 405.156 418.388 405.156H127.767C120.666 405.156 114.91 398.789 114.91 390.935V179.923C114.91 172.069 120.666 165.701 127.767 165.701H325.812Z" fill="#003F6C"/>
<path d="M115.134 392.298C115.134 392.298 134.912 351.26 136.89 346.548L190.944 224.741C192.303 221.505 195.237 219.433 198.463 219.433H399.332C406.634 219.433 417.196 215.2 422.803 210.025L430.908 202.543C435.135 198.642 440.157 196.551 445.302 196.551H500.783C506.688 196.551 510.7 203.187 508.444 209.224L441.354 388.706C437.593 398.766 428.722 405.328 418.879 405.328H118.761C116.805 405.328 114.999 403.475 115 401.31L115.134 392.298Z" fill="#0073C6"/>
<path d="M196.609 230.843L117.291 401.391" stroke="#040606" stroke-width="1.33333" stroke-miterlimit="10" strokeLinejoin="round"/>
<path d="M229.294 260.234H297.619C299.482 260.234 301.215 259.197 302.216 257.485C304.525 253.534 301.918 248.362 297.619 248.362H229.294C227.431 248.362 225.697 249.399 224.697 251.112C222.388 255.063 224.994 260.234 229.294 260.234Z" stroke="#040606" stroke-width="1.33333" stroke-miterlimit="10" strokeLinejoin="round"/>
<path d="M357.099 318.849L303.902 353.906" stroke="#040606" stroke-width="1.33333" stroke-miterlimit="10" strokeLinecap="round" strokeLinejoin="round"/>
<path d="M313.604 317.16L347.03 354.117" stroke="#040606" stroke-width="1.33333" stroke-miterlimit="10" strokeLinecap="round" strokeLinejoin="round"/>
<path d="M313.889 307.768C294.343 318.453 286.232 339.801 295.774 355.449C305.316 371.097 328.898 375.121 348.444 364.435C367.991 353.75 376.102 332.403 366.56 316.755C357.018 301.107 333.436 297.083 313.889 307.768Z" stroke="#040606" stroke-width="1.33333" stroke-miterlimit="10" strokeLinecap="round" strokeLinejoin="round"/>
<path d="M128.484 152.245L138.349 164.498C138.349 164.498 129.095 176.576 119.695 169.422L118.188 167.031L128.484 152.245Z" fill="#148B16"/>
<path d="M105.555 79.1284C105.555 79.1284 119.072 83.0455 108.437 126.266" stroke="#040606" stroke-width="1.33333" stroke-miterlimit="10" strokeLinecap="round"/>
<path d="M129.31 153.531C122.013 144.462 113.093 133.067 107.824 125.21" stroke="#040606" stroke-width="1.33333" stroke-miterlimit="10" strokeLinecap="round"/>
<path d="M119.687 169.422C112.684 161.481 103.219 150.175 99.089 145.985C92.6512 139.456 85.9713 128.949 88.1487 115.452L87.8872 104.631" stroke="#040606" stroke-width="1.33333" stroke-miterlimit="10" strokeLinecap="round"/>
<path d="M161.733 163.616C153.109 158.461 149.136 152.079 145.81 147.348C137.875 136.065 135.064 134.668 137.389 121.535L137.517 107.791L154.73 128.396C161.303 138.042 176.458 155.332 182.056 162.144C182.056 162.144 175.485 171.833 161.733 163.616Z" fill="#148B16"/>
<path d="M126.626 160.141C127.419 159.9 128.242 159.826 129.06 159.922C132.012 160.267 139.923 161.186 140.815 161.198C141.914 161.214 142.808 159.399 145.168 165.98C147.527 172.562 147.103 173.175 147.09 174.035C147.076 174.895 145.365 187.533 143.526 185.634C141.687 183.736 141.935 182.631 141.935 182.631C141.935 182.631 140.943 187.763 140.422 187.565C139.9 187.367 137.968 187.36 138.277 183.737C138.277 183.737 137.223 187.259 136.137 186.384C135.051 185.508 135.294 181.7 135.294 181.7C135.294 181.7 134.131 184.558 132.803 182.649C131.476 180.74 132.465 176.32 132.465 176.32L131.352 173.036L128.945 171.885C128.945 171.885 120.84 174.23 119.447 168.008C118.376 163.227 123.975 160.942 126.626 160.141Z" fill="#F0896F"/>
<path d="M142.925 168.212L144.448 175.284L141.934 182.633" stroke="#040606" stroke-width="1.33333" stroke-miterlimit="10" strokeLinecap="round"/>
<path d="M139.024 167.953L140.995 175.202L138.281 183.742" stroke="#040606" stroke-width="1.33333" stroke-miterlimit="10" strokeLinecap="round"/>
<path d="M135.594 168.762L136.741 175.732L135.428 180.953" stroke="#040606" stroke-width="1.33333" stroke-miterlimit="10" strokeLinecap="round"/>
<path d="M128.977 34.3633C126.1 37.3405 126.059 40.9609 126.059 40.9609C126.059 40.9609 125.07 39.6105 123.848 39.1775" stroke="#040606" stroke-width="1.33333" stroke-miterlimit="10" strokeLinecap="round"/>
<path d="M170.048 158.113C172.782 157.383 175.666 157.876 178.169 159.295C181.463 161.163 186.61 164.054 187.28 164.276C188.277 164.605 188.927 164.009 189.059 170.703C189.112 173.349 189.104 175.175 188.891 175.954C188.677 176.733 183.843 184.723 182.255 183.598C182.212 183.567 182.182 183.542 182.143 183.513C181.74 184.11 181.201 184.844 180.672 185.344C180.275 185.718 178.067 185.668 179.197 182.46C179.197 182.46 177.666 186.167 176.476 185.674C174.925 185.029 175.177 183.38 175.742 181.984C175.022 183.061 174.13 183.938 173.496 183.006C172.251 181.179 175.07 174.68 175.07 174.68L175.399 170.744L173.247 168.614C173.247 168.614 165.557 168.823 165.744 162.763C165.83 159.986 167.866 158.696 170.048 158.113Z" fill="#F0896F"/>
<path d="M186.923 168.265L186.826 175.444L182.092 183.062" stroke="#040606" stroke-width="1.33333" stroke-miterlimit="10" strokeLinecap="round"/>
<path d="M183.567 168.309L183.197 175.709L179.199 182.461" stroke="#040606" stroke-width="1.33333" stroke-miterlimit="10" strokeLinecap="round"/>
<path d="M180.16 168.509L179.681 174.741L176.27 181" stroke="#040606" stroke-width="1.33333" stroke-miterlimit="10" strokeLinecap="round"/>
<path d="M170.42 166.843C170.42 166.843 171.191 173.267 169.318 174.676C167.444 176.086 164.422 162.804 166.5 162.634C169.546 162.385 170.42 166.843 170.42 166.843Z" fill="#F0896F"/>
<path d="M172.983 165.912C172.983 165.912 171.119 166.242 170.586 168.664" stroke="#040606" stroke-width="1.33333" stroke-miterlimit="10" strokeLinecap="round"/>
<path d="M136.809 134.836L145.869 121.776C154.151 109.656 148.632 96.8426 148.632 96.8426" stroke="#040606" stroke-width="1.33333" stroke-miterlimit="10" strokeLinecap="round"/>
<path d="M157.994 134.117C157.994 134.117 152.656 125.932 151.443 129.555" stroke="#040606" stroke-width="1.33333" stroke-miterlimit="10" strokeLinecap="round"/>
<path d="M160.062 66L158.525 65.642" stroke="white" stroke-width="1.33333" stroke-miterlimit="10"/>
<path d="M127.932 64.4183L116.549 71.0063C116.549 71.0063 116.25 85.9491 129.034 97.3075L134.774 91.1379L140.56 97.5391C140.56 97.5391 142.76 95.6262 143.414 86.9512L142.382 76.4169L127.932 64.4183Z" fill="white"/>
<path d="M142.382 76.4219L127.931 64.4233L116.549 71.0112" stroke="#040606" stroke-width="1.33333" stroke-miterlimit="10" strokeLinecap="round" strokeLinejoin="round"/>
<path d="M124.629 66.6876C124.629 66.6876 128.149 89.4492 133.359 91.0623C138.57 92.6745 141.82 81.2928 141.82 81.2928L131.73 50.2211L124.629 66.6876Z" fill="#F0896F"/>
<path d="M143.756 84.0217L143.818 86.8511C143.866 86.8803 143.714 87.7258 141.177 88.0469C130.031 87.6791 129.149 73.8075 128.242 62.7712C128.242 62.7712 144.784 81.8189 143.756 84.0217Z" fill="#040606"/>
<path d="M159.349 53.0856C159.349 53.0856 162.212 81.936 146.912 86.6247C131.612 91.3124 127.946 63.7133 128.474 54.1695C129.002 44.6237 133.31 39.9107 144.034 39.4826C159.898 38.8501 159.349 53.0856 159.349 53.0856Z" fill="#F0896F"/>
<path d="M136.448 45.261C136.448 45.261 136.161 51.3246 132.523 52.5359L129.907 61.4531C129.907 61.4531 127.715 57.4902 125.307 56.0863C125.307 56.0863 122.647 44.3104 125.995 39.6314C129.344 34.9524 133.999 32.5804 145.261 33.6156C153.833 34.4047 158.847 41.1308 160.485 44.5517C161.017 45.6619 162.305 48.7793 159.293 51.812C159.293 51.812 159.333 49.5168 157.574 46.8333C157.574 46.8333 153.469 56.1145 136.448 45.261Z" fill="#040606"/>
<path d="M121.781 62.9803C122.724 66.7866 125.432 69.3036 127.828 68.6012C130.225 67.8987 131.403 64.2432 130.459 60.436C129.516 56.6288 126.809 54.1118 124.412 54.8152C122.015 55.5177 120.837 59.1731 121.781 62.9803Z" fill="#F0896F"/>
<path d="M143.839 64.2529C143.796 65.2326 144.216 66.0538 144.78 66.085C145.343 66.1171 145.836 65.3474 145.879 64.3677C145.923 63.3869 145.501 62.5658 144.939 62.5346C144.375 62.5025 143.883 63.2721 143.839 64.2529Z" fill="#040606"/>
<path d="M155.639 65.0597C155.552 65.9791 155.892 66.7721 156.399 66.8324C156.905 66.8918 157.386 66.1951 157.473 65.2766C157.561 64.3572 157.221 63.5642 156.714 63.5049C156.208 63.4445 155.726 64.1412 155.639 65.0597Z" fill="#040606"/>
<path d="M140.471 56.4849C140.471 56.4849 144.523 57.4462 144.793 53.1944" stroke="#040606" stroke-width="1.33333" stroke-miterlimit="10" strokeLinecap="round"/>
<path d="M154.203 56.1315C154.203 56.1315 155.236 60.0827 158.283 57.7952" stroke="#040606" stroke-width="1.33333" stroke-miterlimit="10" strokeLinecap="round"/>
<path d="M143.133 80.0547C143.133 80.0547 141.797 74.033 137.65 77.4851L143.133 80.0547Z" fill="#040606"/>
<path d="M124.182 59.6634C124.182 59.6634 126.878 57.0987 128.35 61.7884C128.35 61.7884 126.776 63.637 127.77 65.0877C127.77 65.0877 126.217 65.4779 125.451 63.963" stroke="#040606" stroke-width="1.33333" stroke-miterlimit="10" strokeLinecap="round" strokeLinejoin="round"/>
<path d="M125.354 61.4531C125.354 61.4531 125.504 60.4111 126.55 59.2221" stroke="#040606" stroke-width="1.33333" stroke-miterlimit="10" strokeLinecap="round" strokeLinejoin="round"/>
<path d="M153.299 64.9073C153.299 67.6939 154.848 69.9531 156.758 69.9531C158.668 69.9531 160.216 67.6939 160.216 64.9073C160.216 62.1208 158.668 59.8615 156.758 59.8615C154.848 59.8615 153.299 62.1208 153.299 64.9073Z" stroke="white" stroke-width="1.33333" stroke-miterlimit="10"/>
<path d="M140.355 64.2161C140.355 67.169 142.327 69.5625 144.759 69.5625C147.19 69.5625 149.161 67.169 149.161 64.2161C149.161 61.2631 147.19 58.8686 144.759 58.8686C142.327 58.8686 140.355 61.2631 140.355 64.2161Z" stroke="white" stroke-width="1.33333" stroke-miterlimit="10"/>
<path d="M153.456 66.375C153.456 66.375 152.385 61.3487 148.912 66.0179" stroke="white" stroke-width="1.33333" stroke-miterlimit="10"/>
<path d="M140.448 62.1875L130.217 59.6383" stroke="white" stroke-width="1.33333" stroke-miterlimit="10"/>
<path d="M153.884 68.595C154.39 69.3072 154.496 70.1547 154.241 71.0712C153.987 71.9761 153.154 72.5268 152.309 72.5073C151.919 72.4986 151.542 72.3808 151.173 72.2534C151.011 72.1969 150.69 72.0053 150.516 72.0909C149.673 72.5034 148.69 71.689 148.971 71.0527" stroke="#040606" stroke-width="1.33333" stroke-miterlimit="10" strokeLinecap="round"/>
</g>
<defs>
<filter id="filter0_d_1741_94800" x="0" y="-0.000976562" width="540.732" height="441.001" filterUnits="userSpaceOnUse" color-interpolation-filters="sRGB">
<feFlood flood-opacity="0" result="BackgroundImageFix"/>
<feColorMatrix in="SourceAlpha" type="matrix" values="0 0 0 0 0 0 0 0 0 0 0 0 0 0 0 0 0 0 127 0" result="hardAlpha"/>
<feOffset dy="4"/>
<feGaussianBlur stdDeviation="10"/>
<feComposite in2="hardAlpha" operator="out"/>
<feColorMatrix type="matrix" values="0 0 0 0 0 0 0 0 0 0 0 0 0 0 0 0 0 0 0.1 0"/>
<feBlend mode="normal" in2="BackgroundImageFix" result="effect1_dropShadow_1741_94800"/>
<feBlend mode="normal" in="SourceGraphic" in2="effect1_dropShadow_1741_94800" result="shape"/>
</filter>
</defs>
</svg>

