<svg xmlns="http://www.w3.org/2000/svg" width="52" height="53" viewBox="0 0 52 53" fill="none">
  <path d="M40.3625 16.8608C39.4963 16.8608 39.4963 15.4459 40.3625 15.4459C41.2279 15.5343 41.2279 16.8608 40.3625 16.8608ZM40.3625 13.3234C38.8024 13.3234 37.5039 14.65 37.5039 16.2418C37.5039 17.8336 38.8024 19.1602 40.3625 19.1602C41.9209 19.1602 43.2202 17.8336 43.2202 16.2418C43.2202 14.65 41.9209 13.3234 40.3625 13.3234Z" fill="#0073C6"/>
  <path d="M20.2686 50.2891V45.4252C20.2686 42.949 18.2762 40.915 15.8516 40.915C13.4253 40.915 11.4329 42.949 11.4329 45.4252V50.2891H7.10252V34.813H24.4265V50.2891H20.2686ZM18.103 50.2891H13.5993V45.4252C13.5993 42.4184 18.103 42.4184 18.103 45.4252V50.2891ZM15.7641 25.0851L25.8983 32.5136H5.54331L15.7641 25.0851ZM37.7649 24.1123C34.1276 24.1123 30.8359 21.3708 30.1429 17.745C29.3641 13.8538 31.7021 9.87424 35.4269 8.63615C38.8044 7.57492 42.4435 8.98989 44.3484 11.9967C46.1675 15.0035 45.821 19.0715 43.3955 21.6361C41.9229 23.228 39.8439 24.1123 37.7649 24.1123ZM22.7807 18.0987L19.1433 16.0647C18.4494 15.6225 17.4974 16.2416 17.4974 17.0375V18.0987H16.5437L14.379 15.9763C13.9459 15.5341 13.252 15.5341 12.8189 16.0647L11.1739 18.0987H9.18152L6.40956 15.0919L8.92162 14.296H27.9773C27.7182 15.5341 27.7182 16.8606 27.9773 18.0987H22.7807ZM26.5913 43.6565H38.0248C43.4821 43.6565 48.5063 40.2959 50.7586 35.3436C53.2707 29.7722 51.8838 22.8742 47.3802 18.8062C48.6796 13.8538 45.9076 8.54771 41.2299 6.77901C36.3789 4.92187 30.8358 7.39805 28.7569 12.1736H8.83502C8.74754 12.1736 8.57514 12.1736 8.48852 12.262L4.15731 13.677C3.37855 13.9423 3.20532 14.915 3.7242 15.5341L8.05542 20.1327C8.22866 20.3096 8.57515 20.4865 8.83502 20.4865H11.6936C12.0393 20.4865 12.3 20.398 12.4724 20.1327L13.8584 18.5409L15.5042 20.1327C15.6775 20.3096 15.9373 20.398 16.2847 20.398H18.7093C19.3157 20.398 19.8354 19.8674 19.8354 19.2484V18.9831L22.0877 20.2212C22.2609 20.3096 22.4333 20.398 22.6074 20.398H28.7569C30.3161 23.847 33.6944 26.2347 37.4193 26.4116C41.2299 26.5885 44.7815 24.466 46.6006 21.1055C50.0647 24.7314 50.9318 30.3912 48.6796 34.9014C46.6872 38.881 42.5293 41.534 38.1123 41.534H26.5913V34.9014H29.2766C30.3161 34.9014 30.7492 33.4864 29.883 32.8674L16.3705 22.8742C16.0248 22.6089 15.5042 22.6089 15.0711 22.8742L1.55944 32.779C0.693193 33.398 1.1263 34.813 2.16579 34.813H4.93691V50.2891H1.03885C-0.346283 50.2891 -0.346283 52.5 1.03885 52.5H5.97641H12.4724H19.1433H25.466H43.3089C44.6949 52.5 44.6949 50.2891 43.3089 50.2891H41.1433V46.9286C41.1433 45.5136 38.9777 45.5136 38.9777 46.9286V50.2891H37.8524V46.9286C37.8524 45.5136 35.6868 45.5136 35.6868 46.9286V50.2891H34.5607V46.9286C34.5607 45.5136 32.3951 45.5136 32.3951 46.9286V50.2891H31.269V46.9286C31.269 45.5136 29.1042 45.5136 29.1042 46.9286V50.2891H26.4189L26.5913 43.6565Z" fill="#0073C6"/>
  <path d="M4.3306 2.71087H10.8266C11.5204 2.71087 12.1268 3.50678 11.866 4.21427C11.6936 4.65644 11.5204 5.01018 11.7803 5.45236C11.9535 5.8061 12.3 5.98297 12.7332 5.98297H15.1578C16.5438 5.98297 16.5438 8.19385 15.1578 8.19385H10.8266C10.1344 8.19385 9.52805 7.39793 9.78792 6.69045C9.96031 6.24828 10.1344 5.89453 9.87456 5.45236C9.70132 5.09862 9.35393 4.92175 8.92167 4.92175H4.3306C2.94547 4.92175 2.94547 2.71087 4.3306 2.71087ZM4.3306 7.13263H7.62231C7.62231 8.98977 9.09491 10.4932 10.914 10.4932H15.2452C16.9769 10.4932 18.5361 8.98977 18.5361 7.13263C18.5361 5.27549 16.8911 3.86052 15.1578 3.86052H14.0325C14.0325 2.00339 12.5599 0.499988 10.7408 0.499988H4.244C2.51151 0.499988 0.953125 2.00339 0.953125 3.86052C0.953125 5.71766 2.59812 7.13263 4.3306 7.13263Z" fill="#0073C6"/>
  <path d="M34.6484 34.813H36.814V37.0239H34.6484V34.813Z" fill="#0073C6"/>
  <path d="M36.8125 32.6021H38.9773V34.813H36.8125V32.6021Z" fill="#0073C6"/>
  <path d="M34.6484 30.3912H36.814V32.6021H34.6484V30.3912Z" fill="#0073C6"/>
  <path d="M36.8125 28.1802H38.9773V30.3911H36.8125V28.1802Z" fill="#0073C6"/>
</svg>