<svg xmlns="http://www.w3.org/2000/svg" width="52" height="53" viewBox="0 0 52 53" fill="none">
  <path d="M34.6965 21.3706C36.0809 21.3706 36.0809 19.1597 34.6965 19.1597H14.1045C12.7204 19.1597 12.7204 21.3706 14.1045 21.3706H34.6965Z" fill="#FFB800"/>
  <path d="M20.593 18.0986H28.207C29.5916 18.0986 29.5916 15.8877 28.207 15.8877H20.593C19.2086 15.8877 19.2086 18.0986 20.593 18.0986Z" fill="#FFB800"/>
  <path d="M28.2037 46.9288H5.44848C4.06405 46.9288 4.06405 49.1396 5.44848 49.1396H28.2037C29.5883 49.1396 29.5883 46.9288 28.2037 46.9288Z" fill="#FFB800"/>
  <path d="M49.8362 50.2891H36.858V32.5136H49.8362V50.2891ZM33.5699 46.9286V29.2414H39.7134C39.8864 29.3299 40.146 29.3299 40.3191 29.2414H46.5481V30.3911H35.7331C35.1274 30.3911 34.6083 30.9217 34.6083 31.5408V47.1054H33.5699V46.9286ZM6.57589 42.5068V41.3571H31.4933V42.5068H6.57589ZM27.0808 39.2347H20.2463V30.4795C20.2463 28.534 21.8031 26.9421 23.7069 26.9421C25.61 26.9421 27.1675 28.534 27.1675 30.4795V39.2347H27.0808ZM10.0365 17.1258L24.572 11.8196L39.0211 16.8605V27.0306H32.5316C31.9259 27.0306 31.4068 27.5612 31.4068 28.1802V39.3231H29.2444V30.568C29.2444 27.4727 26.7348 24.8197 23.6203 24.8197C20.5053 24.8197 17.9964 27.3843 17.9964 30.568V39.3231H10.0365V17.1258ZM5.96977 16.153C4.58568 16.6836 3.72024 14.4727 5.10441 13.8537L24.4853 5.01011L33.3112 8.98971C33.3969 8.98971 33.3969 9.07814 33.4834 9.07814L34.6948 9.60876L43.9523 13.8537C45.0772 14.3843 44.7319 16.0646 43.5206 16.0646C43.3466 16.0646 43.2601 16.0646 43.0879 15.9761L40.4921 14.9149C40.4921 14.9149 40.4921 14.9149 40.4056 14.9149L24.8316 9.52032C24.572 9.43189 24.3127 9.43189 24.1393 9.52032L8.56567 15.2686L5.96977 16.153ZM35.0409 6.24821C35.0409 4.56793 37.6367 4.56793 37.6367 6.24821V8.54753L35.6466 7.66317L35.1274 7.39787V6.24821H35.0409ZM50.8745 30.3027H48.7113V28.0918C48.7113 27.4727 48.1922 26.9421 47.5865 26.9421H41.1843V17.6564L42.3092 18.0986C43.9523 18.8061 45.9425 17.9217 46.6347 16.153C47.2404 14.4727 46.4616 12.6156 44.9041 11.9081L39.7999 9.60876V6.33664C39.7999 4.39106 38.2424 2.79922 36.3388 2.79922C34.4352 2.79922 32.8777 4.39106 32.8777 6.33664V6.51351L25.0044 2.88765C24.745 2.79922 24.3989 2.79922 24.1393 2.88765L4.23931 11.8196C2.59556 12.5271 1.81715 14.4727 2.42284 16.153C3.02819 17.9217 4.9317 18.8061 6.66216 18.187L7.87328 17.7448V39.0578H5.45078C4.845 39.0578 4.32601 39.5884 4.32601 40.2075V42.4183H1.03807C-0.346023 42.4183 -0.346023 44.6292 1.03807 44.6292H5.36442H31.3202V47.9898C31.3202 48.6088 31.8394 49.1394 32.4451 49.1394H34.6083V51.3503C34.6083 51.9694 35.1274 52.5 35.7331 52.5H50.8745C51.4802 52.5 51.9993 51.9694 51.9993 51.3503V31.4523C51.9993 30.8333 51.4802 30.3027 50.8745 30.3027Z" fill="#FFB800"/>
  <path d="M46.5465 37.0235H40.0579C38.6734 37.0235 38.6734 39.2344 40.0579 39.2344H46.5465C47.931 39.2344 47.931 37.0235 46.5465 37.0235Z" fill="#FFB800"/>
  <path d="M46.5465 40.2959H40.0579C38.6734 40.2959 38.6734 42.5068 40.0579 42.5068H46.5465C47.931 42.5068 47.931 40.2959 46.5465 40.2959Z" fill="#FFB800"/>
  <path d="M46.5465 43.6568H40.0579C38.6734 43.6568 38.6734 45.8677 40.0579 45.8677H46.5465C47.931 45.8677 47.931 43.6568 46.5465 43.6568Z" fill="#FFB800"/>
  <path d="M46.5485 46.9288H44.3853C43.0018 46.9288 43.0018 49.1396 44.3853 49.1396H46.5485C47.9329 49.1396 47.9329 46.9288 46.5485 46.9288Z" fill="#FFB800"/>
  <path d="M48.7132 7.13291C50.0977 7.13291 50.0977 9.3438 48.7132 9.3438C47.3288 9.3438 47.3288 7.13291 48.7132 7.13291ZM48.7132 11.5547C50.4438 11.5547 52.0012 10.0513 52.0012 8.19414C52.0012 6.33699 50.5303 4.83359 48.7132 4.83359C46.8962 4.83359 45.5117 6.42543 45.5117 8.28257C45.5117 10.1397 46.9827 11.5547 48.7132 11.5547Z" fill="#FFB800"/>
  <path d="M4.93193 2.71079C7.00841 2.71079 7.00841 6.07134 4.93193 6.07134C2.85545 6.07134 2.85545 2.71079 4.93193 2.71079ZM4.93193 8.28223C7.00841 8.28223 8.73861 6.51352 8.73861 4.39106C8.73861 2.26861 7.00841 0.499898 4.93193 0.499898C2.85545 0.499898 1.125 2.26861 1.125 4.39106C1.125 6.51352 2.85545 8.28223 4.93193 8.28223Z" fill="#FFB800"/>
</svg>