<svg xmlns="http://www.w3.org/2000/svg" width="24" height="25" viewBox="0 0 24 25" fill="none">
  <path fillRule="evenodd" clipRule="evenodd" d="M6.54125 5.5C6.60125 6.39 6.75125 7.26 6.99125 8.09L5.79125 9.29C5.38125 8.09 5.12125 6.82 5.03125 5.5H6.54125ZM16.3992 17.5195C17.2492 17.7595 18.1192 17.9095 18.9992 17.9695V19.4595C17.6792 19.3695 16.4092 19.1095 15.1992 18.7095L16.3992 17.5195ZM7.5 3.5H4C3.45 3.5 3 3.95 3 4.5C3 13.89 10.61 21.5 20 21.5C20.55 21.5 21 21.05 21 20.5V17.01C21 16.46 20.55 16.01 20 16.01C18.76 16.01 17.55 15.81 16.43 15.44C16.33 15.4 16.22 15.39 16.12 15.39C15.86 15.39 15.61 15.49 15.41 15.68L13.21 17.88C10.38 16.43 8.06 14.12 6.62 11.29L8.82 9.09C9.1 8.81 9.18 8.42 9.07 8.07C8.7 6.95 8.5 5.75 8.5 4.5C8.5 3.95 8.05 3.5 7.5 3.5Z" fill="#0073C6"/>
</svg>