<svg xmlns="http://www.w3.org/2000/svg" width="18" height="18" viewBox="0 0 18 18" fill="none">
  <path d="M14.6801 4.81947C14.7801 4.72266 14.8599 4.60685 14.9148 4.47878C14.9697 4.35071 14.9987 4.21295 15 4.07354C15.0012 3.93414 14.9748 3.79587 14.9222 3.66681C14.8697 3.53776 14.792 3.42049 14.6938 3.32187C14.5956 3.22324 14.4787 3.14522 14.3501 3.09237C14.2215 3.03952 14.0837 3.01289 13.9448 3.01403C13.8058 3.01518 13.6684 3.04408 13.5407 3.09904C13.413 3.15401 13.2975 3.23394 13.2009 3.33417L9.00593 7.54089L4.81238 3.33417C4.71656 3.23101 4.60101 3.14828 4.47262 3.09089C4.34423 3.03351 4.20564 3.00265 4.06511 3.00016C3.92457 2.99768 3.78498 3.02361 3.65466 3.07642C3.52433 3.12922 3.40594 3.20782 3.30655 3.30752C3.20717 3.40722 3.12882 3.52598 3.07618 3.65671C3.02354 3.78745 2.99768 3.92748 3.00016 4.06845C3.00264 4.20943 3.0334 4.34846 3.09061 4.47725C3.14781 4.60604 3.23029 4.72195 3.33312 4.81807L7.52388 9.02619L3.33033 13.2329C3.14545 13.4319 3.0448 13.6952 3.04959 13.9672C3.05437 14.2392 3.16422 14.4987 3.35598 14.6911C3.54774 14.8834 3.80645 14.9936 4.0776 14.9984C4.34875 15.0032 4.61118 14.9023 4.80959 14.7168L9.00593 10.5101L13.1995 14.7182C13.3979 14.9037 13.6603 15.0046 13.9315 14.9998C14.2026 14.995 14.4613 14.8848 14.6531 14.6925C14.8448 14.5001 14.9547 14.2406 14.9595 13.9686C14.9643 13.6966 14.8636 13.4333 14.6787 13.2343L10.488 9.02619L14.6801 4.81947Z" fill="#0073C6"/>
</svg>