<svg xmlns="http://www.w3.org/2000/svg" width="24" height="25" viewBox="0 0 24 25" fill="none">
  <path fillRule="evenodd" clipRule="evenodd" d="M12 2.5C15.87 2.5 19 5.63 19 9.5C19 14.75 12 22.5 12 22.5C12 22.5 5 14.75 5 9.5C5 5.63 8.13 2.5 12 2.5ZM7 9.5C7 12.35 9.92 16.71 12 19.38C14.12 16.69 17 12.38 17 9.5C17 6.74 14.76 4.5 12 4.5C9.24 4.5 7 6.74 7 9.5ZM12 12C10.6193 12 9.5 10.8807 9.5 9.5C9.5 8.11929 10.6193 7 12 7C13.3807 7 14.5 8.11929 14.5 9.5C14.5 10.8807 13.3807 12 12 12Z" fill="#0073C6"/>
</svg>