
<svg xmlns="http://www.w3.org/2000/svg" width="50" height="72" viewBox="0 0 50 72" fill="none">
  <g filter="url(#filter0_d_446_13079)">
    <path d="M30.0188 49.1913L29.3249 50.0876C31.3993 50.7467 32.7646 51.8674 32.7646 53.1394C32.7646 55.1687 29.2882 56.8142 25.0002 56.8142C20.7123 56.8142 17.236 55.1687 17.236 53.1394C17.236 51.8674 18.6011 50.7467 20.6755 50.0876L19.9815 49.1913C17.0179 50.1032 15.0264 51.798 15.0264 53.7389C15.0264 56.6449 19.492 59 25.0002 59C30.5085 59 34.974 56.6449 34.974 53.7389C34.974 51.798 32.9824 50.1032 30.0188 49.1913Z" fill="#EF3640"/>
    <path d="M39.8495 34.5569L24.9999 53.7389L10.1506 34.5569C1.94982 26.6512 1.94982 13.8346 10.1506 5.92879C18.3518 -1.97626 31.648 -1.97626 39.8495 5.92879C48.0502 13.8346 48.0502 26.6512 39.8495 34.5569Z" fill="#EF3640"/>
    <path d="M39.1531 20.2428C39.1531 27.7758 32.8181 33.8824 25.0031 33.8824C17.1883 33.8824 10.8532 27.7758 10.8532 20.2428C10.8532 12.7095 17.1883 6.60281 25.0031 6.60281C32.8181 6.60281 39.1531 12.7095 39.1531 20.2428Z" fill="white"/>
    <path d="M32.5214 27.5106V18.8779L25.0003 13.8598L17.4792 18.8779V27.5106C17.4792 27.7108 17.6476 27.8728 17.8552 27.8728H21.9919V22.5714C21.9919 22.1709 22.3287 21.8463 22.7442 21.8463H27.2567C27.6721 21.8463 28.0089 22.1709 28.0089 22.5714V27.8728H32.1456C32.3533 27.8728 32.5214 27.7108 32.5214 27.5106Z" fill="#EF3640"/>
    <path d="M20.8981 11.811H19.4508C19.2619 11.811 19.1087 11.9587 19.1087 12.1406V14.1681L21.2401 12.7457V12.1406C21.2401 11.9587 21.087 11.811 20.8981 11.811Z" fill="#EF3640"/>
    <path d="M24.7781 13.131C24.9124 13.0414 25.0902 13.0414 25.2246 13.131L33.244 18.482C33.6364 18.7442 34.1774 18.6291 34.4196 18.2323L34.4216 18.2288C34.6385 17.8732 34.5364 17.4173 34.1867 17.1797L25.2226 11.0954C25.0892 11.0075 24.9131 11.0075 24.7801 11.0954L15.8175 17.1851C15.4673 17.423 15.3656 17.8806 15.5839 18.2362C15.8268 18.6314 16.3667 18.7452 16.7585 18.4836L24.7781 13.131Z" fill="#EF3640"/>
  </g>
  <defs>
    <filter id="filter0_d_446_13079" x="0" y="0" width="50" height="72" filterUnits="userSpaceOnUse" color-interpolation-filters="sRGB">
      <feFlood flood-opacity="0" result="BackgroundImageFix"/>
      <feColorMatrix in="SourceAlpha" type="matrix" values="0 0 0 0 0 0 0 0 0 0 0 0 0 0 0 0 0 0 127 0" result="hardAlpha"/>
      <feOffset dy="9"/>
      <feGaussianBlur stdDeviation="2"/>
      <feComposite in2="hardAlpha" operator="out"/>
      <feColorMatrix type="matrix" values="0 0 0 0 1 0 0 0 0 0 0 0 0 0 0 0 0 0 0.24 0"/>
      <feBlend mode="normal" in2="BackgroundImageFix" result="effect1_dropShadow_446_13079"/>
      <feBlend mode="normal" in="SourceGraphic" in2="effect1_dropShadow_446_13079" result="shape"/>
    </filter>
  </defs>
</svg>