<svg xmlns="http://www.w3.org/2000/svg" width="34" height="34" viewBox="0 0 34 34" fill="none">
  <path d="M9.91602 9.2085V6.37516C9.91602 5.99944 10.0653 5.6391 10.3309 5.37343C10.5966 5.10775 10.957 4.9585 11.3327 4.9585H29.7493C30.1251 4.9585 30.4854 5.10775 30.7511 5.37343C31.0168 5.6391 31.166 5.99944 31.166 6.37516V19.1252C31.166 19.5009 31.0168 19.8612 30.7511 20.1269C30.4854 20.3926 30.1251 20.5418 29.7493 20.5418H28.3327" stroke="#4D6677" stroke-width="2" strokeLinecap="round" strokeLinejoin="round"/>
  <path d="M22.6663 13.4585H4.24967C3.46727 13.4585 2.83301 14.0928 2.83301 14.8752V27.6252C2.83301 28.4076 3.46727 29.0418 4.24967 29.0418H22.6663C23.4487 29.0418 24.083 28.4076 24.083 27.6252V14.8752C24.083 14.0928 23.4487 13.4585 22.6663 13.4585Z" stroke="#4D6677" stroke-width="2" strokeLinecap="round" strokeLinejoin="round"/>
  <path d="M2.83301 19.8335H24.083M24.083 16.2919V24.7919M2.83301 16.2919V24.7919M7.79134 24.0835H13.458M17.708 24.0835H19.1247" stroke="#4D6677" stroke-width="2" strokeLinecap="round" strokeLinejoin="round"/>
</svg>