<svg xmlns="http://www.w3.org/2000/svg" width="34" height="34" viewBox="0 0 34 34" fill="none">
  <path d="M18.0019 3.24838C17.8705 3.1167 17.7144 3.01224 17.5425 2.94097C17.3706 2.86969 17.1864 2.83301 17.0004 2.83301C16.8143 2.83301 16.6301 2.86969 16.4582 2.94097C16.2863 3.01224 16.1302 3.1167 15.9988 3.24838L3.24877 15.9984C3.0507 16.1965 2.91583 16.4489 2.86119 16.7237C2.80655 16.9984 2.83461 17.2832 2.94181 17.5421C3.049 17.8009 3.23054 18.0221 3.46345 18.1778C3.69636 18.3334 3.9702 18.4166 4.25035 18.4166H5.66702V28.3333C5.66702 29.8959 6.93777 31.1666 8.50035 31.1666H25.5004C27.0629 31.1666 28.3337 29.8959 28.3337 28.3333V18.4166H29.7503C30.0308 18.4172 30.3051 18.3345 30.5385 18.179C30.7718 18.0234 30.9537 17.802 31.061 17.5429C31.1683 17.2838 31.1962 16.9987 31.1412 16.7237C31.0862 16.4487 30.9507 16.1962 30.7519 15.9984L18.0019 3.24838ZM25.5018 28.3333H8.50035V14.7531L17.0004 6.25313L25.5004 14.7531V21.25L25.5018 28.3333Z" fill="#4D6677"/>
  <path d="M18.4163 14.1665H15.583V18.4165H11.333V21.2498H15.583V25.4998H18.4163V21.2498H22.6663V18.4165H18.4163V14.1665Z" fill="#4D6677"/>
</svg>