<svg xmlns="http://www.w3.org/2000/svg" width="34" height="34" viewBox="0 0 34 34" fill="none">
  <path d="M7.4375 2.125C7.71929 2.125 7.98954 2.23694 8.1888 2.4362C8.38806 2.63546 8.5 2.90571 8.5 3.1875V9.5625C8.49965 10.2219 8.70385 10.8653 9.08443 11.4038C9.46502 11.9423 10.0033 12.3496 10.625 12.5694V3.1875C10.625 2.90571 10.7369 2.63546 10.9362 2.4362C11.1355 2.23694 11.4057 2.125 11.6875 2.125C11.9693 2.125 12.2395 2.23694 12.4388 2.4362C12.6381 2.63546 12.75 2.90571 12.75 3.1875V12.5694C13.3717 12.3496 13.91 11.9423 14.2906 11.4038C14.6712 10.8653 14.8753 10.2219 14.875 9.5625V3.1875C14.875 2.90571 14.9869 2.63546 15.1862 2.4362C15.3855 2.23694 15.6557 2.125 15.9375 2.125C16.2193 2.125 16.4895 2.23694 16.6888 2.4362C16.8881 2.63546 17 2.90571 17 3.1875V9.5625C17.0002 10.7872 16.5774 11.9744 15.8029 12.9231C15.0284 13.8718 13.9499 14.5238 12.75 14.7687V30.8125C12.75 31.0943 12.6381 31.3645 12.4388 31.5638C12.2395 31.7631 11.9693 31.875 11.6875 31.875C11.4057 31.875 11.1355 31.7631 10.9362 31.5638C10.7369 31.3645 10.625 31.0943 10.625 30.8125V14.7687C9.42505 14.5238 8.34658 13.8718 7.57211 12.9231C6.79764 11.9744 6.37475 10.7872 6.375 9.5625V3.1875C6.375 2.90571 6.48694 2.63546 6.6862 2.4362C6.88546 2.23694 7.15571 2.125 7.4375 2.125ZM22.2679 5.26788C22.6058 4.92788 22.9861 4.6665 23.375 4.49437V14.875H21.25V7.4375C21.25 6.72137 21.6198 5.91388 22.2679 5.26788ZM23.375 17V30.8125C23.375 31.0943 23.4869 31.3645 23.6862 31.5638C23.8855 31.7631 24.1557 31.875 24.4375 31.875C24.7193 31.875 24.9895 31.7631 25.1888 31.5638C25.3881 31.3645 25.5 31.0943 25.5 30.8125V3.1875C25.5 2.90571 25.3881 2.63546 25.1888 2.4362C24.9895 2.23694 24.7193 2.125 24.4375 2.125C23.0286 2.125 21.7111 2.81775 20.7634 3.76338C19.8177 4.71113 19.125 6.02863 19.125 7.4375V15.9375C19.125 16.2193 19.2369 16.4895 19.4362 16.6888C19.6355 16.8881 19.9057 17 20.1875 17H23.375Z" fill="#4D6677"/>
</svg>