<svg xmlns="http://www.w3.org/2000/svg" width="34" height="34" viewBox="0 0 34 34" fill="none">
  <path d="M10.3527 29.9128C9.75484 29.9128 9.25098 29.7083 8.84109 29.2993C8.43215 28.8894 8.22767 28.3856 8.22767 27.7878C8.22767 27.1909 8.43215 26.6875 8.84109 26.2776C9.25098 25.8677 9.75484 25.6628 10.3527 25.6628C10.9496 25.6628 11.453 25.8677 11.8628 26.2776C12.2727 26.6875 12.4777 27.1909 12.4777 27.7878C12.4777 28.3856 12.2727 28.8894 11.8628 29.2993C11.453 29.7083 10.9496 29.9128 10.3527 29.9128ZM23.6467 29.9128C23.0498 29.9128 22.5464 29.7083 22.1365 29.2993C21.7266 28.8894 21.5217 28.3856 21.5217 27.7878C21.5217 27.1909 21.7266 26.6875 22.1365 26.2776C22.5464 25.8677 23.0498 25.6628 23.6467 25.6628C24.2445 25.6628 24.7484 25.8677 25.1583 26.2776C25.5672 26.6875 25.7717 27.1909 25.7717 27.7878C25.7717 28.3856 25.5672 28.8894 25.1583 29.2993C24.7484 29.7083 24.2445 29.9128 23.6467 29.9128ZM8.33109 7.7915L12.1122 15.7461H21.5118C21.6751 15.7461 21.8201 15.7055 21.9467 15.6243C22.0742 15.5421 22.1833 15.4288 22.2739 15.2843L25.9785 8.55509C26.0881 8.35487 26.0975 8.17731 26.0068 8.02242C25.9162 7.86848 25.7618 7.7915 25.5436 7.7915H8.33109ZM7.63834 6.37484H26.0833C26.6982 6.37484 27.161 6.62606 27.4717 7.1285C27.7833 7.63 27.7999 8.14709 27.5213 8.67975L23.4724 16.0578C23.2675 16.4025 23.0011 16.6731 22.6734 16.8695C22.3457 17.065 21.9854 17.1628 21.5925 17.1628H11.4747L9.75343 20.3233C9.60798 20.5406 9.60326 20.7767 9.73926 21.0317C9.87526 21.2867 10.0797 21.4142 10.3527 21.4142H25.7717V22.8308H10.3527C9.52629 22.8308 8.90956 22.4823 8.50251 21.7853C8.0964 21.0883 8.08648 20.3885 8.47276 19.6858L10.6034 15.8892L5.39434 4.95817H2.83301V3.5415H6.29251L7.63834 6.37484Z" fill="#4D6677"/>
</svg>