 <svg
        xmlns="http://www.w3.org/2000/svg"
        width="16"
        height="17"
        viewBox="0 0 16 17"
        fill="none"
      >
        <path
          d="M1.75 9.16667V9.58333H1.72323L1.75 9.59859V14.5V14.75H2H10H10.25V14.5V12.75H13.0833V14.5V14.75H13.3333H14H14.25V14.5V5.83333C14.25 4.84202 13.9002 3.99113 13.2048 3.29528L13.2047 3.29516C12.5089 2.5998 11.658 2.25 10.6667 2.25H8C7.00868 2.25 6.15779 2.5998 5.46195 3.29516L5.46183 3.29528C4.76647 3.99113 4.41667 4.84202 4.41667 5.83333V8.91667H2H1.75V9.16667ZM10.25 9.58333V9.16667V8.91667H10H5.58333V5.83333C5.58333 5.16683 5.81773 4.60249 6.29344 4.12678C6.76916 3.65106 7.3335 3.41667 8 3.41667H10.6667C11.3332 3.41667 11.8975 3.65106 12.3732 4.12678C12.8489 4.60249 13.0833 5.16683 13.0833 5.83333V11.5833H10.25V9.59859L10.2768 9.58333H10.25ZM5.8762 12.6305L6 12.7011L6.1238 12.6305L9.08333 10.9436V13.5833H2.91667V10.9436L5.8762 12.6305ZM6.75 6.83333V7.08333H7H11.6667H11.9167V6.83333V6.16667V5.91667H11.6667H7H6.75V6.16667V6.83333ZM6 11.4456L3.61011 10.0833H8.38989L6 11.4456Z"
          fill="#4D6677"
          stroke="#4D6677"
          stroke-width="0.5"
        />
      </svg>