<svg
        xmlns="http://www.w3.org/2000/svg"
        width="16"
        height="17"
        viewBox="0 0 16 17"
        fill="none"
      >
        <g clipPath="url(#clip0_2966_54687)">
          <path
            d="M8 5.3L12.2667 7.43333V15.9667H3.73333V7.43333L8 5.3ZM8 5.3V0.5M0 15.9667H16M1.6 15.9667V9.56667H3.73333M14.4 15.9667V9.56667H12.2667M6.93333 15.9667V12.7667H9.06667V15.9667M8 1.03333H11.2V3.16667H8M8 10.6333C7.7171 10.6333 7.44579 10.521 7.24575 10.3209C7.04571 10.1209 6.93333 9.84956 6.93333 9.56667C6.93333 9.28377 7.04571 9.01246 7.24575 8.81242C7.44579 8.61238 7.7171 8.5 8 8.5C8.2829 8.5 8.55421 8.61238 8.75425 8.81242C8.95429 9.01246 9.06667 9.28377 9.06667 9.56667C9.06667 9.84956 8.95429 10.1209 8.75425 10.3209C8.55421 10.521 8.2829 10.6333 8 10.6333Z"
            stroke="#4D6677"
            stroke-width="2"
          />
        </g>
        <defs>
          <clipPath id="clip0_2966_54687">
            <rect
              width="16"
              height="16"
              fill="white"
              transform="translate(0 0.5)"
            />
          </clipPath>
        </defs>
      </svg>