    <svg
        xmlns="http://www.w3.org/2000/svg"
        width="16"
        height="17"
        viewBox="0 0 16 17"
        fill="none"
      >
        <g clipPath="url(#clip0_2966_54674)">
          <path
            d="M4.5 15H11.5M10.5 14L12 15.5M5.5 14L4 15.5M10.75 2H10C10 1.86739 9.94732 1.74021 9.85355 1.64645C9.75979 1.55268 9.63261 1.5 9.5 1.5H6.5C6.36739 1.5 6.24021 1.55268 6.14645 1.64645C6.05268 1.74021 6 1.86739 6 2H5.25C4.78628 2.00132 4.34192 2.18612 4.01402 2.51402C3.68612 2.84192 3.50132 3.28628 3.5 3.75V11.4688C3.5 12.5719 8 13.5 8 13.5C8 13.5 12.5 12.5719 12.5 11.4688V3.75C12.5 3.28587 12.3156 2.84075 11.9874 2.51256C11.6592 2.18437 11.2141 2 10.75 2ZM8 11.5C7.70333 11.5 7.41332 11.412 7.16664 11.2472C6.91997 11.0824 6.72771 10.8481 6.61418 10.574C6.50065 10.2999 6.47094 9.99834 6.52882 9.70736C6.5867 9.41639 6.72956 9.14912 6.93934 8.93934C7.14912 8.72956 7.41639 8.5867 7.70736 8.52882C7.99834 8.47094 8.29994 8.50065 8.57403 8.61418C8.84811 8.72771 9.08238 8.91997 9.2472 9.16665C9.41203 9.41332 9.5 9.70333 9.5 10C9.5 10.3978 9.34196 10.7794 9.06066 11.0607C8.77936 11.342 8.39782 11.5 8 11.5ZM11 6.5C11 6.63261 10.9473 6.75979 10.8536 6.85355C10.7598 6.94732 10.6326 7 10.5 7H5.5C5.36739 7 5.24021 6.94732 5.14645 6.85355C5.05268 6.75979 5 6.63261 5 6.5V4.5C5 4.36739 5.05268 4.24021 5.14645 4.14645C5.24021 4.05268 5.36739 4 5.5 4H10.5C10.6326 4 10.7598 4.05268 10.8536 4.14645C10.9473 4.24021 11 4.36739 11 4.5V6.5Z"
            stroke="#4D6677"
            stroke-width="1.5"
            strokeLinecap="round"
            strokeLinejoin="round"
          />
        </g>
        <defs>
          <clipPath id="clip0_2966_54674">
            <rect
              width="16"
              height="16"
              fill="white"
              transform="translate(0 0.5)"
            />
          </clipPath>
        </defs>
      </svg>