<svg width="1920" height="410" viewBox="0 0 1920 410" fill="none" xmlns="http://www.w3.org/2000/svg">
<rect width="1920" height="410" fill="white"/>
<path opacity="0.8" d="M1907.75 175.426C1903.97 170.456 1896.52 167.747 1890.95 170.547C1890.32 166.503 1887.45 162.882 1883.65 161.36C1879.86 159.839 1875.28 160.473 1872.04 162.969C1869.32 154.328 1860.61 147.961 1851.57 148C1842.52 148.039 1833.87 154.482 1831.22 163.145C1826.36 160.332 1820.13 160.034 1815.02 162.368C1809.92 164.703 1806.06 169.904 1805 175.426H1907.75Z" fill="#A7C4DA" fill-opacity="0.5"/>
<path opacity="0.8" d="M1467.75 113.426C1463.97 108.456 1456.52 105.747 1450.95 108.547C1450.32 104.503 1447.45 100.882 1443.65 99.3604C1439.86 97.8391 1435.28 98.4729 1432.04 100.969C1429.32 92.3281 1420.61 85.9608 1411.57 86.0003C1402.52 86.0392 1393.87 92.4817 1391.22 101.145C1386.36 98.3319 1380.13 98.0335 1375.02 100.368C1369.92 102.703 1366.06 107.904 1365 113.426H1467.75Z" fill="#A7C4DA" fill-opacity="0.5"/>
<path opacity="0.8" d="M704.748 113.426C700.972 108.456 693.52 105.747 687.947 108.547C687.321 104.503 684.446 100.882 680.652 99.3604C676.857 97.8391 672.283 98.4729 669.043 100.969C666.322 92.3281 657.612 85.9608 648.566 86.0003C639.522 86.0392 630.867 92.4817 628.22 101.145C623.359 98.3319 617.132 98.0335 612.025 100.368C606.918 102.703 603.064 107.904 602 113.426H704.748Z" fill="#A7C4DA" fill-opacity="0.5"/>
<path opacity="0.8" d="M127.748 81.4258C123.972 76.4556 116.52 73.7469 110.947 76.5472C110.321 72.5028 107.446 68.8818 103.652 67.3604C99.8574 65.8391 95.2829 66.4729 92.0427 68.9685C89.3219 60.3281 80.6115 53.9608 71.5663 54.0003C62.5217 54.0392 53.8666 60.4817 51.2204 69.1451C46.3587 66.3319 40.1323 66.0335 35.025 68.3679C29.9176 70.703 26.0637 75.9038 25 81.4258H127.748Z" fill="#A7C4DA" fill-opacity="0.5"/>
</svg>