<svg width="245" height="178" viewBox="0 0 245 178" fill="none" xmlns="http://www.w3.org/2000/svg">
<path d="M75.0963 89.4827C90.4706 84.2387 104.349 75.3546 115.547 63.5879L138.057 39.936C157.082 19.9465 182.511 7.25682 209.922 4.07357L245 0V178H0L15.9723 143.002C27.4791 117.789 48.8653 98.4297 75.0963 89.4827Z" fill="url(#paint0_linear_4311_134212)"/>
<g clipPath="url(#clip0_4311_134212)">
<path d="M127.93 68.6645V85.5282H125.576V89.6187L121.508 85.5282H99.1855V68.6645H127.93Z" fill="#A7C4DA"/>
<path d="M108.123 77.0964C108.123 77.8527 107.513 78.4658 106.761 78.4658C106.009 78.4658 105.399 77.8527 105.399 77.0964C105.399 76.3397 106.009 75.7266 106.761 75.7266C107.513 75.7266 108.123 76.3397 108.123 77.0964Z" fill="white"/>
<path d="M114.92 77.0964C114.92 77.8527 114.31 78.4658 113.558 78.4658C112.806 78.4658 112.196 77.8527 112.196 77.0964C112.196 76.3397 112.806 75.7266 113.558 75.7266C114.31 75.7266 114.92 76.3397 114.92 77.0964Z" fill="white"/>
<path d="M121.717 77.0964C121.717 77.8527 121.107 78.4658 120.355 78.4658C119.603 78.4658 118.993 77.8527 118.993 77.0964C118.993 76.3397 119.603 75.7266 120.355 75.7266C121.107 75.7266 121.717 76.3397 121.717 77.0964Z" fill="white"/>
<path d="M83.0146 114.289C85.4572 119.368 91.5319 121.494 96.5825 119.038C101.633 116.581 103.747 110.472 101.305 105.393C98.862 100.314 92.7876 98.1883 87.7371 100.645C82.6865 103.101 80.5723 109.21 83.0146 114.289Z" fill="#A7C4DA"/>
<path d="M92.1674 120.059C93.4206 120.059 94.69 119.825 95.9132 119.334V119.334C94.6897 119.825 93.4206 120.059 92.1668 120.059C91.9973 120.059 91.8282 120.055 91.6594 120.046C91.8285 120.055 91.9977 120.059 92.1674 120.059ZM84.8969 102.695C84.8991 102.692 84.901 102.69 84.9033 102.688C84.901 102.69 84.8991 102.692 84.8969 102.695ZM84.9046 102.687C85.7022 101.869 86.6518 101.172 87.7368 100.645C89.1623 99.9516 90.6684 99.6235 92.1521 99.6235C93.9558 99.6235 95.7259 100.109 97.2734 101.013C95.7256 100.109 93.9554 99.6229 92.1515 99.6229C90.668 99.6229 89.1619 99.9509 87.7368 100.644C86.6518 101.172 85.7022 101.868 84.9046 102.687Z" fill="#E9EAE7"/>
<path d="M92.1667 120.059C93.4205 120.059 94.6896 119.825 95.9132 119.334C95.7615 118.574 95.6115 117.808 95.4646 117.043C95.213 117.198 94.9515 117.343 94.6801 117.475C93.4406 118.077 92.1301 118.363 90.84 118.363C87.558 118.363 84.4063 116.516 82.882 113.346C82.309 112.155 82.0245 110.9 82.0009 109.659C81.9716 111.213 82.2959 112.795 83.0142 114.289C84.6885 117.77 88.0708 119.865 91.6593 120.046C91.8281 120.055 91.9973 120.059 92.1667 120.059ZM83.3089 104.827C84.1613 103.427 85.4113 102.25 86.989 101.482C88.2282 100.88 89.5387 100.594 90.8285 100.594C93.0775 100.594 95.2646 101.461 96.9099 103.028C97.6731 102.903 98.537 102.81 99.4707 102.746C98.8151 102.062 98.0739 101.482 97.2734 101.013C95.7259 100.109 93.9557 99.6235 92.1521 99.6235C90.6683 99.6235 89.1622 99.9516 87.7367 100.645C86.6517 101.172 85.7021 101.869 84.9045 102.687C84.9038 102.687 84.9035 102.688 84.9032 102.688C84.901 102.69 84.8991 102.692 84.8968 102.695C84.2715 103.338 83.7396 104.056 83.3089 104.827Z" fill="#DDDEDB"/>
<path d="M94.3638 106.524C94.7078 107.239 95.5631 107.539 96.2741 107.193C96.9854 106.847 97.283 105.987 96.9389 105.271C96.5952 104.556 95.7399 104.257 95.0286 104.603C94.3176 104.949 94.0198 105.809 94.3638 106.524Z" fill="#BEBFBD"/>
<path d="M85.6295 110.772C85.9735 111.487 86.8288 111.787 87.5398 111.441C88.2508 111.095 88.5486 110.235 88.2046 109.52C87.8609 108.805 87.0056 108.505 86.2943 108.851C85.5833 109.197 85.2854 110.057 85.6295 110.772Z" fill="#BEBFBD"/>
<path d="M89.1545 108.573C89.3768 109.036 89.7419 109.382 90.1713 109.587C90.7399 109.858 91.4216 109.877 92.0341 109.579C92.6442 109.283 93.0532 108.732 93.1952 108.116C93.3007 107.651 93.2574 107.148 93.0347 106.685L89.1545 108.573Z" fill="#BEBFBD"/>
<path d="M90.1713 109.587C90.7399 109.858 91.4216 109.877 92.0342 109.579C92.6442 109.283 93.0532 108.732 93.1953 108.116C92.634 107.958 91.9976 108.004 91.4121 108.289C90.8266 108.574 90.3969 109.046 90.1713 109.587Z" fill="#D4D6D3"/>
<path d="M214.809 108.258V131.85H211.516V137.573L205.825 131.85H174.597V108.258H214.809Z" fill="white"/>
<path d="M214.809 108.258C204.648 108.172 184.488 108.022 174.325 107.983L174.325 108.258L174.285 131.85L174.284 132.163C183.435 132.19 196.54 132.124 205.825 132.123L205.633 132.043L211.349 137.741L211.756 138.146L211.753 137.572L211.723 131.85L211.516 132.058L214.809 132.041L215 132.04C215 125.096 214.845 115.287 214.809 108.258ZM214.809 108.258C214.727 115.212 214.665 125.012 214.618 131.85L214.809 131.658L211.516 131.641L211.31 131.64L211.309 131.85L211.279 137.572L211.683 137.404L206.018 131.656L205.939 131.577C196.702 131.559 183.708 131.528 174.597 131.536L174.909 131.85L174.868 108.258L174.597 108.531C184.62 108.494 204.786 108.343 214.809 108.258Z" fill="#A7C4DA"/>
<path d="M187.102 120.054C187.102 121.112 186.249 121.97 185.196 121.97C184.144 121.97 183.291 121.112 183.291 120.054C183.291 118.996 184.144 118.138 185.196 118.138C186.249 118.138 187.102 118.996 187.102 120.054Z" fill="#A7C4DA"/>
<path d="M196.609 120.054C196.609 121.112 195.756 121.97 194.704 121.97C193.652 121.97 192.799 121.112 192.799 120.054C192.799 118.996 193.652 118.138 194.704 118.138C195.756 118.138 196.609 118.996 196.609 120.054Z" fill="#A7C4DA"/>
<path d="M206.117 120.054C206.117 121.112 205.264 121.97 204.212 121.97C203.16 121.97 202.307 121.112 202.307 120.054C202.307 118.996 203.16 118.138 204.212 118.138C205.264 118.138 206.117 118.996 206.117 120.054Z" fill="#A7C4DA"/>
<path d="M181.199 44.7284C180.436 49.5351 183.693 54.0532 188.473 54.8198C193.253 55.5867 197.746 52.3112 198.508 47.5045C199.271 42.6974 196.014 38.179 191.234 37.4124C186.454 36.6458 181.961 39.9213 181.199 44.7284Z" fill="#A7C4DA"/>
<path d="M189.863 54.9316C190.975 54.9316 192.051 54.7183 193.047 54.3252C192.051 54.718 190.975 54.9313 189.863 54.9313C189.404 54.9313 188.939 54.8951 188.472 54.8198C186.966 54.5786 185.612 53.9652 184.487 53.0874C185.612 53.9652 186.967 54.5789 188.472 54.8202C188.939 54.8951 189.404 54.9316 189.863 54.9316ZM197.545 41.8925C196.288 39.5812 194.02 37.859 191.233 37.4122C190.766 37.3372 190.301 37.301 189.843 37.301C189.28 37.301 188.727 37.3554 188.188 37.4605C188.727 37.3558 189.279 37.3013 189.841 37.3013C190.3 37.3013 190.765 37.3375 191.232 37.4125C194.019 37.8597 196.288 39.5815 197.545 41.8925Z" fill="#E9EAE7"/>
<path d="M189.863 54.9312C190.975 54.9312 192.051 54.7178 193.047 54.3251C195.842 53.2215 198 50.7014 198.507 47.504C198.824 45.4996 198.443 43.5452 197.545 41.8923C196.288 39.5813 194.019 37.8595 191.232 37.4123C190.765 37.3373 190.3 37.3011 189.841 37.3011C189.279 37.3011 188.727 37.3556 188.188 37.4604C187.441 37.6058 186.722 37.8483 186.047 38.1763C186.985 37.7631 188.015 37.5376 189.081 37.5376C189.481 37.5376 189.885 37.5693 190.292 37.6346C194.448 38.3013 197.28 42.229 196.618 46.4091C196.02 50.1792 192.781 52.8666 189.101 52.8666C188.702 52.8666 188.299 52.8352 187.892 52.7698C183.735 52.1032 180.903 48.1742 181.566 43.9953C181.745 42.8677 182.159 41.8378 182.751 40.9482C181.968 42.0332 181.421 43.3143 181.197 44.7279C180.675 48.0204 182.039 51.1783 184.487 53.0873C185.612 53.965 186.966 54.5785 188.472 54.8197C188.939 54.895 189.404 54.9312 189.863 54.9312Z" fill="#DDDEDB"/>
<path d="M193.041 44.8619C192.934 45.5388 193.392 46.175 194.066 46.2827C194.739 46.3906 195.371 45.9296 195.479 45.2528C195.586 44.5759 195.127 43.9397 194.454 43.8317C193.781 43.7238 193.149 44.1851 193.041 44.8619Z" fill="#BEBFBD"/>
<path d="M184.774 43.536C184.666 44.2128 185.125 44.849 185.798 44.957C186.471 45.0649 187.104 44.6037 187.211 43.9268C187.318 43.2502 186.86 42.614 186.187 42.5061C185.514 42.3981 184.881 42.8594 184.774 43.536Z" fill="#BEBFBD"/>
<path d="M188.211 45.6514C188.023 46.8415 188.618 47.9265 189.541 48.0745C190.465 48.2225 191.366 47.3777 191.555 46.1874C191.744 44.9973 191.148 43.9123 190.225 43.7643C189.302 43.6163 188.4 44.461 188.211 45.6514Z" fill="#BEBFBD"/>
<path d="M196.102 43.5625C196.102 43.5625 195.399 42.1315 193.544 42.6649L196.102 43.5625Z" fill="#BEBFBD"/>
<path d="M184.704 41.7344C184.704 41.7344 185.814 40.5943 187.412 41.6815L184.704 41.7344Z" fill="#BEBFBD"/>
<path d="M166.276 42.8975L165.117 44.6344L163.116 45.2062L164.401 46.8512L164.323 48.9414L166.276 48.2216L168.229 48.9414L168.151 46.8512L169.436 45.2062L167.435 44.6344L166.276 42.8975Z" fill="#A7C4DA"/>
<path d="M157.34 42.8975L156.181 44.6344L154.181 45.2062L155.465 46.8512L155.388 48.9414L157.34 48.2216L159.293 48.9414L159.216 46.8512L160.5 45.2062L158.5 44.6344L157.34 42.8975Z" fill="#A7C4DA"/>
<path d="M148.403 42.8975L147.244 44.6344L145.243 45.2062L146.528 46.8512L146.45 48.9414L148.403 48.2216L150.356 48.9414L150.278 46.8512L151.562 45.2062L149.562 44.6344L148.403 42.8975Z" fill="#A7C4DA"/>
<path d="M139.467 42.8975L138.308 44.6344L136.308 45.2062L137.592 46.8512L137.514 48.9414L139.467 48.2216L141.42 48.9414L141.343 46.8512L142.627 45.2062L140.626 44.6344L139.467 42.8975Z" fill="#A7C4DA"/>
<path d="M130.531 42.8977L130.664 42.9871L129.472 44.7723L127.644 45.2951L128.817 46.7988L128.747 48.709L130.531 48.051L132.316 48.709L132.246 46.7988L133.419 45.2951L131.591 44.7726L130.399 42.9871L130.531 42.8977L130.664 42.8086L131.79 44.4965L133.963 45.1173L132.568 46.9042L132.652 49.1738L130.531 48.3922L128.411 49.1738L128.495 46.9042L127.1 45.1173L129.273 44.4965L130.531 42.6103L130.664 42.8086L130.531 42.8977Z" fill="#A7C4DA"/>
<path d="M130.532 48.2216V42.8975L131.691 44.6344L133.691 45.2062L132.407 46.8512L132.484 48.9414L130.532 48.2216Z" fill="#A7C4DA"/>
<path d="M198.447 145.109C200.267 145.174 202.296 145.278 203.803 144.091C205.194 142.997 206.435 141.364 206.251 139.489C206.198 138.955 206.076 138.625 205.507 138.853C204.639 139.201 203.97 140.163 203.369 140.839C202.589 141.716 201.775 142.53 200.845 143.247C200.198 143.746 199.5 144.177 198.84 144.661C198.756 144.72 198.673 144.781 198.592 144.846C198.561 144.868 198.529 144.892 198.498 144.916L198.446 144.918C198.411 144.919 198.385 144.935 198.371 144.957L198.357 144.989C198.346 145.042 198.376 145.107 198.447 145.109Z" fill="#33535F"/>
<path d="M198.357 144.989C199.956 144.961 201.682 145.034 202.962 143.943C203.553 143.437 204.046 142.792 204.447 142.127C204.632 141.824 205.186 140.922 204.957 140.563C204.541 139.913 202.635 142.562 202.371 142.816C201.38 143.766 200.143 144.328 198.839 144.661C198.755 144.72 198.673 144.782 198.591 144.846C199.522 144.644 200.426 144.313 201.244 143.821C202.379 143.14 203.011 142.133 203.899 141.193C204.091 140.989 204.67 140.306 204.888 140.731C205.032 141.012 204.497 141.895 204.381 142.085C203.999 142.714 203.531 143.324 202.977 143.81C201.701 144.93 199.983 144.891 198.371 144.957L198.357 144.989Z" fill="white"/>
<path d="M197.443 146.225C197.459 146.296 197.473 146.366 197.487 146.437L197.49 146.444L197.522 146.481C197.557 146.495 197.604 146.478 197.618 146.444L197.619 146.4L197.61 146.372L197.59 146.309L197.594 146.304L197.599 146.283C197.922 145.073 198.047 143.814 198.387 142.602C198.711 141.446 199.114 140.312 199.347 139.132C199.495 138.388 200.009 134.654 198.373 135.119C197.649 135.326 197.152 136.382 196.877 137.013C196.508 137.859 196.323 138.775 196.274 139.695C196.155 141.972 196.985 144.043 197.443 146.225Z" fill="#33535F"/>
<path d="M197.471 145.346C197.516 144.368 197.612 143.392 197.751 142.422C197.861 141.639 198.007 140.865 198.171 140.093C198.264 139.656 198.36 139.219 198.38 138.771C198.394 138.431 198.346 137.172 197.7 137.952C197.234 138.519 197.121 139.724 197.065 140.419C197 141.191 197.034 141.965 197.11 142.737C197.198 143.61 197.342 144.478 197.471 145.346ZM196.918 141.577C196.899 140.726 196.961 139.869 197.181 139.044C197.254 138.757 197.61 137.384 198.072 137.418C198.371 137.438 198.422 138.031 198.447 138.227C198.552 139.058 198.284 139.906 198.123 140.714C197.793 142.362 197.61 144.027 197.522 145.701C197.536 145.806 197.553 145.914 197.564 146.018C197.579 146.107 197.587 146.194 197.598 146.282C197.601 146.313 197.607 146.342 197.61 146.373L197.618 146.444C197.604 146.478 197.556 146.495 197.522 146.481C197.514 146.413 197.502 146.345 197.494 146.277C197.491 146.333 197.491 146.387 197.488 146.444L197.485 146.438C197.474 146.379 197.463 146.322 197.452 146.265L197.443 146.226C197.443 146.132 197.446 146.038 197.449 145.948C197.24 144.492 196.955 143.046 196.918 141.577Z" fill="white"/>
<path d="M196.463 151.247H196.464C196.495 151.253 196.527 151.255 196.531 151.255C198.195 151.17 200.412 151.327 201.796 150.22C202.818 149.403 203.822 147.787 203.499 146.416C203.131 144.871 201.056 146.725 200.507 147.172C199.108 148.314 196.43 151.107 196.43 151.161L196.409 151.192L196.406 151.197C196.391 151.224 196.426 151.239 196.463 151.247Z" fill="#33535F"/>
<path d="M199.698 150.245C200.226 150.007 200.714 149.672 201.134 149.269C201.413 149.002 202.398 148.001 202.135 147.59C201.997 147.372 201.881 147.488 201.616 147.618C201.495 147.678 201.377 147.749 201.264 147.823C200.985 148.007 200.728 148.223 200.468 148.43C200.012 148.798 199.549 149.153 199.075 149.499C198.302 150.066 197.507 150.599 196.694 151.107C197.693 150.798 198.748 150.676 199.698 150.245ZM196.407 151.198C196.503 151.138 196.598 151.079 196.694 151.016C197.789 150.324 198.855 149.584 199.879 148.793C200.138 148.594 202.011 146.918 202.293 147.516C202.462 147.879 201.845 148.617 201.647 148.866C201.292 149.312 200.863 149.698 200.384 150.001C199.275 150.696 197.93 150.846 196.675 151.181C196.615 151.192 196.556 151.209 196.497 151.226L196.466 151.246H196.463C196.426 151.238 196.393 151.223 196.407 151.198Z" fill="white"/>
<path d="M193.424 147.8C193.847 149.715 194.862 151.463 196.275 152.808L196.306 152.826C196.339 152.838 196.372 152.822 196.391 152.795C196.411 152.768 196.414 152.729 196.383 152.698L196.299 152.613C196.023 150.338 195.719 148.077 195.486 145.796C195.432 145.259 195.014 141.837 193.968 142.394C193.323 142.739 193.28 144.14 193.225 144.77C193.135 145.782 193.205 146.809 193.424 147.8Z" fill="#33535F"/>
<path d="M196.164 152.471C196.184 152.503 196.206 152.531 196.226 152.562C196.206 152.5 196.187 152.44 196.17 152.378C195.749 151.011 195.391 149.615 195.151 148.203C195.03 147.485 194.954 146.762 194.807 146.05C194.745 145.749 194.599 144.89 194.35 144.751C194.111 144.612 194.108 144.946 194.082 145.139C194.066 145.278 194.066 145.531 194.063 145.661C194.023 148.146 194.785 150.472 196.164 152.471ZM194.029 144.751C194.085 144.561 194.184 144.365 194.396 144.498C194.802 144.753 194.962 146.362 195.03 146.807C195.309 148.643 195.741 150.407 196.181 152.202C196.218 152.352 196.254 152.506 196.291 152.659C196.325 152.704 196.359 152.75 196.393 152.795C196.373 152.823 196.339 152.838 196.308 152.826L196.294 152.781C196.249 152.721 196.201 152.659 196.158 152.596V152.594C195.442 151.615 194.886 150.503 194.511 149.366C194.271 148.634 194.111 147.882 194.026 147.116C193.947 146.413 193.817 145.44 194.029 144.751Z" fill="white"/>
<path d="M195.999 157.713H196.332C196.337 157.418 196.343 157.123 196.351 156.831C196.391 155.643 196.439 154.454 196.509 153.265C196.549 152.588 196.597 151.916 196.667 151.249L196.673 151.181C196.681 151.127 196.687 151.073 196.693 151.016C196.698 150.96 196.707 150.9 196.715 150.84C196.896 149.343 197.212 147.879 197.858 146.472C198.069 146.01 198.301 145.559 198.543 145.111C198.566 145.068 198.591 145.026 198.614 144.983L198.633 144.949C198.656 144.904 198.681 144.861 198.707 144.816C198.726 144.782 198.743 144.75 198.763 144.717C199.533 143.355 200.413 142.053 201.248 140.743C201.488 140.368 201.727 139.991 201.962 139.614L202.004 139.545L202.058 139.463C203.107 137.798 204.139 136.119 205.228 134.485C205.27 134.426 205.171 134.372 205.132 134.431C204.396 135.515 203.634 136.581 202.878 137.654C202.777 137.796 202.678 137.94 202.577 138.082C202.376 138.366 202.179 138.646 201.981 138.93C201.586 139.497 201.197 140.065 200.816 140.64C199.745 142.254 198.625 143.883 197.753 145.624C197.688 145.755 197.626 145.885 197.564 146.018C197.525 146.101 197.485 146.183 197.452 146.265C197.406 146.359 197.364 146.455 197.322 146.552C196.583 148.256 196.32 150.012 196.202 151.822C196.194 151.947 196.185 152.074 196.179 152.202C196.177 152.259 196.171 152.318 196.168 152.378C196.168 152.409 196.165 152.44 196.163 152.471C196.163 152.511 196.16 152.551 196.157 152.593V152.596C196.157 152.624 196.154 152.656 196.154 152.687C196.148 152.795 196.146 152.902 196.14 153.013C196.092 154.202 196.061 155.39 196.036 156.576C196.027 156.953 196.013 157.333 195.999 157.713Z" fill="#33535F"/>
<path d="M205.931 136.183C206.842 134.951 208.009 132.41 206.667 131.089C206.127 130.557 205.377 130.503 204.764 130.947C204.055 131.463 203.736 132.438 203.507 133.245C202.892 135.4 202.484 137.596 201.716 139.708C201.702 139.721 201.651 139.889 201.632 139.935C201.616 139.979 201.686 139.997 201.702 139.954C201.728 139.886 201.752 139.817 201.778 139.748C203.229 138.69 204.851 137.644 205.931 136.183Z" fill="#33535F"/>
<path d="M202.058 139.463C203.009 138.709 203.937 137.886 204.622 136.877C204.977 136.352 205.271 135.773 205.457 135.164C205.539 134.894 205.601 134.613 205.637 134.332C205.666 134.125 205.683 133.907 205.674 133.697C205.66 133.232 205.468 132.724 205.195 132.676C204.856 132.613 204.743 132.812 204.52 133.203C204.444 133.334 204.38 133.473 204.32 133.612C204.171 133.961 204.055 134.324 203.942 134.684C203.753 135.283 203.562 135.878 203.347 136.468C203.203 136.868 203.048 137.265 202.879 137.654C202.588 138.326 202.261 138.978 201.88 139.605C201.94 139.56 201.999 139.512 202.058 139.463ZM201.703 139.713L201.725 139.676C202.044 139.16 202.323 138.63 202.577 138.082C203.102 136.945 203.502 135.753 203.886 134.554C204.032 134.091 204.687 131.828 205.491 132.73C205.829 133.11 205.781 133.782 205.728 134.247C205.646 134.996 205.389 135.711 205.028 136.369C204.306 137.677 203.183 138.666 202.004 139.546C201.951 139.588 201.897 139.628 201.844 139.668L201.81 139.725L201.787 139.761L201.768 139.778L201.697 139.747L201.703 139.713Z" fill="white"/>
<path d="M98.206 139.627C98.3563 140.848 98.5885 142.057 98.8341 143.261C98.9721 143.944 99.1192 144.626 99.2565 145.311C99.4078 146.065 99.6305 146.832 99.4276 147.593L99.4235 147.594L99.4158 147.7L99.4241 147.713C99.4604 147.762 99.5569 147.762 99.5811 147.685L99.5942 147.634L99.6066 147.618C99.7344 147.445 99.8162 147.112 99.8681 146.985C100.105 146.411 100.302 145.819 100.471 145.22C100.818 143.994 101.028 142.729 101.062 141.454C101.092 140.314 100.978 139.169 100.709 138.062C100.492 137.175 100.185 135.852 99.5273 135.174C98.9313 134.561 98.4356 135.543 98.2639 136.04C97.8772 137.17 98.0636 138.471 98.206 139.627Z" fill="#33535F"/>
<path d="M99.6117 147.147C99.5891 147.346 99.5582 147.542 99.5213 147.734C99.5665 147.592 99.6117 147.451 99.6538 147.309C100.119 145.783 100.444 144.214 100.489 142.615C100.517 141.718 100.455 140.816 100.294 139.931C100.207 139.455 100.094 138.987 99.95 138.527C99.8882 138.334 99.5665 137.132 99.2929 137.191C99.1011 137.234 99.0559 138.317 99.053 138.34C99.0418 138.556 99.0418 138.774 99.0447 138.993C99.0504 139.44 99.0813 139.889 99.118 140.334C99.2027 141.301 99.341 142.266 99.4566 143.23C99.6117 144.515 99.7611 145.854 99.6117 147.147ZM99.2929 137.035C99.7356 137.035 100.057 138.473 100.215 139.094C100.466 140.073 100.585 141.08 100.593 142.09C100.61 143.908 100.257 145.698 99.6764 147.411C99.6538 147.479 99.6315 147.55 99.606 147.618L99.5948 147.635L99.5805 147.683C99.5582 147.76 99.4595 147.763 99.4225 147.712C99.4509 147.561 99.4735 147.414 99.4904 147.263C99.5072 147.127 99.5213 146.994 99.5299 146.861C99.6512 145.4 99.4423 143.905 99.2591 142.456C99.0447 140.754 98.7061 137.038 99.2929 137.035Z" fill="white"/>
<path d="M91.2344 142.998C92.0473 144.593 93.4164 145.814 94.8301 146.861C95.5886 147.421 96.3722 147.946 97.1418 148.487C97.7872 148.941 98.568 149.421 99.1385 150.032C99.164 150.058 99.1901 150.086 99.2146 150.115C99.3739 150.294 99.5144 150.485 99.6284 150.689L99.6666 150.714L99.6934 150.784L99.7246 150.777L99.7157 150.698L99.7144 150.692L99.7192 150.631L99.7049 150.605L99.6947 150.527C99.4631 148.663 98.1669 146.779 97.0705 145.344C95.9804 143.915 94.6221 142.641 92.9294 141.984C92.5035 141.82 91.5363 141.366 91.1038 141.715C90.7084 142.032 91.0611 142.661 91.2344 142.998Z" fill="#33535F"/>
<path d="M92.8451 143.86C93.804 145.46 95.4652 146.628 96.8757 147.794C97.832 148.58 98.7682 149.4 99.5525 150.35C98.8443 148.906 97.8263 147.607 96.7741 146.419C96.1676 145.732 95.5442 145.054 94.8644 144.441C94.5006 144.11 94.1171 143.783 93.7052 143.508C93.5192 143.383 93.1468 143.151 92.9213 143.083C92.3823 142.924 92.6814 143.585 92.8451 143.86ZM92.4896 143.006C92.876 142.618 94.0126 143.576 94.2977 143.8C95.1635 144.478 95.9166 145.287 96.6499 146.101C97.8514 147.442 98.9233 148.838 99.6538 150.472V150.475L99.6936 150.526L99.7047 150.605L99.7188 150.631L99.713 150.693L99.657 150.628C99.5158 150.452 99.3661 150.282 99.2138 150.114L99.1377 150.032C98.0773 148.883 96.8247 147.916 95.6206 146.909C94.7854 146.208 93.9706 145.466 93.2793 144.62C93.1016 144.405 92.1654 143.332 92.4896 143.006Z" fill="white"/>
<path d="M99.8855 154.486C99.9001 154.514 99.9336 154.532 99.968 154.533L99.9469 154.562L99.9517 154.602L99.9915 154.601C101.494 153.064 102.942 151.196 103.691 149.159C104.006 148.3 104.202 147.395 104.227 146.477C104.244 145.851 104.277 144.588 103.744 144.13C102.669 143.212 101.69 147.11 101.545 147.697C101.278 148.768 101.103 149.86 100.858 150.936C100.589 152.114 100.235 153.269 99.8826 154.424L99.8855 154.486Z" fill="#33535F"/>
<path d="M102.065 151.135C102.488 150.307 102.854 149.439 103.097 148.537C103.193 148.18 103.269 147.814 103.323 147.445C103.362 147.156 103.399 146.864 103.396 146.575C103.391 145.862 103.334 145.678 103.216 145.653C103.142 145.639 103.041 145.715 102.832 146.14C102.699 146.41 102.606 146.716 102.53 147.006C102.42 147.425 102.324 147.848 102.234 148.274C102.051 149.121 101.879 149.975 101.633 150.807C101.286 151.995 100.79 153.155 100.141 154.213C100.86 153.24 101.512 152.225 102.065 151.135ZM99.8846 154.485C99.9439 154.386 100 154.287 100.054 154.185C100.979 152.537 101.585 150.838 101.989 148.949C102.183 148.038 102.355 147.091 102.702 146.223C102.79 146.007 103.058 145.176 103.413 145.596C103.596 145.814 103.444 147.388 103.371 147.794C103.202 148.722 102.886 149.618 102.499 150.472C101.856 151.896 101.018 153.268 100.037 154.494C100.009 154.531 99.9805 154.568 99.9522 154.602L99.9464 154.562L99.9662 154.534C99.9324 154.531 99.8986 154.514 99.8846 154.485Z" fill="white"/>
<path d="M95.0662 150.75C95.2099 151.504 95.61 152.193 96.0518 152.81C96.9431 154.048 98.0838 155.078 99.0576 156.249C99.2032 156.423 99.3453 156.601 99.4826 156.784L99.6074 157.042C99.6074 157.037 99.5902 156.939 99.558 156.772L99.5571 156.771C99.4007 155.951 98.8885 153.474 98.2491 152.207C97.856 151.428 97.3992 150.629 96.8259 149.967C96.55 149.653 95.9014 148.974 95.4128 149.122C94.8872 149.282 94.9904 150.356 95.0662 150.75Z" fill="#33535F"/>
<path d="M96.0101 150.928C96.752 153.03 98.2667 154.687 99.423 156.553C99.4428 156.584 99.4597 156.613 99.4797 156.644C99.4625 156.59 99.4485 156.533 99.4316 156.479C99.1156 155.418 98.7123 154.392 98.2046 153.41C97.8972 152.815 97.5503 152.236 97.1725 151.68C96.9721 151.388 96.7689 151.044 96.5293 150.781C96.422 150.662 96.1146 150.347 96.0101 150.401C95.8607 150.475 95.9623 150.789 96.0101 150.928ZM95.8607 150.247C96.3825 149.921 97.728 152.338 97.9083 152.65C98.577 153.807 99.0933 155.044 99.4428 156.335C99.4851 156.479 99.5218 156.624 99.5587 156.772C99.5896 156.939 99.6094 157.035 99.6094 157.041L99.4823 156.783C99.4597 156.752 99.4345 156.72 99.4119 156.689C99.2962 156.539 99.1777 156.391 99.0592 156.25C98.4753 155.37 97.8746 154.499 97.3075 153.606C96.8989 152.962 96.5236 152.301 96.2219 151.598C96.1541 151.439 95.6323 150.389 95.8607 150.247Z" fill="white"/>
<path d="M89.8267 133.401C91.3768 136.983 95.4459 138.651 97.2091 142.104L97.2177 142.122C97.2715 142.227 97.3228 142.334 97.3722 142.444C97.3967 142.496 97.4617 142.493 97.4894 142.462L97.4961 142.402L97.4598 142.324C97.1842 140.171 96.3054 137.953 95.2825 136.054C94.3915 134.403 93.1715 132.858 91.4819 131.989C91.0656 131.773 90.2533 131.319 89.7869 131.675C89.2925 132.051 89.6353 132.959 89.8267 133.401Z" fill="#33535F"/>
<path d="M91.471 134.384C91.9421 135.226 92.6725 135.912 93.3103 136.627C93.9531 137.351 94.6048 138.065 95.2365 138.797C95.736 139.376 96.1957 140 96.5932 140.661C96.9261 141.208 97.2137 141.787 97.4425 142.385C97.2816 141.775 97.0729 141.177 96.8359 140.592L96.8245 140.573C96.3986 139.532 95.8685 138.527 95.3212 137.56L95.3015 137.524C94.8135 136.667 94.2662 135.833 93.5864 135.115C93.2169 134.727 92.8136 134.367 92.3651 134.072C91.8548 133.74 91.4092 133.524 91.2821 133.688C91.1976 133.802 91.3302 134.137 91.471 134.384ZM91.2228 133.555C91.4203 133.408 91.7194 133.587 91.8886 133.674C92.3116 133.89 92.7066 134.173 93.0646 134.483C93.8094 135.118 94.4156 135.901 94.9406 136.727C95.8204 138.116 96.6327 139.642 97.1519 141.234C97.2701 141.594 97.3746 141.957 97.4593 142.326C97.4705 142.371 97.4791 142.417 97.4902 142.462C97.4619 142.493 97.3972 142.496 97.3717 142.445C97.3265 142.337 97.2758 142.238 97.2252 142.133L97.2109 142.104C96.9035 141.392 96.5483 140.709 96.1055 140.062C95.4254 139.067 94.5822 138.19 93.7839 137.294C93.4679 136.942 90.5402 134.057 91.2228 133.555Z" fill="white"/>
<path d="M95.2431 137.6C95.7085 138.61 96.1541 139.634 96.5941 140.66C96.803 141.142 97.0088 141.625 97.2117 142.104L97.2261 142.132C97.2993 142.306 97.3755 142.482 97.4487 142.654C98.1199 144.226 98.8593 145.834 99.2679 147.499C99.4823 148.37 99.5897 149.278 99.6403 150.191C99.6432 150.284 99.6489 150.378 99.6543 150.472V150.475C99.6543 150.526 99.6575 150.577 99.6575 150.628L99.6601 150.713C99.6884 151.498 99.677 152.287 99.6629 153.053C99.6432 154.122 99.5531 155.183 99.4514 156.241C99.4514 156.272 99.4486 156.304 99.4428 156.335C99.4403 156.383 99.4345 156.431 99.4317 156.479L99.4231 156.553C99.4205 156.599 99.4148 156.644 99.4119 156.689C99.3782 157.03 99.3469 157.37 99.3189 157.713H99.6432C99.8576 156.686 99.9761 155.617 100.035 154.559L100.038 154.494C100.046 154.392 100.052 154.287 100.055 154.184C100.063 154.057 100.069 153.932 100.072 153.805C100.083 153.498 100.092 153.195 100.097 152.894C100.128 151.147 100.109 149.326 99.7251 147.612C99.7136 147.564 99.7024 147.519 99.6913 147.471L99.677 147.411C99.6715 147.377 99.6629 147.343 99.6543 147.309L99.6123 147.147C99.5868 147.051 99.5588 146.954 99.5304 146.861L99.5049 146.776C99.0593 145.281 98.354 143.831 97.7141 142.427C97.5956 142.169 97.4771 141.914 97.3557 141.659C97.2882 141.517 97.2203 141.375 97.1528 141.233C97.0483 141.02 96.941 140.805 96.8368 140.592L96.8253 140.572C96.329 139.565 95.8127 138.57 95.3221 137.56C95.2995 137.515 95.2205 137.551 95.2431 137.6Z" fill="#33535F"/>
<path d="M213.881 157.713C171.933 157.517 124.876 157.516 82.9285 157.713C124.876 157.911 171.933 157.909 213.881 157.713Z" fill="#17282F"/>
<g filter="url(#filter0_d_4311_134212)">
<path d="M124.441 33.1145V60.5091H120.618V67.1543L114.01 60.5091H86.001V33.1145H124.441Z" fill="white"/>
</g>
<path d="M124.44 33.1146C114.861 33.0762 95.5781 33.0031 85.9997 33.0003L85.886 32.9999V33.1146C85.8586 33.3747 85.8614 60.4186 85.8417 60.6682H85.9997C85.9847 60.6137 114.298 60.7053 113.927 60.5919L120.543 67.2278L120.72 67.4053L120.72 67.1545L120.711 60.5096L120.616 60.6044L124.44 60.599H124.529V60.5093L124.44 33.1146ZM124.44 33.1146C124.473 33.0999 124.223 60.8844 124.439 60.4199L120.616 60.4145H120.522V60.5096L120.513 67.1545L120.689 67.0808C120.648 67.0372 114.093 60.4305 114.057 60.393C114.018 60.4205 86.044 60.3305 86 60.3507L86.1577 60.5093C86.0191 60.6342 86.3421 32.5524 86 33.2293C95.5822 33.2287 114.859 33.1553 124.44 33.1146Z" fill="#17282F"/>
<path fillRule="evenodd" clipRule="evenodd" d="M107.505 54.2113C107.909 53.9582 108.261 53.5895 108.801 53.6433C109.007 53.6644 108.962 53.4921 108.964 53.379C108.973 51.3375 108.98 49.2985 108.988 47.2589C108.989 47.1106 108.98 46.9885 108.82 46.9062C107.273 46.1153 106.606 44.5671 105.661 43.2428C104.651 41.8297 104.308 40.3001 104.552 38.6103C104.619 38.1513 104.407 37.9446 103.996 37.8495C103.501 37.7342 103.007 37.8703 102.836 38.2118C102.416 39.0591 102.055 39.9397 101.943 40.8825C101.851 41.6561 102.124 42.4102 102.218 43.1761C102.286 43.7364 102.414 44.2906 102.518 44.8579C102.382 44.9569 102.224 44.905 102.078 44.9066C100.365 44.9034 98.6507 44.897 96.937 44.8912C96.2145 44.8887 95.8603 45.0959 95.7583 45.5777C95.6328 46.1781 95.9466 46.7896 96.4996 47.0747C96.6276 47.14 96.8592 47.0821 96.8745 47.2839C96.8889 47.4895 96.6509 47.4678 96.5321 47.5501C95.9103 47.9761 96.0224 48.859 96.7388 49.3719C96.9108 49.4942 97.246 49.4391 97.2536 49.6941C97.2568 49.8969 96.9433 49.8937 96.8013 50.0363C96.2989 50.5321 96.5445 51.4621 97.2915 51.8401C97.3874 51.8878 97.5062 51.8974 97.5922 51.958C97.6773 52.016 97.7604 52.0804 97.5951 52.1976C96.851 52.7284 96.8643 53.4706 97.6101 54.0146C97.6833 54.0678 97.7579 54.1225 97.8327 54.1763C98.1038 54.3775 98.4243 54.3759 98.7345 54.3778C101.422 54.3923 104.11 54.3996 106.797 54.4067C107.049 54.4076 107.304 54.4006 107.505 54.2113Z" fill="#FABB1E"/>
<path fillRule="evenodd" clipRule="evenodd" d="M115.158 50.639C115.163 49.3433 115.161 48.0459 115.176 46.7507C115.178 46.4868 115.152 46.3574 114.831 46.3599C113.258 46.374 111.687 46.3683 110.115 46.3455C109.807 46.3413 109.758 46.4477 109.759 46.7232C109.76 49.3321 109.753 51.9403 109.732 54.5488C109.728 54.8807 109.818 54.9749 110.15 54.9704C111.675 54.9582 113.2 54.9595 114.723 54.989C115.103 54.9963 115.156 54.8624 115.153 54.5286C115.138 53.2322 115.154 51.9364 115.158 50.639Z" fill="#FABB1E"/>
<path d="M175.403 80.5533V101.182H178.282V106.186L183.258 101.182H204.35V80.5533H175.403Z" fill="white"/>
<path d="M175.403 80.5534C182.617 80.6079 197.139 80.653 204.35 80.6678L204.236 80.5534L204.192 101.182L204.35 101.024C204.301 101.024 183.255 101.066 183.21 101.066L183.176 101.1L178.209 106.113L178.386 106.186L178.377 101.182L178.376 101.087H178.282L175.403 101.093L175.492 101.182C175.49 97.7548 175.476 94.3278 175.453 90.8886L175.403 80.5534ZM175.403 80.5534C175.402 86.6966 175.3 95.2129 175.314 101.272L175.403 101.272L178.282 101.277L178.188 101.182L178.179 106.186L178.179 106.437L178.355 106.26L183.34 101.265C182.904 101.371 204.446 101.302 204.35 101.341L204.508 101.341L204.507 101.182L204.464 80.5534L204.464 80.4384L204.35 80.4387C197.132 80.4554 182.617 80.5005 175.403 80.5534Z" fill="#17282F"/>
<path fillRule="evenodd" clipRule="evenodd" d="M191.266 97.4659C191.569 97.2744 191.833 96.996 192.24 97.0348C192.395 97.0505 192.361 96.9207 192.362 96.8355C192.364 95.2982 192.364 93.7628 192.365 92.2267C192.365 92.1149 192.358 92.0233 192.237 91.9618C191.071 91.3702 190.565 90.2057 189.85 89.2111C189.085 88.1494 188.823 86.9984 189.003 85.7254C189.052 85.3794 188.892 85.2244 188.582 85.1539C188.209 85.0684 187.838 85.1722 187.71 85.4294C187.396 86.0685 187.126 86.7329 187.044 87.4431C186.977 88.0258 187.184 88.5931 187.257 89.1694C187.31 89.5913 187.408 90.0081 187.487 90.4354C187.385 90.51 187.266 90.4713 187.156 90.4729C185.865 90.4748 184.575 90.4745 183.284 90.4742C182.74 90.4742 182.474 90.6311 182.399 90.9944C182.306 91.4467 182.543 91.9064 182.961 92.1194C183.057 92.1684 183.231 92.1242 183.243 92.2761C183.255 92.4311 183.075 92.4151 182.986 92.4776C182.519 92.8002 182.606 93.4645 183.146 93.849C183.276 93.9406 183.528 93.8983 183.535 94.0902C183.538 94.243 183.302 94.2414 183.195 94.349C182.818 94.7238 183.005 95.4234 183.569 95.706C183.641 95.7419 183.731 95.7489 183.795 95.7941C183.86 95.8376 183.922 95.8857 183.798 95.9744C183.239 96.3761 183.251 96.9351 183.814 97.3426C183.869 97.3826 183.926 97.4236 183.982 97.464C184.187 97.6149 184.428 97.613 184.662 97.6136C186.686 97.6178 188.709 97.6162 190.733 97.6149C190.923 97.6149 191.115 97.6091 191.266 97.4659Z" fill="#33535F"/>
<path fillRule="evenodd" clipRule="evenodd" d="M197.018 94.7564C197.018 93.7806 197.013 92.8036 197.021 91.8281C197.023 91.6295 197.002 91.5322 196.76 91.5347C195.576 91.5495 194.393 91.5491 193.209 91.536C192.977 91.5334 192.941 91.6138 192.942 91.8214C192.949 93.7858 192.951 95.7498 192.941 97.7141C192.94 97.964 193.007 98.0348 193.257 98.0306C194.405 98.0175 195.554 98.0146 196.701 98.0328C196.987 98.0376 197.026 97.9367 197.023 97.6853C197.009 96.7092 197.018 95.7331 197.018 94.7564Z" fill="#33535F"/>
<path d="M168.059 49.4574V74.537H171.559V80.6206L177.609 74.537H210.807V49.4574H168.059Z" fill="white"/>
<path d="M168.06 49.4571C178.712 49.5138 200.158 49.5571 210.808 49.574C210.538 48.8488 210.721 74.6927 210.654 74.5367L210.807 74.3826C210.725 74.4168 177.575 74.3547 177.528 74.454L171.487 80.5466L171.663 80.6203L171.654 74.5367V74.4415L171.56 74.4418L168.06 74.447C168.282 74.9871 167.998 49.3498 168.06 49.4571ZM168.06 49.4571L167.97 74.5367L167.97 74.6264H168.06L171.56 74.6315L171.466 74.5367L171.457 80.6203L171.456 80.8711L171.633 80.6936L177.691 74.6193C177.247 74.7285 210.91 74.6494 210.807 74.6911H210.961L210.961 74.5367L210.924 49.4571L210.923 49.3402L210.807 49.3405C200.15 49.3594 178.712 49.403 168.06 49.4571Z" fill="#17282F"/>
<path d="M171.759 54.2739H207.105V53.8902H171.759V54.2739Z" fill="#17282F"/>
<path d="M171.759 57.3213H207.105V56.9378H171.759V57.3213Z" fill="#17282F"/>
<path d="M171.759 60.3691H207.105V59.9854H171.759V60.3691Z" fill="#17282F"/>
<path d="M171.759 63.417H207.105V63.0332H171.759V63.417Z" fill="#17282F"/>
<path d="M171.759 66.4644H207.105V66.0806H171.759V66.4644Z" fill="#17282F"/>
<path d="M184.629 69.5117H207.105V69.128H184.629V69.5117Z" fill="#17282F"/>
<path d="M168.997 81.4037C170.14 90.7198 173.074 101.709 169.819 110.871C167.258 118.047 161.122 123.224 154.629 126.749C140.344 134.492 119.694 136.968 108.187 123.011C103.593 117.434 101.933 105.201 108.45 100.165C111.798 97.5873 115.949 96.7262 119.848 95.3305C124.993 93.5046 128.556 90.2403 130.607 85.1283C134.616 75.1708 133.124 68.2248 133.23 57.7845C133.255 55.8474 133.556 53.9164 135.32 52.1462C136.787 50.3622 138.87 49.0575 141.174 48.2521C143.11 47.2898 145.174 46.6543 147.358 46.7203C151.963 46.843 156.674 50.7351 160.411 53.0963C164.193 55.4909 166.053 58.1526 166.679 62.6425C167.542 68.8825 168.224 75.1496 168.997 81.4037Z" fill="#17282F"/>
<path d="M170.489 85.7202C168.894 77.2488 167.136 68.8225 165.431 60.3757C165.421 60.3248 165.341 60.3312 165.35 60.3841C166.551 67.3749 167.657 74.3734 168.95 81.3511C170.217 88.1881 171.987 95.1315 172.654 102.057C174.151 117.603 158.722 125.187 145.498 125.455C144.897 125.468 144.984 126.43 145.592 126.398C157.195 125.795 170.705 120.735 173.221 107.808C174.597 100.737 171.792 92.6454 170.489 85.7202Z" fill="#17282F"/>
<path d="M133.913 56.908C133.896 56.7421 133.653 56.7693 133.658 56.9339C133.932 65.5261 135.054 75.5186 130.784 83.3548C128.694 87.1889 125.444 90.3632 121.553 92.3243C118.459 93.8834 115.078 94.2634 111.786 95.185C98.9142 98.7904 100.163 116.55 110.196 122.73C110.407 122.859 110.637 122.5 110.431 122.359C103.331 117.525 100.372 107.959 105.27 100.383C109.201 94.3031 117.744 95.4659 123.471 91.9018C135.338 84.516 135.137 69.3206 133.913 56.908Z" fill="#17282F"/>
<path d="M106.243 139.991C108.347 149.616 121.035 151.257 122.895 149.108C130.422 140.417 138.148 123.78 146.504 105.223C153.037 90.7155 148.496 90.4243 142.511 94.4474C128.593 103.803 105.113 134.819 106.243 139.991Z" fill="#FABB1E"/>
<path d="M130.452 105.162C130.539 105.071 130.626 104.98 130.713 104.889H130.712C130.625 104.979 130.539 105.069 130.452 105.162ZM145.703 92.6888C145.768 92.6628 145.832 92.6379 145.896 92.6142C145.832 92.6375 145.768 92.6622 145.703 92.6888Z" fill="#6C7A7F"/>
<path d="M125.547 117.587L125.983 117.123C126.141 116.38 126.387 115.648 126.751 114.932C127.598 113.269 129.101 112.022 130.963 111.81L131.336 111.413C130.768 111.436 130.202 111.543 129.65 111.748C127.183 112.662 125.969 115.099 125.547 117.587ZM136.154 106.273L136.421 105.989C136.423 105.986 136.424 105.983 136.426 105.981C136.437 105.96 136.447 105.941 136.458 105.921C134.491 105.81 132.56 105.479 130.711 104.889C130.624 104.98 130.537 105.071 130.45 105.162C130.438 105.174 130.426 105.187 130.415 105.2C131.236 105.475 132.068 105.693 132.893 105.853C133.982 106.063 135.069 106.199 136.154 106.273ZM146.05 92.9743C146.051 92.9739 146.051 92.9739 146.051 92.9736C146.05 92.9733 146.05 92.9727 146.049 92.9723C146.116 92.9243 146.179 92.873 146.246 92.825C146.284 92.7965 146.325 92.768 146.363 92.7391C146.263 92.6786 146.164 92.6174 146.065 92.5559C146.009 92.5738 145.952 92.5934 145.895 92.6142C145.831 92.6379 145.767 92.6629 145.701 92.6888C145.679 92.6978 145.657 92.7068 145.635 92.7161C145.773 92.8032 145.911 92.8894 146.05 92.9743Z" fill="#FCD361"/>
<path d="M124.085 147.671C126.172 145.042 128.276 141.828 130.406 138.159L130.923 132.696C130.923 132.696 126.713 123.825 131.224 116.131C131.748 115.235 132.458 113.791 133.327 112.036C132.757 111.869 132.168 111.777 131.574 111.777C131.45 111.777 131.327 111.781 131.203 111.789C131.123 111.794 131.044 111.801 130.965 111.81L125.985 117.123C125.247 120.583 126.408 124.293 126.418 127.8C126.425 129.755 125.854 132.289 124.389 133.778C125.076 139.525 125.287 145.083 124.085 147.671ZM124.323 133.242C124.324 133.241 124.325 133.24 124.326 133.239C124.326 133.239 124.326 133.239 124.326 133.24C124.56 132.976 124.77 132.686 124.953 132.377C127.278 128.472 125.297 123.702 125.374 119.496C125.385 118.873 125.44 118.228 125.549 117.587L122.302 121.05C122.957 124.333 123.773 128.817 124.323 133.242ZM133.492 111.704C134.296 110.081 135.228 108.214 136.266 106.28C136.229 106.278 136.193 106.276 136.156 106.273L131.338 111.413C131.418 111.409 131.499 111.407 131.579 111.407C132.224 111.407 132.868 111.513 133.492 111.704Z" fill="#F4AC12"/>
<path d="M124.387 133.778C125.853 132.289 126.424 129.756 126.417 127.8C126.407 124.293 125.246 120.583 125.983 117.123L125.548 117.587C125.439 118.229 125.384 118.873 125.372 119.497C125.296 123.703 127.277 128.473 124.952 132.377C124.769 132.686 124.559 132.976 124.324 133.24C124.344 133.419 124.366 133.595 124.388 133.774C124.388 133.774 124.387 133.775 124.387 133.775C124.387 133.776 124.387 133.777 124.387 133.778ZM133.326 112.036C133.38 111.927 133.435 111.816 133.491 111.704C132.867 111.513 132.223 111.408 131.578 111.408C131.498 111.408 131.417 111.409 131.337 111.413L130.964 111.81C131.043 111.801 131.122 111.794 131.202 111.789C131.325 111.781 131.449 111.777 131.573 111.777C132.166 111.777 132.756 111.87 133.326 112.036ZM136.265 106.281C136.265 106.28 136.265 106.28 136.265 106.279C136.265 106.279 136.264 106.279 136.264 106.279C136.315 106.184 136.368 106.086 136.422 105.989L136.155 106.273C136.192 106.276 136.228 106.278 136.265 106.281Z" fill="#EABF56"/>
<path d="M120.054 146.884C123.935 141.815 122.594 131.297 119.8 106.09C119.413 102.602 93.2975 101.068 93.5202 104.814C93.8005 109.533 97.5642 128.309 98.6469 131.095C103.946 144.734 117.421 150.322 120.054 146.884Z" fill="#F68C95"/>
<path d="M92.5667 95.0204C91.9716 100.093 94.7888 110.945 96.4698 113.3C98.1508 115.655 116.656 111.452 117.906 108.756C119.156 106.06 119.845 88.826 117.102 84.4043C114.359 79.9823 93.1834 89.7656 92.5667 95.0204Z" fill="#F68C95"/>
<path d="M119.962 92.0578C117.484 93.112 116.753 91.0122 116.753 91.0122C116.753 91.0122 117.896 96.1341 115.345 97.6734C112.883 99.1498 111.137 95.2404 111.009 94.962C111.067 95.2337 111.995 99.9677 109.274 101.249C106.444 102.578 105.362 98.3509 105.293 98.0773C105.268 98.3509 104.875 101.964 102.587 102.464C98.6558 103.322 99.4085 94.0564 97.1978 91.6506C97.1978 91.6506 92.7162 94.9524 92.5658 95.0206C92.5658 95.0206 93.1023 86.1901 96.4957 83.373C98.2844 81.8879 100.014 83.2718 100.014 83.2718C100.014 83.2718 99.8739 80.405 101.985 79.3287C103.07 78.779 104.91 80.035 104.91 80.035C104.91 80.035 104.893 77.7356 106.83 76.8957C108.374 76.2201 109.979 77.5857 109.979 77.5857C109.979 77.5857 107.553 66.1127 110.472 65.1228C115.499 63.4186 119.319 88.2563 121.416 89.3029C122.456 89.8224 121.041 91.5987 119.962 92.0578Z" fill="#F68C95"/>
<path d="M110.266 77.7622C110.239 77.7221 110.289 77.6763 110.323 77.7128C113.663 81.3003 116.239 86.2704 116.855 91.1749C116.875 91.336 116.541 92.011 116.506 91.8325C115.66 87.3654 113.164 82.0832 110.266 77.7622Z" fill="#17282F"/>
<path d="M104.9 79.9575C104.868 79.911 104.945 79.8575 104.986 79.9024C108.407 83.6174 111.155 89.2961 111.203 95.0331C111.204 95.2301 111.01 95.4082 110.991 95.1817C110.672 91.3693 107.529 83.8339 104.9 79.9575Z" fill="#17282F"/>
<path d="M105.159 98.4787C104.901 92.9794 102.917 88.1163 100.165 83.4162C100.129 83.3547 100.219 83.3102 100.262 83.3531C102.232 85.2835 103.675 88.4635 104.591 91.0333C105.467 93.4948 105.766 95.8929 105.35 98.4694C105.333 98.5697 105.164 98.5959 105.159 98.4787Z" fill="#17282F"/>
<path d="M116.833 91.056C116.857 91.2491 116.346 90.939 116.362 91.1332C116.542 93.2404 116.68 97.0275 115.008 97.5631C113.667 97.9888 112.168 96.4726 111.819 95.6634L110.942 93.6277L111.062 95.847C111.114 96.8154 111.034 97.8453 110.771 98.773C110.511 99.6991 110.008 100.552 109.221 100.922C108.407 101.324 107.521 101.207 106.933 100.53C106.324 99.8849 105.934 98.912 105.722 97.9955L105.13 95.435L104.858 98.0378C104.784 98.7429 104.617 99.4877 104.362 100.157C104.103 100.823 103.732 101.455 103.202 101.816C102.685 102.173 101.967 102.248 101.455 101.934C100.911 101.612 100.519 100.951 100.209 100.29C99.592 98.9316 99.2569 97.4218 98.8511 95.9421C98.6532 95.1989 98.4554 94.4519 98.2219 93.7145C97.9779 92.9895 97.7279 92.221 97.1975 91.6505C97.6629 92.2688 97.8228 93.0395 98.018 93.7721C98.1929 94.5173 98.3328 95.2717 98.4733 96.0283C98.7549 97.541 99.0556 99.0607 99.6302 100.543C99.9402 101.265 100.302 102.039 101.063 102.562C101.852 103.096 102.911 102.988 103.647 102.488C104.4 101.981 104.832 101.214 105.141 100.468C105.441 99.7042 105.628 98.9389 105.728 98.1166L104.864 98.1589C105.106 99.2436 105.476 100.278 106.265 101.167C106.655 101.602 107.225 101.953 107.854 102.037C108.484 102.125 109.08 101.983 109.613 101.72C110.717 101.168 111.303 100.038 111.576 98.9998C111.855 97.9308 111.92 96.8682 111.846 95.7759L111.089 95.9594C111.567 96.9733 113.059 98.8521 115.222 98.4542C117.962 97.5118 117.067 92.0442 116.833 91.056Z" fill="#17282F"/>
<path d="M117.906 108.756C117.906 108.756 126.499 97.5827 126.16 92.8182C125.821 88.0535 116.523 83.0603 112.845 81.7837C107.768 80.0219 107.023 83.8602 108.708 86.2394C110.658 88.9956 114.821 91.9789 115.107 92.1913C115.107 92.1913 107.694 95.7942 107.075 101.793C106.456 107.791 117.906 108.756 117.906 108.756Z" fill="#F68C95"/>
<path d="M119.648 85.2442C117.893 84.0372 116.051 82.9502 114.106 82.0728C113.114 81.6375 112.107 81.2114 111.013 81.0987C108.12 80.7812 106.766 83.1876 108.067 85.6879C108.556 86.6828 109.276 87.5055 109.995 88.3297C111.461 89.9254 113.092 91.3368 114.968 92.4397L115.007 91.9243C111.286 93.5465 108.238 96.8287 107.239 100.812C108.582 96.8467 111.862 93.674 115.747 92.2478C113.784 91.101 111.995 89.5932 110.466 87.8995C110.204 87.6093 109.694 87.0054 109.452 86.6976C108.277 85.3502 107.28 82.5985 109.514 81.7826C110.995 81.2694 112.527 81.8982 113.956 82.4342C115.912 83.219 117.806 84.188 119.648 85.2442Z" fill="#17282F"/>
<path d="M92.6735 122.451L121.232 116.027C121.232 116.027 127.672 143.642 123.59 148.469C121.765 150.626 115.888 155.95 110.893 154.97C99.4044 152.716 92.6735 122.451 92.6735 122.451Z" fill="#FABB1E"/>
<path d="M108.477 154.064C108.477 154.064 108.477 154.064 108.477 154.064C108.286 153.958 108.097 153.845 107.909 153.725C107.91 153.725 107.91 153.725 107.91 153.725C108.097 153.847 108.285 153.959 108.477 154.064Z" fill="white"/>
<path d="M99.0742 141.608C99.0389 141.532 99.0038 141.455 98.9688 141.378C99.0032 141.456 99.0385 141.532 99.0742 141.608Z" fill="#7D969B"/>
<path d="M124.322 133.242C124.322 133.241 124.324 133.24 124.324 133.239C124.324 133.239 124.324 133.239 124.324 133.239C124.324 133.24 124.322 133.24 124.322 133.241V133.242Z" fill="#F7CB5E"/>
<path d="M124.388 133.775C124.388 133.775 124.388 133.774 124.389 133.774C124.366 133.595 124.344 133.419 124.325 133.24C124.324 133.241 124.323 133.241 124.323 133.242C124.345 133.42 124.366 133.597 124.388 133.775Z" fill="#F1D890"/>
<path d="M114.872 117.457L115.031 117.421L114.873 117.456C114.873 117.456 114.873 117.457 114.872 117.457Z" fill="#F9B4BB"/>
<path d="M108.476 154.064C108.215 153.583 107.998 153.078 107.814 152.568C106.657 149.371 106.501 145.886 104.224 143.189C103.306 142.106 102.067 141.183 100.614 141.068C100.509 141.059 100.404 141.055 100.299 141.055C99.827 141.055 99.3686 141.142 98.9357 141.305C98.9462 141.329 98.9567 141.354 98.9673 141.378C99.0023 141.455 99.0373 141.531 99.0727 141.608C99.0768 141.617 99.0813 141.626 99.0854 141.635C99.4607 141.495 99.8678 141.418 100.302 141.418C100.343 141.418 100.385 141.419 100.427 141.42C102.29 141.481 103.762 142.977 104.708 144.46C105.695 146.014 106.135 147.731 106.565 149.499C106.899 150.864 107.285 152.376 107.909 153.724C108.096 153.844 108.286 153.958 108.476 154.064ZM120.087 151.729C120.266 151.591 120.441 151.453 120.613 151.313C121.081 148.849 120.501 146.152 119.482 143.909C117.727 140.059 114.538 137.147 111.681 134.133C107.82 130.058 104.666 125.368 102.392 120.265L102.022 120.348C102.949 122.443 104.02 124.474 105.23 126.419C107.412 129.927 110.063 132.989 112.923 135.946C115.933 139.059 119.023 142.356 120.078 146.7C120.489 148.381 120.508 150.137 120.087 151.729ZM121.469 135.023C121.664 135.023 121.863 135.008 122.065 134.978C123.011 134.837 123.779 134.399 124.387 133.775C124.365 133.597 124.344 133.42 124.322 133.242V133.241C123.575 134.083 122.586 134.646 121.486 134.646C121.127 134.646 120.756 134.586 120.377 134.456C118.44 133.79 117.109 131.813 116.293 130.026C114.627 126.355 114.742 122.101 115.153 118.173C115.182 117.907 115.21 117.641 115.242 117.376L115.031 117.421L114.872 117.457C114.471 121.092 114.255 124.849 115.306 128.392C116.105 131.083 118.25 135.023 121.469 135.023Z" fill="#FCD361"/>
<path d="M121.564 123.577C118.325 124.205 115.06 124.658 111.794 125.102C108.526 125.546 105.258 125.997 101.98 126.359C100.129 126.564 98.2774 126.78 96.4202 126.919C96.3715 126.923 96.3549 126.842 96.4053 126.832C99.6382 126.205 102.905 125.738 106.163 125.273C109.429 124.807 112.702 124.375 115.975 123.974C117.825 123.747 119.678 123.554 121.535 123.413C121.627 123.406 121.658 123.559 121.564 123.577Z" fill="#17282F"/>
<path d="M120.919 115.914C121.21 115.794 121.618 115.66 121.634 115.728C122.067 117.524 122.349 119.479 122.629 121.305C122.905 123.106 123.139 124.915 123.347 126.726C123.46 127.701 123.554 128.677 123.617 129.653C124.132 130.867 124.448 132.137 124.486 133.469C124.489 133.535 124.375 133.543 124.37 133.476C124.279 132.314 124.04 131.147 123.639 130.047C123.771 132.435 123.69 134.817 123.11 137.169L123.089 137.161C123.853 133.673 123.149 129.961 122.738 126.471C122.533 124.721 122.29 122.977 122.035 121.235C121.782 119.498 121.462 117.767 121.231 116.027C121.231 116.027 120.926 116.101 120.862 116.11C120.802 116.118 120.864 115.937 120.919 115.914Z" fill="#17282F"/>
<path d="M128.557 157.708L130.921 132.696C130.921 132.696 126.712 123.824 131.222 116.131C133.501 112.233 139.325 97.9655 146.246 92.826C154.391 86.7779 162.208 92.3451 165.249 96.4897C171.338 104.789 180.375 122.379 185.359 157.718L128.557 157.708Z" fill="#FABB1E"/>
<path d="M130.147 140.886L130.17 140.644C130.17 140.645 130.17 140.645 130.169 140.645L130.147 140.886Z" fill="white"/>
<path d="M136.422 105.989V105.988C136.423 105.986 136.425 105.983 136.426 105.981C136.425 105.983 136.423 105.986 136.422 105.989Z" fill="#FDE599"/>
<path d="M136.265 106.279C136.317 106.183 136.369 106.086 136.422 105.988V105.989C136.368 106.086 136.315 106.184 136.264 106.279C136.264 106.279 136.265 106.279 136.265 106.279Z" fill="#F1D890"/>
<path d="M146.364 92.7397C146.365 92.739 146.365 92.739 146.365 92.7387C146.365 92.7387 146.365 92.7387 146.365 92.7383C146.364 92.7387 146.364 92.739 146.363 92.739C146.363 92.7394 146.364 92.7394 146.364 92.7397Z" fill="#FCD361"/>
<path d="M146.052 92.9736C146.117 92.924 146.182 92.8746 146.247 92.8263C146.287 92.7971 146.326 92.7683 146.365 92.7398C146.365 92.7395 146.365 92.7395 146.365 92.7391C146.327 92.768 146.286 92.7965 146.248 92.825C146.181 92.873 146.117 92.9243 146.05 92.9724C146.051 92.9727 146.052 92.9733 146.052 92.9736Z" fill="#FDE599"/>
<path d="M157.428 157.713H157.756C157.783 157.514 157.811 157.314 157.84 157.114C157.752 156.974 157.663 156.829 157.575 156.677C157.524 157.023 157.475 157.368 157.428 157.713ZM147.393 157.71H147.766C147.801 155.253 147.075 152.754 146.113 150.538C144.539 146.927 141.653 142.18 143.81 138.23C144.932 136.18 147.106 135.296 149.315 135.296C150.165 135.296 151.02 135.427 151.822 135.672C151.851 135.546 151.885 135.43 151.924 135.324C151.074 135.059 150.175 134.916 149.282 134.916C147.93 134.916 146.589 135.243 145.447 135.969C142.45 137.871 142.332 141.6 143.291 144.688C144.517 148.641 146.967 152.13 147.343 156.342C147.384 156.797 147.403 157.255 147.393 157.71ZM130.096 141.44C133.447 136.359 136.993 131.372 138.691 125.452C139.704 121.918 139.965 117.616 137.582 114.554C136.576 113.26 135.101 112.196 133.492 111.706C133.435 111.818 133.381 111.927 133.326 112.036C134.317 112.327 135.247 112.843 136.037 113.49C139.557 116.367 139.497 121.326 138.34 125.356C136.716 131.019 133.384 135.801 130.17 140.645L130.147 140.886L130.096 141.44ZM160.606 130.593C163.417 130.593 166.216 130.084 168.982 129.35C168.945 129.257 168.908 129.163 168.87 129.07C166.217 129.77 163.531 130.248 160.777 130.248C160.216 130.248 159.651 130.228 159.084 130.186C155.395 129.917 151.617 128.665 148.843 126.131C146.084 123.613 144.205 119.352 145.871 115.697C147.112 112.974 149.871 112.071 152.648 112.071C153.864 112.071 155.082 112.244 156.179 112.513C158.812 113.158 161.268 114.311 163.716 115.468C163.659 115.308 163.601 115.148 163.544 114.989C160.717 113.655 157.84 112.33 154.739 111.853C154.075 111.752 153.383 111.694 152.685 111.694C150.02 111.694 147.289 112.533 145.855 114.948C144.144 117.828 144.912 121.627 146.728 124.257C148.617 126.996 151.557 128.799 154.695 129.748C156.667 130.344 158.639 130.593 160.606 130.593ZM138.248 106.342C145.244 106.342 152.174 104.104 159.061 102.977C159.055 102.96 159.048 102.943 159.042 102.925C159.015 102.858 158.99 102.791 158.965 102.724C158.955 102.696 158.944 102.669 158.934 102.641C152.033 103.79 145.257 105.969 138.239 105.969C137.731 105.969 137.22 105.957 136.709 105.933C136.627 105.93 136.544 105.924 136.461 105.917C136.449 105.938 136.438 105.96 136.426 105.981C136.425 105.983 136.423 105.986 136.422 105.988C136.369 106.086 136.317 106.183 136.265 106.279C136.927 106.322 137.587 106.342 138.248 106.342ZM154.127 95.6955C154.956 95.6955 155.784 95.5892 156.599 95.3489C156.578 95.2275 156.558 95.108 156.541 94.9914C155.751 95.2204 154.914 95.3146 154.124 95.3146C154.085 95.3146 154.046 95.3143 154.007 95.314C151.239 95.2819 148.706 94.1579 146.365 92.7388C146.365 92.7391 146.365 92.7391 146.364 92.7397C146.325 92.7682 146.286 92.7971 146.246 92.8262C146.181 92.8746 146.116 92.9239 146.051 92.9736C146.388 93.1815 146.728 93.3794 147.072 93.5713C149.194 94.7534 151.663 95.6955 154.127 95.6955Z" fill="#FCD361"/>
<path d="M153.461 130.404C150.698 130.371 147.915 130.431 145.174 130.808C143.81 130.996 142.465 131.246 141.117 131.526C140.445 131.665 139.773 131.782 139.097 131.895C138.403 132.011 137.661 132.108 136.957 132.049C136.893 132.044 136.884 132.139 136.947 132.148C137.627 132.246 138.279 132.337 138.969 132.343C139.624 132.349 140.284 132.284 140.934 132.201C142.319 132.024 143.695 131.782 145.078 131.591C147.868 131.204 150.657 130.819 153.469 130.635C153.598 130.627 153.591 130.406 153.461 130.404Z" fill="#17282F"/>
<path d="M159.951 133.622C157.732 133.133 155.456 132.743 153.195 132.51C152.058 132.392 150.923 132.342 149.78 132.321C149.234 132.311 148.689 132.312 148.143 132.318C147.543 132.326 146.942 132.414 146.343 132.413C146.28 132.412 146.269 132.509 146.333 132.511C146.899 132.53 147.464 132.642 148.028 132.694C148.594 132.746 149.161 132.793 149.728 132.844C150.863 132.947 151.996 133.062 153.131 133.155C155.405 133.339 157.667 133.545 159.932 133.809C160.055 133.823 160.066 133.647 159.951 133.622Z" fill="#17282F"/>
<path d="M166.362 96.7849C182.602 112.98 203.186 147.197 199.495 154.221C195.385 162.044 172.768 139.339 172.839 137.998C172.893 136.984 164.796 116.152 158.661 101.002C152.531 85.8667 162.346 92.78 166.362 96.7849Z" fill="#F68C95"/>
<path d="M172.689 138.025C171.981 135.796 160.973 108.328 157.816 99.6385C154.983 91.8385 156.393 88.6085 162.918 93.3906C174.932 102.195 198.826 129.321 203.353 143.439C207.714 157.039 196.476 158.28 187.189 152.091C179.585 147.025 172.689 138.025 172.689 138.025Z" fill="#FABB1E"/>
<path d="M191.863 123.885C191.771 123.764 191.678 123.642 191.589 123.52C191.588 123.52 191.587 123.52 191.586 123.52C191.678 123.641 191.77 123.764 191.861 123.885C191.862 123.885 191.863 123.885 191.863 123.885ZM182.772 112.706C182.772 112.705 182.772 112.703 182.772 112.702C182.654 112.568 182.536 112.436 182.422 112.302C182.422 112.303 182.422 112.305 182.422 112.306C182.538 112.439 182.655 112.573 182.772 112.706Z" fill="white"/>
<path d="M174.139 103.412C174.045 103.318 173.951 103.223 173.857 103.13C173.95 103.223 174.044 103.318 174.137 103.411C174.138 103.412 174.138 103.412 174.139 103.412Z" fill="white"/>
<path d="M159.043 102.925C159.017 102.858 158.992 102.79 158.967 102.724C158.991 102.791 159.017 102.858 159.043 102.925Z" fill="#FDE599"/>
<path d="M202.856 152.454C203.091 152.454 203.326 152.446 203.561 152.431C203.625 152.309 203.685 152.181 203.736 152.05C203.427 152.078 203.115 152.092 202.804 152.092C202.669 152.092 202.533 152.089 202.398 152.084C202.416 152.138 202.432 152.191 202.447 152.243C202.458 152.279 202.468 152.315 202.477 152.351C202.486 152.384 202.494 152.416 202.502 152.448C202.62 152.452 202.738 152.454 202.856 152.454ZM169.595 129.185C172.814 128.294 175.99 127.128 179.09 126.137C182.94 124.91 186.953 123.87 191.012 123.87C191.295 123.87 191.579 123.875 191.862 123.885C191.771 123.764 191.679 123.641 191.587 123.52C191.403 123.516 191.218 123.514 191.034 123.514C189.153 123.514 187.264 123.732 185.42 124.087C180.041 125.123 174.824 127.425 169.487 128.903C169.523 128.997 169.559 129.091 169.595 129.185ZM174.867 118.93C175.441 118.93 176.018 118.89 176.596 118.805C178.313 118.552 180.075 117.901 181.266 116.578C182.221 115.513 182.702 114.117 182.772 112.706C182.656 112.573 182.539 112.439 182.422 112.306C182.425 113.836 181.944 115.372 180.861 116.479C179.415 117.953 177.246 118.494 175.245 118.564C175.107 118.569 174.97 118.571 174.832 118.571C171.299 118.571 167.953 117.056 164.81 115.585C164.532 115.456 164.252 115.324 163.971 115.19C164.042 115.357 164.112 115.522 164.182 115.688C165.023 116.086 165.865 116.479 166.712 116.847C169.293 117.974 172.044 118.93 174.867 118.93ZM174.139 103.412C174.045 103.318 173.952 103.224 173.859 103.13C173.768 103.039 173.677 102.95 173.586 102.861C171.271 102.205 168.84 101.95 166.433 101.95C165.845 101.95 165.259 101.965 164.676 101.993C162.749 102.086 160.838 102.323 158.936 102.64C158.946 102.668 158.956 102.696 158.967 102.724C158.992 102.79 159.018 102.858 159.043 102.925C159.05 102.943 159.057 102.96 159.063 102.977C159.372 102.925 159.678 102.877 159.987 102.832C162.106 102.519 164.264 102.312 166.416 102.312C168.858 102.312 171.292 102.579 173.65 103.262C173.811 103.309 173.977 103.358 174.139 103.412ZM156.601 95.3493L156.674 95.3269C158.882 94.6541 159.952 93.3535 160.271 91.7422C160.159 91.6878 160.048 91.6365 159.942 91.5917C159.844 92.1555 159.637 92.6969 159.28 93.1902C158.614 94.1128 157.623 94.6766 156.544 94.9905C156.559 95.1058 156.579 95.2276 156.601 95.3493Z" fill="#FCD361"/>
<path d="M174.096 141.576C170.48 131.116 166.455 120.8 162.024 110.662C165.637 121.123 169.668 131.436 174.096 141.576Z" fill="#17282F"/>
<path d="M164.254 116.685C163.619 115.359 162.783 114.181 161.86 113.045C162.402 114.405 163.264 115.613 164.254 116.685Z" fill="#17282F"/>
<path d="M199.23 154.059C194.864 158.64 184.988 158.103 159.993 159.097C156.534 159.234 149.002 134.949 152.688 134.611C157.331 134.186 175.44 133.546 176.77 133.668C187.989 134.692 202.191 150.951 199.23 154.059Z" fill="#F68C95"/>
<path d="M156.558 135.506C156.558 135.506 147.165 132.653 141.769 132.691C134.544 132.741 128.326 135.776 125.797 137.206C120.518 140.191 109.805 151.079 112.385 154.729C114.72 158.033 125.112 146.347 125.112 146.347C125.112 146.347 112.562 156.503 116.101 159.962C119.641 163.42 130.936 149.165 130.936 149.165C130.936 149.165 118.274 159.891 122.485 162.877C125.667 165.133 136.621 152.801 136.621 152.801C136.621 152.801 125.801 162.096 128.975 164.559C132.481 167.279 143.302 156.534 143.302 156.534C152.416 161.427 158.746 160.008 163.129 158.459C164.19 158.085 156.558 135.506 156.558 135.506Z" fill="#F68C95"/>
<path d="M129.229 142.555C127.712 143.694 126.168 144.837 124.757 146.108C123.346 147.38 121.978 148.701 120.69 150.099C117.533 153.526 116.089 156.169 116.196 156.016C118.724 152.386 123.706 147.757 125.117 146.485C126.526 145.217 127.871 143.877 129.279 142.607C129.314 142.575 129.265 142.528 129.229 142.555Z" fill="#17282F"/>
<path d="M133.886 147.596C132.011 149.135 130.094 150.594 128.287 152.217C126.488 153.832 124.922 155.523 123.238 157.257C123.109 157.391 123.223 157.417 123.358 157.288C125.109 155.622 126.856 154.217 128.626 152.572C130.39 150.932 132.104 149.211 133.926 147.638L133.886 147.596Z" fill="#17282F"/>
<path d="M138.655 151.199C135.67 153.404 133.094 156.16 130.631 158.924C130.508 159.062 130.659 159.079 130.792 158.946C133.412 156.327 135.448 154.255 138.731 151.304C138.783 151.258 138.718 151.153 138.655 151.199Z" fill="#17282F"/>
<path d="M157.179 131.706L174.598 164.167C174.598 164.167 199.316 159.199 202.389 154.107C204.586 150.467 189.614 135.082 177.225 133.544L157.179 131.706Z" fill="#FABB1E"/>
<path d="M181.198 162.672C181.325 162.64 181.453 162.608 181.58 162.579C181.579 162.578 181.579 162.578 181.578 162.577C181.45 162.609 181.323 162.64 181.197 162.671C181.198 162.671 181.198 162.672 181.198 162.672Z" fill="white"/>
<path d="M202.477 152.351C202.467 152.315 202.458 152.279 202.447 152.243C202.457 152.279 202.467 152.315 202.477 152.351Z" fill="#FDE599"/>
<path d="M181.198 162.671C181.324 162.64 181.451 162.609 181.579 162.577C181.332 162.257 181.061 161.95 180.772 161.656C179.288 160.128 177.679 158.741 176.249 157.152C173.41 154 170.435 150.284 169.521 146.03C169.091 144.028 169.241 141.901 170.387 140.155C171.305 138.762 172.741 137.855 174.337 137.451C175.121 137.252 175.93 137.159 176.743 137.159C179.257 137.159 181.819 138.045 183.852 139.425C187.286 141.753 189.806 145.165 192.829 147.959C195.317 150.255 198.114 151.985 201.525 152.376C201.847 152.414 202.172 152.437 202.5 152.45C202.493 152.417 202.485 152.384 202.477 152.35C202.467 152.315 202.457 152.279 202.447 152.243C202.431 152.191 202.414 152.138 202.395 152.084C202.169 152.075 201.943 152.059 201.72 152.036C197.97 151.659 195.001 149.586 192.361 147.014C189.564 144.291 187.101 141.087 183.792 138.95C181.728 137.621 179.206 136.806 176.723 136.806C176.167 136.806 175.613 136.847 175.067 136.932C172.066 137.4 169.604 139.479 169.053 142.554C168.396 146.222 170.32 149.951 172.359 152.85C173.582 154.593 174.923 156.252 176.363 157.815C177.797 159.372 179.44 160.715 180.861 162.275C180.979 162.406 181.093 162.537 181.198 162.671Z" fill="#FCD361"/>
<path d="M191.185 140.568C189.634 138.646 184.359 134.515 177.213 133.521C177.15 133.512 177.122 133.611 177.185 133.626C182.437 134.884 189.466 138.92 191.116 140.642C191.16 140.687 191.224 140.617 191.185 140.568Z" fill="#17282F"/>
<path d="M178.464 158.212C177.031 154.951 175.427 151.771 173.813 148.595C172.199 145.418 170.591 142.236 168.898 139.098C167.941 137.326 166.995 135.546 165.977 133.808C165.95 133.762 165.868 133.795 165.89 133.846C167.319 137.101 168.912 140.292 170.502 143.473C172.095 146.662 173.723 149.836 175.379 152.993C176.315 154.777 177.283 156.544 178.3 158.284C178.35 158.37 178.506 158.307 178.464 158.212Z" fill="#17282F"/>
<path d="M157.22 131.395C158.601 131.314 159.974 131.447 161.352 131.554C162.729 131.66 164.104 131.79 165.477 131.933C168.209 132.217 174.029 132.506 178.861 133.825C178.915 133.839 178.572 134.026 178.519 134.009C176.25 133.263 158.868 132.112 157.488 131.843C157.517 131.946 157.545 132.05 157.559 132.16C157.569 132.234 157.48 132.303 157.421 132.236C157.282 132.075 157.199 131.899 157.073 131.73C156.969 131.591 157.042 131.405 157.22 131.395Z" fill="#17282F"/>
<path d="M163.752 94.0163C163.752 94.0163 155.242 104.163 148.074 104.59C140.906 105.016 140.086 96.2177 140.086 96.2177C140.086 96.2177 144.627 91.0743 150.828 90.161C158.702 89.001 163.752 94.0163 163.752 94.0163Z" fill="#F68C95"/>
<path d="M157.049 93.1836C156.827 94.3154 152.257 101.382 147.192 100.458C143.628 99.808 144.677 92.5807 144.677 92.5807L142.059 82.5371L154.43 74.0102C154.43 74.0102 157.135 92.7031 157.049 93.1836Z" fill="#F68C95"/>
<path d="M155.373 80.5768C152.801 87.7018 147.227 90.871 144.532 92.022L142.057 82.5399L154.428 74.0108C154.428 74.0108 154.855 76.9768 155.373 80.5768Z" fill="#17282F"/>
<path d="M128.696 66.8773C126.425 83.7318 136.224 86.996 139.845 87.482C143.132 87.9228 154.381 89.0055 158.375 72.4759C162.369 55.946 155.281 49.5612 147.817 48.1533C140.352 46.7451 130.967 50.0219 128.696 66.8773Z" fill="#F68C95"/>
<path d="M132.662 64.9926C133.063 64.9696 133.43 64.8812 133.824 64.8168C134.27 64.7444 134.631 64.7325 134.976 64.4103C135.16 64.2376 135.168 63.8654 135.018 63.6696C134.668 63.2141 134.101 63.1667 133.561 63.232C132.976 63.3028 132.543 63.5079 132.134 63.9329C131.738 64.3452 132.133 65.0234 132.662 64.9926Z" fill="#17282F"/>
<path d="M144.302 66.2039C143.906 66.1341 143.552 66.0034 143.168 65.8935C142.734 65.7698 142.376 65.7163 142.072 65.3559C141.909 65.1631 141.944 64.7922 142.116 64.6156C142.517 64.2037 143.086 64.2226 143.614 64.3501C144.187 64.4888 144.594 64.7425 144.95 65.2121C145.296 65.668 144.824 66.2955 144.302 66.2039Z" fill="#17282F"/>
<path d="M141.59 69.8117C141.603 69.7685 141.676 69.8739 141.671 69.9213C141.539 71.0774 141.583 72.4238 142.596 72.894C142.627 72.9088 142.619 72.9668 142.581 72.9581C141.321 72.6733 141.281 70.8861 141.59 69.8117Z" fill="#17282F"/>
<path d="M142.721 68.6853C144.59 68.6959 144.43 72.4471 142.698 72.4375C140.994 72.4276 141.155 68.6767 142.721 68.6853Z" fill="#17282F"/>
<path d="M143.446 68.9145C143.763 69.141 144.067 69.5293 144.459 69.585C144.912 69.6494 145.273 69.2714 145.586 68.9065C145.619 68.8684 145.649 68.9027 145.648 68.9523C145.628 69.6715 145.321 70.3971 144.549 70.4717C143.845 70.5396 143.369 69.882 143.221 69.1516C143.194 69.0164 143.318 68.8236 143.446 68.9145Z" fill="#17282F"/>
<path d="M134.953 69.1451C134.945 69.1006 134.861 69.197 134.86 69.2448C134.856 70.4082 134.656 71.7405 133.596 72.09C133.563 72.1006 133.564 72.1592 133.603 72.1551C134.887 72.0192 135.135 70.2481 134.953 69.1451Z" fill="#17282F"/>
<path d="M133.961 67.8954C132.103 67.6884 131.826 71.4329 133.547 71.6245C135.24 71.8128 135.518 68.0687 133.961 67.8954Z" fill="#17282F"/>
<path d="M133.164 68.0839C132.855 68.2605 132.537 68.5994 132.183 68.5965C131.773 68.5933 131.501 68.1656 131.269 67.7585C131.245 67.7159 131.213 67.745 131.208 67.7947C131.135 68.509 131.316 69.2718 131.991 69.4598C132.606 69.6315 133.111 69.0514 133.333 68.3511C133.375 68.2214 133.289 68.0125 133.164 68.0839Z" fill="#17282F"/>
<path d="M140.601 79.1606C140.324 79.4338 140.048 79.8096 139.628 79.8461C139.225 79.8813 138.752 79.7 138.382 79.5575C138.345 79.5434 138.308 79.5821 138.332 79.6171C138.634 80.0627 139.267 80.3401 139.804 80.2443C140.328 80.1507 140.587 79.6949 140.713 79.2128C140.73 79.1455 140.641 79.1208 140.601 79.1606Z" fill="#17282F"/>
<path d="M135.993 74.6995C135.993 74.6995 135.66 76.4211 135.615 77.2395C135.611 77.3161 135.806 77.3632 136.082 77.3946L136.114 77.3968C137.541 77.7008 139.017 77.2809 139.956 76.1491C140.016 76.0722 139.918 75.9822 139.841 76.0293C138.723 76.7629 137.525 76.9022 136.247 76.8545C136.202 76.6245 136.916 73.9253 136.788 73.9083C136.344 73.8458 135.45 74.1024 134.914 74.2283C135.504 70.6222 136.666 67.1404 137.2 63.5408C137.217 63.412 137.034 63.3633 136.991 63.4764C135.516 67.0395 134.745 71.1742 134.04 74.8828C133.948 75.3444 135.659 74.821 135.993 74.6995Z" fill="#17282F"/>
<path d="M136.62 77.1532C136.62 77.1532 137.221 78.1495 138.131 78.5736C138.466 78.7309 138.835 78.8148 139.235 78.7466C140.059 78.6088 140.147 77.8689 140.058 77.2208C139.987 76.6874 139.787 76.2152 139.787 76.2152C139.787 76.2152 138.512 77.2112 136.62 77.1532Z" fill="#17282F"/>
<path d="M138.131 78.5736C138.466 78.7309 138.835 78.8148 139.235 78.7466C140.059 78.6088 140.147 77.8689 140.058 77.2208C139.188 77.2291 138.281 77.7382 138.131 78.5736Z" fill="#F579BB"/>
<path d="M157.313 73.4645C154.251 73.9223 153.309 66.8632 153.309 66.8632C153.309 66.8632 140.173 64.9197 138.831 54.2277C138.831 54.2277 135.883 60.9254 129.095 64.1672C129.095 64.1672 130.561 50.8727 139.773 48.3875C139.773 48.3875 149.889 44.5376 157.052 53.4364C164.392 62.5575 159.369 73.1573 157.313 73.4645Z" fill="#17282F"/>
<path d="M138.768 53.4365C138.628 55.0751 138.902 56.7479 139.458 58.3157C140.014 59.8834 140.871 61.3682 142.022 62.589C142.285 62.9167 142.626 63.1666 142.924 63.4584L143.388 63.8806C143.553 64.0078 143.724 64.1267 143.895 64.2458C144.24 64.4797 144.575 64.7286 144.927 64.948C145.293 65.145 145.663 65.3334 146.033 65.5173C146.219 65.6079 146.401 65.7072 146.59 65.7905L147.171 66.0019L148.331 66.4209C149.127 66.625 149.931 66.7874 150.729 66.937C149.97 66.6234 149.194 66.3927 148.453 66.0769L147.358 65.5701L146.812 65.319C146.637 65.2229 146.469 65.112 146.298 65.0092C145.958 64.7987 145.617 64.5927 145.272 64.3951C144.944 64.1702 144.635 63.9181 144.317 63.682L143.842 63.3248L143.409 62.9174C143.131 62.6367 142.81 62.3968 142.566 62.0835C141.464 60.9415 140.642 59.5579 139.986 58.1061C139.66 57.3754 139.405 56.6118 139.203 55.8311C138.986 55.052 138.849 54.2518 138.768 53.4365Z" fill="#17282F"/>
<path d="M138.692 70.4863L139.18 69.9712C138.453 69.2078 136.72 68.1113 135.347 69.4135L135.811 69.9549C137.039 68.7866 138.625 70.4171 138.692 70.4863Z" fill="#273E47"/>
<path d="M162.205 75.6636L162.912 75.5053C162.838 75.1735 162.15 72.2465 160.652 71.5767C159.251 70.9549 149.63 69.3522 149.221 69.2846L149.104 70.0035C151.863 70.4599 159.277 71.7586 160.358 72.2423C161.346 72.6847 162.026 74.8621 162.205 75.6636Z" fill="#273E47"/>
<path d="M149.521 67.8117C149.136 69.3724 148.206 72.3788 147.092 73.2203C145.591 74.3543 140.837 73.9007 139.801 72.7933C139.305 72.2635 138.88 70.2094 139.568 69.546C140.942 68.2214 146.814 67.8572 149.521 67.8117ZM144.629 74.633C145.833 74.5696 146.927 74.3127 147.555 73.8382C149.277 72.5364 150.338 67.7069 150.382 67.5022L150.484 67.0326L150.006 67.0332C149.64 67.0332 141.019 67.0733 139.036 68.9873C137.968 70.0169 138.525 72.5591 139.241 73.3235C140.124 74.2675 142.541 74.7423 144.629 74.633Z" fill="#273E47"/>
<path d="M129.365 65.9911C131.09 66.3281 134.445 67.2385 134.936 68.5673C135.374 69.7551 134.784 71.2489 134.345 71.7169C133.897 72.1936 132.855 72.4229 131.819 72.2711C130.97 72.1487 130.326 71.8031 130.094 71.3462C129.609 70.3884 129.416 67.4935 129.365 65.9911ZM132.729 73.0822C133.531 73.0402 134.377 72.8089 134.904 72.2477C135.552 71.557 136.194 69.7535 135.657 68.2985C134.867 66.1564 129.624 65.2418 129.029 65.1444L128.575 65.0708L128.583 65.5333C128.587 65.7252 128.675 70.2488 129.409 71.6977C129.759 72.388 130.598 72.8762 131.709 73.0367C132.018 73.0815 132.369 73.1011 132.729 73.0822Z" fill="#273E47"/>
<path d="M154.865 72.2388C154.865 72.2388 158.812 67.112 161.146 68.5484C163.479 69.9848 160.335 77.5388 157.47 78.4566C154.606 79.3737 153.709 76.7296 153.709 76.7296L154.865 72.2388Z" fill="#F68C95"/>
<path d="M160.191 70.6916C160.236 70.6897 160.242 70.7537 160.202 70.7678C158.19 71.4761 157.064 73.263 156.245 75.1328C156.867 74.4277 157.685 74.0645 158.63 74.8118C158.679 74.8509 158.627 74.9294 158.571 74.9153C157.772 74.7029 157.182 74.816 156.605 75.4394C156.196 75.8811 155.904 76.4504 155.602 76.9684C155.501 77.1413 155.187 77.0311 155.264 76.8306L155.282 76.7854C155.353 74.2573 157.477 70.8172 160.191 70.6916Z" fill="#17282F"/>
</g>
<defs>
<filter id="filter0_d_4311_134212" x="82.001" y="33.1143" width="46.4404" height="42.04" filterUnits="userSpaceOnUse" color-interpolation-filters="sRGB">
<feFlood flood-opacity="0" result="BackgroundImageFix"/>
<feColorMatrix in="SourceAlpha" type="matrix" values="0 0 0 0 0 0 0 0 0 0 0 0 0 0 0 0 0 0 127 0" result="hardAlpha"/>
<feOffset dy="4"/>
<feGaussianBlur stdDeviation="2"/>
<feComposite in2="hardAlpha" operator="out"/>
<feColorMatrix type="matrix" values="0 0 0 0 0 0 0 0 0 0 0 0 0 0 0 0 0 0 0.25 0"/>
<feBlend mode="normal" in2="BackgroundImageFix" result="effect1_dropShadow_4311_134212"/>
<feBlend mode="normal" in="SourceGraphic" in2="effect1_dropShadow_4311_134212" result="shape"/>
</filter>
<linearGradient id="paint0_linear_4311_134212" x1="245" y1="76.5914" x2="-5.40049" y2="162.205" gradientUnits="userSpaceOnUse">
<stop stopColor="white"/>
<stop offset="1" stopColor="#FFFCEA"/>
</linearGradient>
<clipPath id="clip0_4311_134212">
<rect width="133" height="132" fill="white" transform="matrix(-1 0 0 1 215 33)"/>
</clipPath>
</defs>
</svg>
