<svg xmlns="http://www.w3.org/2000/svg" width="30" height="32" viewBox="0 0 30 32" fill="none">
  <path d="M17.5931 -0.359863L33.0934 32.2921L15.0926 32.2914L0.0917969 -0.359636L17.5931 -0.359863Z" fill="url(#paint0_linear_4311_134277)"/>
  <path d="M19.9173 22.4658L21.0379 24.958L20.1247 25.3855L19.004 22.8933L19.9173 22.4658ZM17.8698 23.5317L19.1368 26.3493L18.1946 26.7904L16.3922 22.7822L21.4656 20.4071L23.2247 24.3191L22.2825 24.7602L21.0588 22.0388L17.8698 23.5317Z" fill="#001F35"/>
  <path d="M17.6868 17.5047L18.8074 19.9968L17.8942 20.4243L16.7736 17.9322L17.6868 17.5047ZM15.6394 18.5706L16.9063 21.3881L15.9641 21.8292L14.1618 17.8211L19.2352 15.446L20.9943 19.358L20.0521 19.7991L18.8283 17.0777L15.6394 18.5706Z" fill="#001F35"/>
  <path d="M11.7165 12.3826L16.7899 10.0075L17.7974 12.2482C18.0058 12.7116 18.1105 13.146 18.1115 13.5514C18.1173 13.9545 18.0235 14.3117 17.8301 14.6231C17.6367 14.9344 17.3491 15.1794 16.9674 15.3581C16.5905 15.5346 16.2234 15.5961 15.8659 15.5426C15.5133 15.4868 15.1892 15.3253 14.8935 15.0579C14.5978 14.7905 14.3457 14.4251 14.1373 13.9617L13.429 12.3865L14.1831 12.6781L12.2552 13.5806L11.7165 12.3826ZM13.1962 15.6734L14.4552 13.5175L15.0305 14.7968L13.7782 16.9675L13.1962 15.6734ZM14.0526 12.7391L14.364 11.9488L15.0424 13.4574C15.2086 13.8272 15.4101 14.0671 15.6467 14.1771C15.8882 14.2849 16.1467 14.2743 16.4221 14.1453C16.7023 14.0142 16.8787 13.8212 16.9513 13.5664C17.0239 13.3116 16.9771 12.9993 16.8108 12.6295L16.1324 11.1209L16.9299 11.3921L14.0526 12.7391Z" fill="#001F35"/>
  <path d="M12.8826 7.46253L13.9999 9.94727L13.0577 10.3884L11.9404 7.90361L12.8826 7.46253ZM10.1321 8.85756L9.59341 7.65956L14.6668 5.28448L16.4259 9.19647L15.4837 9.63756L14.2633 6.92357L10.1321 8.85756Z" fill="#001F35"/>
  <defs>
    <linearGradient id="paint0_linear_4311_134277" x1="0.0917969" y1="15.9661" x2="33.0934" y2="15.9661" gradientUnits="userSpaceOnUse">
        <stop stop-color="#FFE53B"/>
      <stop offset="0.56" stop-color="#FFEEC2"/>
      <stop offset="1" stop-color="#FABB1E"/>
    </linearGradient>
  </defs>
</svg>