<svg className="WhyChoosingBlockImg" xmlns="http://www.w3.org/2000/svg" width="159" height="144" viewBox="0 0 159 144" fill="none">
  <path d="M130.542 54.4114L78.6311 14.3463C77.8133 13.7164 76.6477 13.7164 75.8298 14.3463L23.9186 54.4114C23.3999 54.8161 23.0985 55.413 23.0985 56.0501V135.661C23.0985 136.827 24.0915 137.772 25.3202 137.772H129.141C130.369 137.772 131.362 136.827 131.362 135.661V56.0501C131.362 55.413 131.062 54.8161 130.542 54.4114Z" fill="#FFF9D7"/>
  <path d="M146.614 68.3984C144.911 68.3984 143.198 67.8666 141.771 66.7618L77.2304 16.9498L12.6894 66.7618C9.39224 69.3081 4.55639 68.8322 1.88138 65.7044C-0.795019 62.5795 -0.29476 57.9853 2.99604 55.4451L72.3846 1.88672C75.2088 -0.291017 79.251 -0.291017 82.076 1.88672L151.465 55.4451C154.755 57.9853 155.256 62.5795 152.579 65.7044C151.061 67.4814 148.847 68.3984 146.614 68.3984Z" fill="#A2B3BF"/>
  <path d="M63.2309 87.3678C63.2309 84.8491 61.0821 82.8159 58.431 82.8159H45.6414C42.9915 82.8159 40.8415 84.8491 40.8415 87.3678V139.877H63.2309V87.3678Z" fill="#885136"/>
  <path d="M142.526 139.877C142.526 142.005 140.708 143.733 138.465 143.733H15.9948C13.7501 143.733 11.9331 142.005 11.9331 139.877C11.9331 137.745 13.7501 136.02 15.9948 136.02H138.465C140.708 136.02 142.526 137.745 142.526 139.877Z" fill="#3C993A"/>
  <path d="M119.468 115.77H75.5079V85.7796H119.468V115.77Z" fill="#CBE9FF"/>
  <path d="M76.7883 114.551H118.187V86.9976H76.7883V114.551ZM119.467 116.983H75.5071C74.8003 116.983 74.2274 116.441 74.2274 115.77V85.7792C74.2274 85.108 74.8003 84.5658 75.5071 84.5658H119.467C120.174 84.5658 120.746 85.108 120.746 85.7792V115.77C120.746 116.441 120.174 116.983 119.467 116.983Z" fill="#784129"/>
  <path d="M67.2127 64.3109C66.5058 64.3109 65.9329 63.7666 65.9329 63.0925V34.3285C65.9329 33.6512 66.5058 33.1151 67.2127 33.1151H88.9769C89.6837 33.1151 90.258 33.6512 90.258 34.3285V63.0925C90.258 63.7666 89.6837 64.3109 88.9769 64.3109H67.2127Z" fill="#CBE9FF"/>
  <path d="M88.9755 31.8969H67.2113C65.7965 31.8969 64.6504 32.9852 64.6504 34.3286V63.0926C64.6504 64.4382 65.7965 65.5244 67.2113 65.5244H88.9755C90.3902 65.5244 91.5364 64.4382 91.5364 63.0926V34.3286C91.5364 32.9852 90.3902 31.8969 88.9755 31.8969ZM88.9755 34.3286V63.0926H67.2113V34.3286H88.9755Z" fill="#784129"/>
  <path d="M97.4882 116.983C96.7792 116.983 96.2074 116.441 96.2074 115.77V85.7792C96.2074 85.108 96.7792 84.5658 97.4882 84.5658C98.1951 84.5658 98.7682 85.108 98.7682 85.7792V115.77C98.7682 116.441 98.1951 116.983 97.4882 116.983Z" fill="#784129"/>
  <path d="M86.0168 54.0516C86.0168 55.4127 84.8543 56.5125 83.4223 56.5125C81.9889 56.5125 80.8255 55.4127 80.8255 54.0516V41.881C80.8255 40.5191 81.9889 39.4141 83.4223 39.4141C84.8543 39.4141 86.0168 40.5191 86.0168 41.881V54.0516Z" fill="white"/>
  <path d="M93.8039 104.448C93.8039 105.812 92.6425 106.917 91.2093 106.917C89.7748 106.917 88.6123 105.812 88.6123 104.448V92.28C88.6123 90.921 89.7748 89.8162 91.2093 89.8162C92.6425 89.8162 93.8039 90.921 93.8039 92.28V104.448Z" fill="white"/>
  <path d="M114.673 104.448C114.673 105.812 113.509 106.917 112.077 106.917C110.644 106.917 109.481 105.812 109.481 104.448V92.28C109.481 90.921 110.644 89.8162 112.077 89.8162C113.509 89.8162 114.673 90.921 114.673 92.28V104.448Z" fill="white"/>
  <path d="M158.437 60.3255L152.925 57.4324L152.264 57.0828L150.447 56.1306L149.783 55.7802L147.198 54.4259L146.534 54.0769L144.72 53.1191L144.047 52.7712L142.233 51.819L141.568 51.467L139.753 50.5148L139.08 50.1594L137.266 49.2081L136.602 48.8577L131.06 45.949C130.937 45.8848 130.791 45.8543 130.655 45.8543C130.517 45.8543 130.371 45.8848 130.249 45.949L124.708 48.8577L124.044 49.2081L122.228 50.1594L121.555 50.5148L119.741 51.467L119.078 51.819L117.261 52.7712L116.59 53.1191L114.775 54.0769L114.111 54.4259L111.525 55.7802L110.862 56.1306L109.046 57.0828L108.384 57.4324L102.873 60.3255C102.485 60.531 102.354 60.9863 102.573 61.3434C102.8 61.6988 103.294 61.8196 103.683 61.6181L108.384 59.1497L109.046 58.8007L110.862 57.848L111.525 57.4965L114.111 56.1462L114.775 55.7968L116.59 54.8365L117.261 54.4866L119.078 53.5363L119.741 53.1849L121.555 52.2322L124.044 50.9255L124.708 50.575L130.655 47.4533L136.602 50.575L137.266 50.9255L139.08 51.8792L141.568 53.1849L142.233 53.5363L144.047 54.4866L144.72 54.8365L146.534 55.7968L147.198 56.1462L149.783 57.4965L150.447 57.848L152.264 58.8007L152.925 59.1497L157.625 61.6181C158.015 61.8196 158.509 61.6988 158.736 61.3434C158.952 60.9863 158.823 60.531 158.437 60.3255Z" fill="#E9F5F4"/>
  <path d="M131.698 46.8465C131.698 47.392 131.23 47.8369 130.654 47.8369C130.077 47.8369 129.61 47.392 129.61 46.8465C129.61 46.2977 130.078 45.8543 130.655 45.8543C131.231 45.8543 131.698 46.2977 131.698 46.8465Z" fill="#464648"/>
  <path d="M158.84 89.0262C158.84 90.3701 157.717 91.4551 156.335 91.4551H102.885C101.502 91.4551 100.379 90.3701 100.379 89.0262V62.1592C100.379 60.8177 101.502 59.7328 102.885 59.7328H156.335C157.717 59.7328 158.84 60.8177 158.84 62.1592V89.0262Z" fill="#556477"/>
  <path d="M156.752 86.7805C156.752 88.267 155.612 89.4725 154.209 89.4725H105.01C103.605 89.4725 102.467 88.267 102.467 86.7805V64.4079C102.467 62.9214 103.605 61.7155 105.01 61.7155H154.209C155.612 61.7155 156.752 62.9214 156.752 64.4079V86.7805Z" fill="white"/>
  <path d="M115.011 78.1412V77.1048H117.143V78.2724C117.143 78.9196 117.213 79.3744 117.353 79.6376C117.493 79.8975 117.757 80.0297 118.143 80.0297C118.53 80.0297 118.785 79.9221 118.911 79.7061C119.037 79.4907 119.1 79.1388 119.1 78.6486C119.1 78.1599 118.988 77.7348 118.765 77.3705C118.54 77.0091 118.185 76.6281 117.698 76.2306L116.607 75.3484C116.097 74.9295 115.701 74.4953 115.418 74.0458C115.136 73.5958 114.994 73.0764 114.994 72.4881C114.994 71.5274 115.229 70.814 115.7 70.3474C116.17 69.8816 116.979 69.646 118.126 69.646C119.273 69.646 120.05 69.9193 120.457 70.4622C120.862 71.0066 121.065 71.8007 121.065 72.8448V73.5643H118.991V72.7323C118.991 72.1669 118.93 71.7653 118.807 71.5187C118.683 71.2736 118.446 71.1525 118.096 71.1525C117.746 71.1525 117.495 71.2454 117.341 71.4293C117.186 71.6144 117.11 71.8911 117.11 72.2627C117.11 72.6317 117.188 72.928 117.345 73.1487C117.502 73.368 117.785 73.6485 118.193 73.9932L119.411 75.0301C120.021 75.5495 120.482 76.0751 120.792 76.6093C121.103 77.1402 121.258 77.7223 121.258 78.3523C121.258 79.4404 121.026 80.2433 120.561 80.7626C120.096 81.281 119.283 81.5419 118.121 81.5419C116.96 81.5419 116.151 81.2528 115.695 80.673C115.239 80.0948 115.011 79.2494 115.011 78.1412Z" fill="#148B16"/>
  <path d="M125.709 79.606C125.835 79.8765 126.094 80.01 126.486 80.01C126.878 80.01 127.135 79.8717 127.259 79.596C127.382 79.3217 127.444 78.8498 127.444 78.1795V72.7653C127.444 72.2148 127.381 71.8132 127.254 71.5594C127.129 71.3057 126.882 71.1779 126.514 71.1779C126.146 71.1779 125.889 71.3057 125.741 71.5594C125.594 71.8132 125.52 72.2123 125.52 72.7577V78.1795C125.52 78.8646 125.583 79.3375 125.709 79.606ZM128.87 80.7052C128.375 81.2629 127.585 81.5419 126.498 81.5419C125.411 81.5419 124.614 81.2629 124.107 80.7004C123.599 80.1403 123.346 79.292 123.346 78.1599V72.8448C123.346 70.7111 124.406 69.646 126.526 69.646C127.621 69.646 128.409 69.917 128.889 70.4599C129.37 71.0017 129.61 71.7959 129.61 72.8448V78.1599C129.61 79.2968 129.363 80.1451 128.87 80.7052Z" fill="#148B16"/>
  <path d="M131.698 81.5419V69.646H133.541V80.0005H135.873V81.5419H131.698Z" fill="#148B16"/>
  <path d="M140.156 80.1362H140.877C141.28 80.1362 141.574 80.0285 141.756 79.8099C141.94 79.5945 142.031 79.1981 142.031 78.6227L142.023 72.7494C142.023 72.1323 141.931 71.6909 141.748 71.4313C141.566 71.1693 141.251 71.0405 140.803 71.0405H140.156V80.1362ZM137.961 81.5419V69.646H141.196C142.255 69.646 143.023 69.9041 143.5 70.4208C143.978 70.9377 144.217 71.6958 144.217 72.7004L144.225 78.0657C144.225 79.2658 143.985 80.1436 143.505 80.7038C143.024 81.2622 142.229 81.5419 141.122 81.5419H137.961Z" fill="#148B16"/>
</svg>