 <svg
    className="WhyChoosingBlockImg"
    xmlns="http://www.w3.org/2000/svg"
    width="192"
    height="158"
    viewBox="0 0 192 158"
    fill="none"
  >
    <path
      d="M144.874 55.1869C136.593 63.561 129.685 70.4908 129.309 70.6133C128.603 70.8145 126.372 70.7919 125.581 71.1157C121.161 72.9191 115.391 76.2225 110.868 79.3671C110.147 79.8516 109.499 80.3188 108.883 80.7887C107.695 81.6874 106.666 82.5391 105.817 83.3308C105.656 83.4858 105.45 83.6694 105.274 83.84L97.9274 91.2171C97.8721 91.2721 97.8093 91.3605 97.7566 91.4203L90.9122 98.292L90.9247 98.2471L74.2872 114.882C73.3478 115.824 73.3629 117.366 74.2872 118.294C75.2442 119.215 76.7562 119.231 77.7107 118.273L93.4967 102.462C93.6148 102.344 93.7454 102.271 93.9061 102.169C94.6848 101.681 95.7296 101.726 96.4329 102.374C96.4756 102.417 96.5208 102.432 96.551 102.462C96.7996 102.713 96.9478 103.001 97.0658 103.326C97.2994 104.062 97.1538 104.916 96.5484 105.519L73.0866 129.006C71.4842 130.611 71.4841 133.225 73.0841 134.826C74.7016 136.438 77.3013 136.428 78.8987 134.826L102.381 111.316C102.908 110.791 103.641 110.64 104.332 110.773C104.742 110.831 105.126 111.007 105.435 111.316C105.756 111.639 105.92 112.003 105.992 112.431C106.138 113.106 105.977 113.827 105.432 114.367L79.1499 140.688C77.5348 142.295 77.5499 144.924 79.1624 146.539C80.7825 148.125 83.3896 148.125 85.0071 146.515L111.28 120.187C111.528 119.936 111.837 119.803 112.129 119.685C112.483 119.569 112.849 119.554 113.216 119.627C113.631 119.685 114.01 119.863 114.331 120.187C114.522 120.378 114.655 120.599 114.758 120.815C114.816 120.96 114.859 121.124 114.904 121.285C115.037 121.978 114.876 122.694 114.331 123.237L93.3058 144.385C91.5125 146.175 91.5125 149.114 93.2883 150.89C95.1118 152.675 98.0203 152.675 99.8237 150.87L120.852 129.732C120.897 129.684 120.942 129.643 120.982 129.624C121.012 129.566 121.058 129.521 121.1 129.477L128.442 122.139C129.266 121.314 130.597 121.33 131.423 122.153C132.245 122.978 132.245 124.296 131.423 125.117L124.227 132.314C124.227 132.341 124.227 132.341 124.215 132.356L120.927 135.649C120.719 135.855 120.545 136.061 120.397 136.292C119.34 137.904 119.515 140.112 120.927 141.522L121.173 141.77C122.793 143.385 125.431 143.385 127.048 141.77L133.656 135.164L141.056 127.735L141.116 127.702C141.249 127.574 141.365 127.421 141.483 127.31L141.543 127.244L141.526 127.23C141.656 127.104 141.777 126.956 141.907 126.818C142.186 126.515 142.477 126.157 142.789 125.793C143.256 125.233 143.713 124.605 144.228 123.945C148.704 118.027 154.39 108.613 157.03 102.359C157.342 101.608 157.472 99.1613 157.708 98.5138C157.829 98.1391 164.641 91.3605 172.897 83.2073L144.874 55.1869Z"
      fill="#F8C987"
    />
    <path
      d="M135.357 118.386C134.869 118.386 134.377 118.213 133.98 117.861C125.827 110.625 121.806 103.002 122.035 95.1909C122.361 83.9834 131.373 76.7474 131.757 76.4483C132.654 75.735 133.965 75.893 134.673 76.7896C135.384 77.6893 135.231 78.9921 134.332 79.7035C134.251 79.7683 126.433 86.0907 126.186 95.3489C126.008 101.859 129.56 108.382 136.738 114.757C137.595 115.515 137.675 116.832 136.914 117.688C136.502 118.15 135.932 118.386 135.357 118.386Z"
      fill="#E1B577"
    />
    <path
      d="M155.43 37.6566C156.703 36.3762 158.768 36.3762 160.042 37.6468L190.662 68.27C191.938 69.5455 191.938 71.6156 190.662 72.8911L174.318 89.2299C173.045 90.5054 170.978 90.5054 169.702 89.2299L139.081 58.6098C137.808 57.3333 137.81 55.274 139.084 53.9985L155.43 37.6566Z"
      fill="#556477"
    />
    <path
      fillRule="evenodd"
      clipRule="evenodd"
      d="M75.836 28.1027C75.836 18.782 83.3861 11.2212 92.7071 11.2273C102.033 11.2212 109.588 18.777 109.588 28.1027C109.588 34.8611 105.618 40.6875 99.8822 43.382V79.0123C99.8796 79.7337 97.3202 82.9557 96.5943 82.9604L88.9487 82.9557C88.2279 82.9557 85.0028 79.7337 85.0053 79.0123L85.0028 69.8672L91.8623 68.1512L85.0053 64.4572L85.0028 62.4549L90.6567 58.9385L85.0053 57.6101L85.0028 54.538L90.6516 49.0673L85.0028 48.7337V43.1192C79.5593 40.321 75.836 34.649 75.836 28.1027ZM86.9477 21.2583C86.9477 24.4381 89.5298 27.0224 92.7071 27.0224C95.8844 27.0224 98.4639 24.4381 98.4639 21.2583C98.4664 18.0784 95.8844 15.504 92.7071 15.504C89.5323 15.504 86.9477 18.0784 86.9477 21.2583Z"
      fill="#8BA8BD"
    />
    <path
      d="M117.76 18.0157C115.447 20.3263 111.888 22.1128 107.656 22.8332C99.5179 24.2174 92.4199 21.0572 91.4981 15.6326C91.385 14.9693 91.8296 14.3414 92.4952 14.2286C93.1558 14.1158 93.7862 14.5621 93.8967 15.2255C94.5649 19.1636 100.681 21.5527 107.249 20.4353C113.815 19.3196 118.795 15.0469 118.127 11.1035C118.012 10.4404 118.454 9.81251 119.119 9.69974C119.782 9.58671 120.41 10.0343 120.523 10.6964C120.965 13.3013 119.89 15.8808 117.76 18.0157Z"
      fill="#FF7A00"
    />
    <path
      d="M120.185 11.7666C120.011 11.9374 119.788 12.0549 119.529 12.0981C118.866 12.2111 118.238 11.7666 118.125 11.1032C117.454 7.16513 111.338 4.779 104.775 5.89445C98.2097 7.0119 93.2261 11.2841 93.8967 15.2255C94.0123 15.8856 93.5681 16.5132 92.9025 16.6272C92.2419 16.74 91.6086 16.2977 91.4981 15.6326C90.5738 10.2099 96.228 4.87697 104.368 3.49553C112.504 2.11133 119.599 5.27662 120.523 10.6964C120.594 11.1035 120.453 11.4898 120.185 11.7666Z"
      fill="#FF7A00"
    />
    <path
      d="M103.154 31.4806C104.49 32.8151 104.227 35.2434 102.564 36.9064C100.904 38.5694 98.475 38.8354 97.1387 37.4969C95.8 36.1627 96.0662 33.7344 97.7265 32.0714C99.3892 30.4064 101.818 30.1424 103.154 31.4806Z"
      fill="#E1E9F1"
    />
    <path
      d="M121.022 13.4721C119.834 14.6603 117.908 14.6603 116.72 13.4721C115.534 12.2868 115.534 10.3628 116.72 9.16975C117.908 7.98448 119.837 7.98448 121.022 9.16975C122.211 10.358 122.211 12.2868 121.022 13.4721ZM121.073 0.963519L108.522 13.5173C107.57 14.47 107.567 16.0044 108.522 16.956L130.165 38.5989C131.12 39.5566 132.654 39.5516 133.609 38.5989L146.157 26.0512C147.114 25.0937 147.114 23.5641 146.157 22.6074L124.514 0.963519C123.562 0.0118348 122.027 0.0118348 121.073 0.963519Z"
      fill="#148B16"
    />
    <path
      d="M135.418 17.5984C135.634 18.036 135.551 18.5609 135.204 18.9073L134.426 19.6834L137.801 23.0594C138.238 23.4989 138.238 24.2318 137.799 24.6714L135.933 26.5356L132.831 23.4311C132.733 23.3331 132.587 23.3379 132.497 23.4311L131.06 24.8675C130.97 24.958 130.962 25.1041 131.06 25.2011L134.164 28.3036L132.235 30.2295C131.788 30.6819 131.06 30.6819 130.62 30.2403L127.245 26.8641L126.464 27.6452C126.122 27.9944 125.592 28.0778 125.155 27.8562C124.715 27.6452 124.467 27.1635 124.532 26.6838L125.574 18.9974C125.612 18.7415 125.723 18.5109 125.898 18.3401C126.069 18.1663 126.3 18.0508 126.549 18.0201L134.24 16.9753C134.727 16.9057 135.204 17.1569 135.418 17.5984Z"
      fill="white"
    />
    <path
      d="M47.5426 60.2101C55.8237 68.5791 62.7308 75.5109 63.1076 75.6317C63.8134 75.8377 66.0438 75.8101 66.8324 76.1341C71.253 77.9372 77.025 81.2409 81.5485 84.3853C82.2694 84.87 82.9174 85.342 83.5328 85.8069C84.7208 86.7056 85.7506 87.5573 86.5996 88.354C86.7603 88.509 86.9663 88.6926 87.1421 88.8631L94.4863 96.2355C94.5441 96.2953 94.6044 96.3837 94.6596 96.4384L101.504 103.31L101.489 103.265L118.129 119.905C119.066 120.842 119.053 122.39 118.129 123.317C117.172 124.238 115.66 124.254 114.706 123.296L98.9195 107.48C98.8014 107.363 98.6708 107.294 98.51 107.192C97.7289 106.704 96.6866 106.749 95.9833 107.392C95.9406 107.44 95.8954 107.45 95.8652 107.48C95.6141 107.731 95.4684 108.025 95.3503 108.349C95.1142 109.08 95.2624 109.934 95.8652 110.542L119.327 134.029C120.93 135.634 120.93 138.244 119.332 139.843C117.715 141.461 115.115 141.446 113.515 139.843L90.033 116.339C89.5056 115.809 88.7747 115.658 88.0815 115.796C87.6746 115.854 87.2903 116.025 86.9813 116.339C86.6573 116.658 86.4966 117.027 86.4237 117.454C86.2781 118.124 86.4388 118.851 86.9813 119.395L113.266 145.711C114.881 147.318 114.866 149.948 113.254 151.563C111.634 153.148 109.024 153.148 107.409 151.533L81.1391 125.205C80.888 124.954 80.579 124.821 80.2877 124.708C79.9335 124.592 79.5668 124.578 79.2001 124.65C78.7856 124.708 78.4064 124.882 78.0849 125.21C77.894 125.402 77.7609 125.617 77.6579 125.838C77.5976 125.983 77.5549 126.142 77.5097 126.302C77.3791 127.001 77.5398 127.717 78.0849 128.26L99.1104 149.403C100.904 151.199 100.904 154.132 99.1254 155.908C97.3045 157.699 94.3959 157.699 92.5925 155.898L71.562 134.75C71.5168 134.707 71.4741 134.662 71.4339 134.647C71.4038 134.589 71.3611 134.544 71.3159 134.501L63.9741 127.157C63.1503 126.337 61.8191 126.353 60.9927 127.172C60.1689 127.996 60.1689 129.314 60.9927 130.14L68.1888 137.337C68.1862 137.362 68.1863 137.362 68.2013 137.379L71.4891 140.672C71.6976 140.873 71.8709 141.079 72.0191 141.316C73.0765 142.928 72.9007 145.13 71.4891 146.539L71.243 146.788C69.623 148.408 66.9857 148.408 65.3681 146.788L58.7598 140.183L51.3578 132.755L51.3001 132.725C51.167 132.592 51.0514 132.444 50.9334 132.328L50.8756 132.268L50.8907 132.253C50.7575 132.127 50.637 131.979 50.5089 131.841C50.2301 131.532 49.9387 131.181 49.6273 130.816C49.1601 130.256 48.7005 129.623 48.1881 128.968C43.7122 123.045 38.0257 113.636 35.3834 107.382C35.0745 106.631 34.9414 104.18 34.7078 103.537C34.5872 103.162 27.7729 96.3837 19.5195 88.2304L47.5426 60.2101Z"
      fill="#FED79E"
    />
    <path
      d="M36.572 42.1662C35.2961 40.8897 33.2315 40.8897 31.958 42.1604L1.33785 72.7786C0.0644196 74.052 0.0619079 76.1242 1.33785 77.3979L17.684 93.7435C18.955 95.015 21.0246 95.0149 22.298 93.7385L52.9182 63.1183C54.1917 61.8479 54.1891 59.7835 52.9157 58.5071L36.572 42.1662Z"
      fill="#0065FD"
    />
  </svg>