  <svg
    className="WhyChoosingBlockImg"
    xmlns="http://www.w3.org/2000/svg"
    width="159"
    height="144"
    viewBox="0 0 159 144"
    fill="none"
  >
    <path
      d="M123.975 54.3498L74.6785 14.2827C73.9013 13.6535 72.7936 13.6535 72.019 14.2827L22.723 54.3498C22.2286 54.7543 21.9431 55.3517 21.9431 55.9862V135.602C21.9431 136.768 22.8869 137.709 24.0527 137.709H122.645C123.811 137.709 124.752 136.768 124.752 135.602V55.9862C124.752 55.3517 124.469 54.7543 123.975 54.3498Z"
      fill="#CBE9FF"
    />
    <path
      d="M139.235 68.3373C137.617 68.3373 135.991 67.8007 134.637 66.7062L73.3471 16.8841L12.0569 66.7062C8.92415 69.2468 4.33212 68.7656 1.79158 65.6435C-0.748967 62.5134 -0.273108 57.924 2.85168 55.3835L68.7445 1.82323C71.4278 -0.355138 75.2638 -0.355138 77.9471 1.82323L143.843 55.3835C146.967 57.924 147.441 62.5134 144.9 65.6435C143.459 67.42 141.355 68.3373 139.235 68.3373Z"
      fill="#005592"
    />
    <path
      d="M55.7387 86.9459C55.7387 84.4129 53.2675 82.3567 50.2162 82.3567H35.4887C32.4375 82.3567 29.9631 84.4129 29.9631 86.9459V139.856H55.7387V86.9459Z"
      fill="#784129"
    />
    <path
      d="M135.354 139.819C135.354 141.947 133.628 143.671 131.497 143.671H15.1953C13.0645 143.671 11.3382 141.947 11.3382 139.819C11.3382 137.688 13.0645 135.962 15.1953 135.962H131.497C133.628 135.962 135.354 137.688 135.354 139.819Z"
      fill="#6EC2FF"
    />
    <path
      d="M113.457 115.706H71.7109V85.7169H113.457V115.706Z"
      fill="#BECBD9"
    />
    <path
      d="M72.9244 114.493H112.241V86.9353H72.9244V114.493ZM113.457 116.925H71.711C71.0395 116.925 70.4949 116.383 70.4949 115.706V85.7166C70.4949 85.0478 71.0395 84.5058 71.711 84.5058H113.457C114.126 84.5058 114.67 85.0478 114.67 85.7166V115.706C114.67 116.383 114.126 116.925 113.457 116.925Z"
      fill="#784129"
    />
    <path
      d="M63.8336 64.2478C63.1621 64.2478 62.6201 63.7006 62.6201 63.0344V34.261C62.6201 33.5948 63.1621 33.0475 63.8336 33.0475H84.5016C85.1731 33.0475 85.7177 33.5948 85.7177 34.261V63.0344C85.7177 63.7006 85.1731 64.2478 84.5016 64.2478H63.8336Z"
      fill="#D5E6E3"
    />
    <path
      d="M84.5017 31.829H63.8337C62.4907 31.829 61.4042 32.9234 61.4042 34.2611V63.0346C61.4042 64.3775 62.4907 65.4667 63.8337 65.4667H84.5017C85.8447 65.4667 86.9338 64.3775 86.9338 63.0346V34.2611C86.9338 32.9234 85.8447 31.829 84.5017 31.829ZM84.5017 34.2611V63.0346H63.8337V34.2611H84.5017Z"
      fill="#D78103"
    />
    <path
      d="M72.9249 114.488V86.7346H91.6208L72.9249 114.488Z"
      fill="#E9F5F4"
    />
    <path d="M93.5965 114.488V86.7346H112.29L93.5965 114.488Z" fill="#E9F5F4" />
    <path
      d="M92.5858 116.925C91.9117 116.925 91.3698 116.383 91.3698 115.706V85.7166C91.3698 85.0478 91.9117 84.5058 92.5858 84.5058C93.2573 84.5058 93.7993 85.0478 93.7993 85.7166V115.706C93.7993 116.383 93.2573 116.925 92.5858 116.925Z"
      fill="#784129"
    />
    <path
      d="M128.077 141.258C128.077 142.332 127.203 143.207 126.124 143.207C125.047 143.207 124.173 142.332 124.173 141.258V106.862C124.173 105.785 125.047 104.913 126.124 104.913C127.203 104.913 128.077 105.785 128.077 106.862V141.258Z"
      fill="#885136"
    />
    <path
      d="M158.841 109.925C158.841 111.474 157.585 112.73 156.036 112.73H96.215C94.665 112.73 93.4106 111.474 93.4106 109.925V78.9075C93.4106 77.3559 94.665 76.1031 96.215 76.1031H156.036C157.585 76.1031 158.841 77.3559 158.841 78.9075V109.925Z"
      fill="#556477"
    />
    <path
      d="M156.049 106.071C156.049 107.618 154.795 108.875 153.247 108.875H99.0051C97.4565 108.875 96.2006 107.618 96.2006 106.071V82.7621C96.2006 81.2136 97.4565 79.9577 99.0051 79.9577H153.247C154.795 79.9577 156.049 81.2136 156.049 82.7621V106.071Z"
      fill="white"
    />
    <path
      d="M103.148 100.721V88.1181H107.474V89.7871H105.069V93.1372H107.303V94.8122H105.069V100.721H103.148Z"
      fill="#3C993A"
    />
    <path
      d="M110.8 98.7656C110.913 99.0567 111.142 99.203 111.491 99.203C111.84 99.203 112.068 99.0537 112.18 98.7565C112.288 98.4593 112.344 97.9471 112.344 97.2201V91.3476C112.344 90.7516 112.286 90.3172 112.175 90.0399C112.062 89.767 111.843 89.6299 111.517 89.6299C111.189 89.6299 110.96 89.767 110.829 90.0399C110.697 90.3172 110.633 90.7486 110.633 91.3415V97.2201C110.633 97.9593 110.688 98.476 110.8 98.7656ZM113.611 99.956C113.172 100.564 112.468 100.864 111.501 100.864C110.535 100.864 109.825 100.561 109.375 99.9499C108.923 99.3433 108.699 98.4257 108.699 97.2003V91.4329C108.699 89.1238 109.64 87.9685 111.527 87.9685C112.501 87.9685 113.202 88.2597 113.629 88.8465C114.056 89.4363 114.269 90.299 114.269 91.4329V97.2003C114.269 98.4288 114.05 99.3493 113.611 99.956Z"
      fill="#3C993A"
    />
    <path
      d="M117.937 93.282H118.702C118.946 93.282 119.126 93.2256 119.244 93.1189C119.361 93.0061 119.442 92.8186 119.487 92.5504C119.532 92.2821 119.556 91.8736 119.556 91.3265V91.2488C119.556 90.5644 119.498 90.1178 119.382 89.906C119.269 89.6987 119.004 89.5935 118.588 89.5935H117.937V93.282ZM118.544 94.8L117.93 94.7711V100.721H116.011V88.1181H119.183C119.841 88.1181 120.333 88.2507 120.658 88.5159C120.984 88.7812 121.197 89.15 121.3 89.6271C121.4 90.0995 121.454 90.7229 121.454 91.488C121.454 92.2516 121.371 92.8384 121.208 93.2378C121.048 93.6401 120.746 93.9099 120.307 94.0471C120.74 94.1248 121.045 94.4159 121.216 94.928C121.388 95.4401 121.475 96.504 121.475 98.1196C121.475 99.7337 121.498 100.602 121.546 100.721H119.626C119.579 100.627 119.556 99.1195 119.556 96.2022C119.556 95.6459 119.489 95.274 119.353 95.0896C119.221 94.9052 118.952 94.8092 118.544 94.8Z"
      fill="#3C993A"
    />
    <path
      d="M125.621 97.1759V96.0541H127.439V97.3192C127.439 98.0218 127.498 98.5156 127.619 98.7976C127.738 99.0811 127.962 99.2244 128.291 99.2244C128.622 99.2244 128.84 99.1085 128.948 98.8723C129.053 98.6406 129.108 98.2566 129.108 97.7262C129.108 97.2003 129.013 96.7385 128.821 96.3422C128.631 95.949 128.328 95.539 127.911 95.1077L126.982 94.149C126.547 93.6963 126.209 93.2223 125.968 92.7376C125.727 92.2499 125.607 91.6859 125.607 91.0458C125.607 90.0078 125.807 89.2336 126.208 88.7276C126.608 88.2215 127.299 87.9685 128.277 87.9685C129.256 87.9685 129.917 88.2627 130.265 88.8525C130.611 89.4424 130.783 90.302 130.783 91.4329V92.2133H129.015V91.311C129.015 90.7013 128.962 90.2639 128.858 89.9987C128.751 89.7335 128.55 89.5994 128.251 89.5994C127.953 89.5994 127.738 89.7015 127.607 89.8996C127.477 90.1023 127.412 90.4011 127.412 90.8019C127.412 91.2043 127.479 91.5259 127.611 91.7637C127.745 92.0014 127.986 92.3093 128.334 92.6812L129.373 93.803C129.893 94.3654 130.286 94.937 130.55 95.5146C130.817 96.0923 130.948 96.7232 130.948 97.4045C130.948 98.5842 130.751 99.456 130.353 100.018C129.958 100.581 129.263 100.864 128.274 100.864C127.282 100.864 126.595 100.552 126.203 99.924C125.814 99.296 125.621 98.3785 125.621 97.1759Z"
      fill="#3C993A"
    />
    <path
      d="M135.73 96.9323L134.886 90.6025H134.858L134.084 96.9323H135.73ZM131.778 100.721L133.577 88.1181H136.111L138.023 100.721H136.233L135.933 98.4732H133.898L133.627 100.721H131.778Z"
      fill="#3C993A"
    />
    <path
      d="M139.34 100.721V88.1181H141.259V99.0905H143.687V100.721H139.34Z"
      fill="#3C993A"
    />
    <path
      d="M144.79 100.721V88.1181H149.015V89.7734H146.709V93.4405H148.901V95.0561H146.709V99.0661H149.102V100.721H144.79Z"
      fill="#3C993A"
    />
    <path
      d="M81.451 53.3743C81.451 54.7331 80.3459 55.8382 78.9845 55.8382C77.623 55.8382 76.5206 54.7331 76.5206 53.3743V41.2003C76.5206 39.8362 77.623 38.7364 78.9845 38.7364C80.3459 38.7364 81.451 39.8362 81.451 41.2003V53.3743Z"
      fill="white"
    />
  </svg>