<svg width="511" height="340" viewBox="0 0 511 340" fill="none" xmlns="http://www.w3.org/2000/svg">
<path d="M0 340H511V3.05176e-05H0V340Z" fill="#DAE6F1"/>
<path d="M31.625 87.0791H113.484C113.484 87.0791 108.454 80.2567 104.639 80.5667C100.824 80.8768 98.5683 85.0187 93.8862 82.228C89.2034 79.4373 89.2034 74.9853 82.6129 74.9853C76.023 74.9853 71.6979 81.9546 65.3447 82.228C55.027 82.6707 45.3257 67.0776 31.625 87.0791Z" fill="white"/>
<path d="M401.447 67.0273H475.038C475.038 67.0273 470.516 60.8944 467.086 61.1732C463.656 61.452 461.629 65.1757 457.419 62.6665C453.21 60.158 453.21 56.1555 447.285 56.1555C441.36 56.1555 437.473 62.421 431.761 62.6665C422.485 63.065 413.764 49.0468 401.447 67.0273Z" fill="white"/>
<path d="M149.451 30.8442C149.451 37.4151 144.114 42.7422 137.529 42.7422C130.945 42.7422 125.607 37.4151 125.607 30.8442C125.607 24.2727 130.945 18.9456 137.529 18.9456C144.114 18.9456 149.451 24.2727 149.451 30.8442Z" fill="#F0C811"/>
<path d="M216.419 180.801H178.682V41.3049H216.419V180.801Z" fill="#81A0B5"/>
<path d="M190.359 171.094H186.926V51.326H190.359V171.094Z" fill="#DAE6F1"/>
<path d="M198.872 171.094H195.439V51.326H198.872V171.094Z" fill="#DAE6F1"/>
<path d="M207.386 171.094H203.953V51.326H207.386V171.094Z" fill="#DAE6F1"/>
<path d="M415.708 82.0402C415.708 87.2816 411.451 91.5303 406.199 91.5303C400.947 91.5303 396.689 87.2816 396.689 82.0402C396.689 76.7987 400.947 72.5494 406.199 72.5494C411.451 72.5494 415.708 76.7987 415.708 82.0402Z" fill="#496675"/>
<path d="M422.637 97.7246H389.758V80.0303H422.637V97.7246Z" fill="#81A0B5"/>
<path d="M432.392 203.99H379.137V90.8457H432.392V203.99Z" fill="#81A0B5"/>
<path d="M391.667 110.281H386.963V97.7244H391.667V110.281Z" fill="#DAE6F1"/>
<path d="M408.55 110.281H403.846V97.7244H408.55V110.281Z" fill="#DAE6F1"/>
<path d="M425.432 110.281H420.729V97.7244H425.432V110.281Z" fill="#DAE6F1"/>
<path d="M391.667 128.475H386.963V115.918H391.667V128.475Z" fill="#DAE6F1"/>
<path d="M408.55 128.475H403.846V115.918H408.55V128.475Z" fill="#DAE6F1"/>
<path d="M425.432 128.475H420.729V115.918H425.432V128.475Z" fill="#DAE6F1"/>
<path d="M391.667 146.667H386.963V134.11H391.667V146.667Z" fill="#DAE6F1"/>
<path d="M408.55 146.667H403.846V134.11H408.55V146.667Z" fill="#DAE6F1"/>
<path d="M425.432 146.667H420.729V134.11H425.432V146.667Z" fill="#DAE6F1"/>
<path d="M391.667 164.859H386.963V152.303H391.667V164.859Z" fill="#DAE6F1"/>
<path d="M408.55 164.859H403.846V152.303H408.55V164.859Z" fill="#DAE6F1"/>
<path d="M425.432 164.859H420.729V152.303H425.432V164.859Z" fill="#DAE6F1"/>
<path d="M434.602 174.827H376.301V168.52H434.602V174.827Z" fill="#BECED6"/>
<path d="M420.937 182.12H389.967V203.821H420.937V182.12Z" fill="#DAE6F1"/>
<path d="M112.252 100.884C112.252 106.126 107.995 110.375 102.743 110.375C97.4913 110.375 93.2344 106.126 93.2344 100.884C93.2344 95.6428 97.4913 91.3942 102.743 91.3942C107.995 91.3942 112.252 95.6428 112.252 100.884Z" fill="#496675"/>
<path d="M119.184 116.568H86.3047V98.8741H119.184V116.568Z" fill="#81A0B5"/>
<path d="M128.94 222.835H75.6836V109.69H128.94V222.835Z" fill="#81A0B5"/>
<path d="M88.2144 129.126H83.5098V116.568H88.2144V129.126Z" fill="#DAE6F1"/>
<path d="M105.097 129.126H100.393V116.568H105.097V129.126Z" fill="#DAE6F1"/>
<path d="M121.98 129.126H117.275V116.568H121.98V129.126Z" fill="#DAE6F1"/>
<path d="M88.2144 147.318H83.5098V134.761H88.2144V147.318Z" fill="#DAE6F1"/>
<path d="M105.097 147.318H100.393V134.761H105.097V147.318Z" fill="#DAE6F1"/>
<path d="M121.98 147.318H117.275V134.761H121.98V147.318Z" fill="#DAE6F1"/>
<path d="M88.2144 165.511H83.5098V152.954H88.2144V165.511Z" fill="#DAE6F1"/>
<path d="M105.097 165.511H100.393V152.954H105.097V165.511Z" fill="#DAE6F1"/>
<path d="M121.98 165.511H117.275V152.954H121.98V165.511Z" fill="#DAE6F1"/>
<path d="M88.2144 183.703H83.5098V171.146H88.2144V183.703Z" fill="#DAE6F1"/>
<path d="M105.097 183.703H100.393V171.146H105.097V183.703Z" fill="#DAE6F1"/>
<path d="M121.98 183.703H117.275V171.146H121.98V183.703Z" fill="#DAE6F1"/>
<path d="M131.149 193.671H72.8477V187.365H131.149V193.671Z" fill="#BECED6"/>
<path d="M117.481 200.964H86.5117V222.665H117.481V200.964Z" fill="#DAE6F1"/>
<path d="M76.6233 182.987H35.0703V246H76.6233V182.987Z" fill="#81A0B5"/>
<path d="M474.808 147.419H431.516V248.843H474.808V147.419Z" fill="#81A0B5"/>
<path d="M496.847 271.01H14.1543V231.135H496.847V271.01Z" fill="#81A0B5"/>
<path d="M125.506 271.01H60.7461V133.914H125.506V271.01Z" fill="#A7B7D4"/>
<path d="M152.975 271.01H125.508V133.914H152.975V271.01Z" fill="#4870B2"/>
<path d="M125.506 133.914H55.6152V127.211H125.506V133.914Z" fill="#2B333F"/>
<path d="M157.979 133.914H125.508V127.211H157.979V133.914Z" fill="#111416"/>
<path d="M84.1286 175.334V174.958H69.6754V158.853C69.6761 156.913 70.4631 155.159 71.7371 153.887C73.0119 152.615 74.7691 151.83 76.7136 151.83C78.6581 151.83 80.4153 152.615 81.6901 153.887C82.9642 155.159 83.7511 156.913 83.7518 158.853V175.334H84.1286H84.5053V158.853C84.5047 154.559 81.0169 151.078 76.7136 151.078C72.4103 151.078 68.9226 154.559 68.9219 158.853V175.71H84.5053V175.334H84.1286Z" fill="#DAE6F1"/>
<path d="M85.9326 176.49H67.4961V173.642H85.9326V176.49Z" fill="#2B333F"/>
<path d="M85.9326 178.203H67.4961V176.49H85.9326V178.203Z" fill="#92A6C2"/>
<path d="M111.976 175.334V174.958H97.5231V158.853C97.5231 156.913 98.31 155.159 99.5848 153.887C100.86 152.615 102.617 151.83 104.561 151.83C106.506 151.83 108.263 152.615 109.538 153.887C110.812 155.159 111.599 156.913 111.599 158.853V175.334H111.976H112.353V158.853C112.352 154.559 108.865 151.078 104.561 151.078C100.258 151.078 96.7695 154.559 96.7695 158.853V175.71H112.353V175.334H111.976Z" fill="#DAE6F1"/>
<path d="M113.78 176.49H95.3438V173.642H113.78V176.49Z" fill="#2B333F"/>
<path d="M113.78 178.203H95.3438V176.49H113.78V178.203Z" fill="#92A6C2"/>
<path d="M84.1286 209.993V209.616H69.6754V193.513C69.6761 191.572 70.4631 189.818 71.7371 188.546C73.0119 187.274 74.7691 186.489 76.7136 186.488C78.6581 186.489 80.4153 187.274 81.6901 188.546C82.9642 189.818 83.7511 191.572 83.7518 193.513V209.993H84.1286H84.5053V193.513C84.5047 189.218 81.0169 185.737 76.7136 185.736C72.4103 185.737 68.9226 189.218 68.9219 193.513V210.369H84.5053V209.993H84.1286Z" fill="#DAE6F1"/>
<path d="M85.9326 211.148H67.4961V208.3H85.9326V211.148Z" fill="#2B333F"/>
<path d="M85.9326 212.861H67.4961V211.149H85.9326V212.861Z" fill="#92A6C2"/>
<path d="M111.976 209.993V209.616H97.5231V193.513C97.5231 191.572 98.31 189.818 99.5848 188.546C100.86 187.274 102.617 186.489 104.561 186.488C106.506 186.489 108.263 187.274 109.538 188.546C110.812 189.818 111.599 191.572 111.599 193.513V209.993H111.976H112.353V193.513C112.352 189.218 108.865 185.737 104.561 185.736C100.258 185.737 96.7695 189.218 96.7695 193.513V210.369H112.353V209.993H111.976Z" fill="#DAE6F1"/>
<path d="M113.78 211.148H95.3438V208.3H113.78V211.148Z" fill="#2B333F"/>
<path d="M113.78 212.861H95.3438V211.149H113.78V212.861Z" fill="#92A6C2"/>
<path d="M80.9489 271.01V231.511H100.718V271.01H101.472V230.759H80.1953V271.01H80.9489Z" fill="#DAE6F1"/>
<path d="M207.962 271.01H143.201V117.254H207.962V271.01Z" fill="#A7B7D4"/>
<path d="M235.43 271.01H207.963V117.254H235.43V271.01Z" fill="#4870B2"/>
<path d="M207.961 117.255H138.07V110.552H207.961V117.255Z" fill="#2B333F"/>
<path d="M240.434 117.255H207.963V110.552H240.434V117.255Z" fill="#111416"/>
<path d="M166.585 156.054V155.678H152.132V139.574C152.132 137.633 152.919 135.879 154.193 134.607C155.468 133.336 157.225 132.55 159.171 132.55C161.115 132.55 162.872 133.336 164.147 134.607C165.421 135.879 166.208 137.633 166.208 139.574V156.054H166.585H166.962V139.574C166.962 135.279 163.474 131.798 159.171 131.798C154.867 131.798 151.379 135.279 151.379 139.574V156.43H166.962V156.054H166.585Z" fill="#DAE6F1"/>
<path d="M168.387 157.21H149.951V154.361H168.387V157.21Z" fill="#2B333F"/>
<path d="M168.387 158.922H149.951V157.21H168.387V158.922Z" fill="#92A6C2"/>
<path d="M194.431 156.054V155.678H179.978V139.574C179.978 137.633 180.765 135.879 182.039 134.607C183.314 133.336 185.071 132.55 187.016 132.55C188.961 132.55 190.717 133.336 191.993 134.607C193.267 135.879 194.054 137.633 194.054 139.574V156.054H194.431H194.807V139.574C194.807 135.279 191.319 131.798 187.016 131.798C182.712 131.798 179.225 135.279 179.225 139.574V156.43H194.807V156.054H194.431Z" fill="#DAE6F1"/>
<path d="M196.235 157.21H177.799V154.361H196.235V157.21Z" fill="#2B333F"/>
<path d="M196.235 158.922H177.799V157.21H196.235V158.922Z" fill="#92A6C2"/>
<path d="M166.585 190.712V190.336H152.132V174.232C152.132 172.291 152.919 170.537 154.193 169.265C155.468 167.993 157.225 167.208 159.171 167.208C161.115 167.208 162.872 167.993 164.147 169.265C165.421 170.537 166.208 172.291 166.208 174.232V190.712H166.585H166.962V174.232C166.962 169.936 163.474 166.456 159.171 166.456C154.867 166.456 151.379 169.936 151.379 174.232V191.088H166.962V190.712H166.585Z" fill="#DAE6F1"/>
<path d="M168.387 191.868H149.951V189.02H168.387V191.868Z" fill="#2B333F"/>
<path d="M168.387 193.581H149.951V191.868H168.387V193.581Z" fill="#92A6C2"/>
<path d="M194.431 190.712V190.336H179.978V174.232C179.978 172.291 180.765 170.537 182.039 169.265C183.314 167.993 185.071 167.208 187.016 167.208C188.961 167.208 190.717 167.993 191.993 169.265C193.267 170.537 194.054 172.291 194.054 174.232V190.712H194.431H194.807V174.232C194.807 169.936 191.319 166.456 187.016 166.456C182.712 166.456 179.225 169.936 179.225 174.232V191.088H194.807V190.712H194.431Z" fill="#DAE6F1"/>
<path d="M196.235 191.868H177.799V189.02H196.235V191.868Z" fill="#2B333F"/>
<path d="M196.235 193.581H177.799V191.868H196.235V193.581Z" fill="#92A6C2"/>
<path d="M166.585 225.37V224.994H152.132V208.89C152.132 206.949 152.919 205.196 154.193 203.923C155.468 202.651 157.225 201.866 159.171 201.866C161.115 201.866 162.872 202.651 164.147 203.923C165.421 205.196 166.208 206.949 166.208 208.89V225.37H166.585H166.962V208.89C166.962 204.595 163.474 201.114 159.171 201.114C154.867 201.114 151.379 204.595 151.379 208.89V225.746H166.962V225.37H166.585Z" fill="#DAE6F1"/>
<path d="M168.387 226.527H149.951V223.678H168.387V226.527Z" fill="#2B333F"/>
<path d="M168.387 228.239H149.951V226.527H168.387V228.239Z" fill="#92A6C2"/>
<path d="M194.431 225.37V224.994H179.978V208.89C179.978 206.949 180.765 205.195 182.039 203.923C183.314 202.651 185.071 201.866 187.016 201.866C188.96 201.866 190.717 202.651 191.993 203.923C193.267 205.196 194.054 206.949 194.054 208.89V225.37H194.431H194.807V208.89C194.807 204.595 191.319 201.114 187.016 201.114C182.712 201.114 179.225 204.595 179.225 208.89V225.746H194.807V225.37H194.431Z" fill="#DAE6F1"/>
<path d="M196.235 226.527H177.799V223.678H196.235V226.527Z" fill="#2B333F"/>
<path d="M196.235 228.239H177.799V226.527H196.235V228.239Z" fill="#92A6C2"/>
<path d="M207.962 98.5593H143.201V110.552H207.962V98.5593Z" fill="#A7B7D4"/>
<path d="M232.567 98.5593H208.055V110.552H232.567V98.5593Z" fill="#4870B2"/>
<path d="M187.015 80.289H168.387V98.8809H187.015V80.289Z" fill="#A7B7D4"/>
<path d="M232.566 80.289H186.92V98.8809H232.566V80.289Z" fill="#4870B2"/>
<path d="M232.566 271.01H322.657V59.1694H232.566V271.01Z" fill="#A7B7D4"/>
<path d="M368.572 271.01H322.656V59.1694H368.572V271.01Z" fill="#4870B2"/>
<path d="M322.656 59.1699H225.428V49.8451H322.656V59.1699Z" fill="#2B333F"/>
<path d="M375.533 59.1699H322.656V49.8451H375.533V59.1699Z" fill="#111416"/>
<path d="M242.236 100.573H257.066V76.693H242.236V100.573Z" fill="#DAE6F1"/>
<path d="M255.255 76.6934H254.783L254.982 76.4961L255.255 76.6934Z" fill="#D7DEEB"/>
<path d="M242.236 93.4307V89.0997L254.783 76.6932H255.255L257.066 77.9974L242.236 93.4307Z" fill="#EEF4F9"/>
<path d="M257.066 83.5254V80.5762L257.449 83.1269L257.066 83.5254Z" fill="#D7DEEB"/>
<path d="M242.619 98.5596V95.6077L257.065 80.5763V83.5255L242.619 98.5596Z" fill="#EEF4F9"/>
<path d="M242.874 99.6019H256.429V77.6644H242.874V99.6019ZM257.704 101.544H241.6V75.7223H257.704V101.544Z" fill="#5E7391"/>
<path d="M258.87 102.709H240.434V98.8813H258.87V102.709Z" fill="#2B333F"/>
<path d="M257.066 89.0996H242.236V87.4649H257.066V89.0996Z" fill="#5E7391"/>
<path d="M258.87 104.422H240.434V102.709H258.87V104.422Z" fill="#92A6C2"/>
<path d="M269.441 100.573H284.271V76.693H269.441V100.573Z" fill="#DAE6F1"/>
<path d="M282.46 76.6934H281.988L282.187 76.4961L282.46 76.6934Z" fill="#D7DEEB"/>
<path d="M269.441 93.4307V89.0997L281.988 76.6932H282.46L284.271 77.9974L269.441 93.4307Z" fill="#EEF4F9"/>
<path d="M284.273 83.5254V80.5762L284.656 83.1269L284.273 83.5254Z" fill="#D7DEEB"/>
<path d="M269.826 98.5596V95.6077L284.273 80.5763V83.5255L269.826 98.5596Z" fill="#EEF4F9"/>
<path d="M270.079 99.6019H283.635V77.6644H270.079V99.6019ZM284.909 101.544H268.805V75.7223H284.909V101.544Z" fill="#5E7391"/>
<path d="M286.077 102.709H267.641V98.8813H286.077V102.709Z" fill="#2B333F"/>
<path d="M284.271 89.0996H269.441V87.4649H284.271V89.0996Z" fill="#5E7391"/>
<path d="M286.077 104.422H267.641V102.709H286.077V104.422Z" fill="#92A6C2"/>
<path d="M296.648 100.573H311.478V76.693H296.648V100.573Z" fill="#DAE6F1"/>
<path d="M309.668 76.6934H309.195L309.395 76.4961L309.668 76.6934Z" fill="#D7DEEB"/>
<path d="M296.648 93.4307V89.0997L309.195 76.6932H309.667L311.478 77.9974L296.648 93.4307Z" fill="#EEF4F9"/>
<path d="M311.479 83.5254V80.5762L311.862 83.1269L311.479 83.5254Z" fill="#D7DEEB"/>
<path d="M297.031 98.5596V95.6077L311.478 80.5763V83.5255L297.031 98.5596Z" fill="#EEF4F9"/>
<path d="M297.286 99.6019H310.842V77.6644H297.286V99.6019ZM312.116 101.544H296.012V75.7223H312.116V101.544Z" fill="#5E7391"/>
<path d="M313.282 102.709H294.846V98.8813H313.282V102.709Z" fill="#2B333F"/>
<path d="M311.478 89.0996H296.648V87.4649H311.478V89.0996Z" fill="#5E7391"/>
<path d="M313.282 104.422H294.846V102.709H313.282V104.422Z" fill="#92A6C2"/>
<path d="M242.236 140.284H257.066V116.404H242.236V140.284Z" fill="#DAE6F1"/>
<path d="M255.255 116.404H254.781L254.981 116.207L255.255 116.404Z" fill="#D7DEEB"/>
<path d="M242.236 133.142V128.811L254.782 116.403H255.256L257.066 117.708L242.236 133.142Z" fill="#EEF4F9"/>
<path d="M257.066 123.236V120.286L257.449 122.837L257.066 123.236Z" fill="#D7DEEB"/>
<path d="M242.619 138.271V135.318L257.065 120.287V123.236L242.619 138.271Z" fill="#EEF4F9"/>
<path d="M242.874 139.313H256.429V117.375H242.874V139.313ZM257.704 141.255H241.6V115.433H257.704V141.255Z" fill="#5E7391"/>
<path d="M258.87 142.419H240.434V138.592H258.87V142.419Z" fill="#2B333F"/>
<path d="M257.066 128.812H242.236V127.177H257.066V128.812Z" fill="#5E7391"/>
<path d="M258.87 144.132H240.434V142.419H258.87V144.132Z" fill="#92A6C2"/>
<path d="M269.441 140.284H284.271V116.404H269.441V140.284Z" fill="#DAE6F1"/>
<path d="M282.462 116.404H281.988L282.188 116.207L282.462 116.404Z" fill="#D7DEEB"/>
<path d="M269.441 133.142V128.811L281.987 116.403H282.461L284.271 117.708L269.441 133.142Z" fill="#EEF4F9"/>
<path d="M284.273 123.236V120.286L284.656 122.837L284.273 123.236Z" fill="#D7DEEB"/>
<path d="M269.826 138.271V135.318L284.273 120.287V123.236L269.826 138.271Z" fill="#EEF4F9"/>
<path d="M270.079 139.313H283.635V117.375H270.079V139.313ZM284.909 141.255H268.805V115.433H284.909V141.255Z" fill="#5E7391"/>
<path d="M286.077 142.419H267.641V138.592H286.077V142.419Z" fill="#2B333F"/>
<path d="M284.271 128.811H269.441V127.176H284.271V128.811Z" fill="#5E7391"/>
<path d="M286.077 144.132H267.641V142.419H286.077V144.132Z" fill="#92A6C2"/>
<path d="M296.648 140.284H311.478V116.404H296.648V140.284Z" fill="#DAE6F1"/>
<path d="M309.668 116.403H309.195L309.395 116.206L309.668 116.403Z" fill="#D7DEEB"/>
<path d="M296.648 133.142V128.811L309.195 116.403H309.667L311.478 117.708L296.648 133.142Z" fill="#EEF4F9"/>
<path d="M311.479 123.236V120.286L311.862 122.837L311.479 123.236Z" fill="#D7DEEB"/>
<path d="M297.031 138.271V135.318L311.478 120.287V123.236L297.031 138.271Z" fill="#EEF4F9"/>
<path d="M297.286 139.313H310.842V117.375H297.286V139.313ZM312.116 141.255H296.012V115.433H312.116V141.255Z" fill="#5E7391"/>
<path d="M313.282 142.419H294.846V138.592H313.282V142.419Z" fill="#2B333F"/>
<path d="M311.478 128.811H296.648V127.176H311.478V128.811Z" fill="#5E7391"/>
<path d="M313.282 144.132H294.846V142.419H313.282V144.132Z" fill="#92A6C2"/>
<path d="M242.236 179.995H257.066V156.115H242.236V179.995Z" fill="#DAE6F1"/>
<path d="M255.255 156.114H254.783L254.982 155.918L255.255 156.114Z" fill="#D7DEEB"/>
<path d="M242.236 172.853V168.522L254.783 156.114H255.255L257.066 157.419L242.236 172.853Z" fill="#EEF4F9"/>
<path d="M257.066 162.947V159.998L257.449 162.549L257.066 162.947Z" fill="#D7DEEB"/>
<path d="M242.619 177.981V175.03L257.065 159.998V162.947L242.619 177.981Z" fill="#EEF4F9"/>
<path d="M242.874 179.024H256.429V157.086H242.874V179.024ZM257.704 180.966H241.6V155.144H257.704V180.966Z" fill="#5E7391"/>
<path d="M258.87 182.131H240.434V178.303H258.87V182.131Z" fill="#2B333F"/>
<path d="M257.066 168.521H242.236V166.887H257.066V168.521Z" fill="#5E7391"/>
<path d="M258.87 183.843H240.434V182.131H258.87V183.843Z" fill="#92A6C2"/>
<path d="M269.441 179.994H284.271V156.114H269.441V179.994Z" fill="#DAE6F1"/>
<path d="M282.46 156.114H281.988L282.187 155.918L282.46 156.114Z" fill="#D7DEEB"/>
<path d="M269.441 172.853V168.522L281.988 156.114H282.46L284.271 157.419L269.441 172.853Z" fill="#EEF4F9"/>
<path d="M284.273 162.947V159.998L284.656 162.549L284.273 162.947Z" fill="#D7DEEB"/>
<path d="M269.826 177.981V175.03L284.273 159.998V162.947L269.826 177.981Z" fill="#EEF4F9"/>
<path d="M270.079 179.024H283.635V157.086H270.079V179.024ZM284.909 180.966H268.805V155.144H284.909V180.966Z" fill="#5E7391"/>
<path d="M286.077 182.131H267.641V178.303H286.077V182.131Z" fill="#2B333F"/>
<path d="M284.271 168.521H269.441V166.887H284.271V168.521Z" fill="#5E7391"/>
<path d="M286.077 183.843H267.641V182.131H286.077V183.843Z" fill="#92A6C2"/>
<path d="M296.648 179.995H311.478V156.115H296.648V179.995Z" fill="#DAE6F1"/>
<path d="M309.668 156.114H309.195L309.395 155.918L309.668 156.114Z" fill="#D7DEEB"/>
<path d="M296.648 172.853V168.522L309.195 156.114H309.667L311.478 157.419L296.648 172.853Z" fill="#EEF4F9"/>
<path d="M311.479 162.947V159.998L311.862 162.549L311.479 162.947Z" fill="#D7DEEB"/>
<path d="M297.031 177.981V175.03L311.478 159.998V162.947L297.031 177.981Z" fill="#EEF4F9"/>
<path d="M297.286 179.024H310.842V157.086H297.286V179.024ZM312.116 180.966H296.012V155.144H312.116V180.966Z" fill="#5E7391"/>
<path d="M313.282 182.131H294.846V178.303H313.282V182.131Z" fill="#2B333F"/>
<path d="M311.478 168.521H296.648V166.887H311.478V168.521Z" fill="#5E7391"/>
<path d="M313.282 183.843H294.846V182.131H313.282V183.843Z" fill="#92A6C2"/>
<path d="M242.236 219.706H257.066V195.825H242.236V219.706Z" fill="#DAE6F1"/>
<path d="M255.255 195.825H254.783L254.982 195.629L255.255 195.825Z" fill="#D7DEEB"/>
<path d="M242.236 212.563V208.233L254.783 195.825H255.255L257.066 197.13L242.236 212.563Z" fill="#EEF4F9"/>
<path d="M257.066 202.657V199.707L257.449 202.258L257.066 202.657Z" fill="#D7DEEB"/>
<path d="M242.619 217.692V214.74L257.065 199.708V202.658L242.619 217.692Z" fill="#EEF4F9"/>
<path d="M242.874 218.735H256.429V196.797H242.874V218.735ZM257.704 220.677H241.6V194.855H257.704V220.677Z" fill="#5E7391"/>
<path d="M258.87 221.841H240.434V218.013H258.87V221.841Z" fill="#2B333F"/>
<path d="M257.066 208.233H242.236V206.598H257.066V208.233Z" fill="#5E7391"/>
<path d="M258.87 223.554H240.434V221.841H258.87V223.554Z" fill="#92A6C2"/>
<path d="M269.441 219.706H284.271V195.825H269.441V219.706Z" fill="#DAE6F1"/>
<path d="M282.46 195.825H281.988L282.187 195.629L282.46 195.825Z" fill="#D7DEEB"/>
<path d="M269.441 212.564V208.234L281.988 195.826H282.46L284.271 197.131L269.441 212.564Z" fill="#EEF4F9"/>
<path d="M284.273 202.657V199.707L284.656 202.258L284.273 202.657Z" fill="#D7DEEB"/>
<path d="M269.826 217.692V214.74L284.273 199.708V202.658L269.826 217.692Z" fill="#EEF4F9"/>
<path d="M270.079 218.734H283.635V196.796H270.079V218.734ZM284.909 220.676H268.805V194.854H284.909V220.676Z" fill="#5E7391"/>
<path d="M286.077 221.841H267.641V218.013H286.077V221.841Z" fill="#2B333F"/>
<path d="M284.271 208.233H269.441V206.598H284.271V208.233Z" fill="#5E7391"/>
<path d="M286.077 223.554H267.641V221.841H286.077V223.554Z" fill="#92A6C2"/>
<path d="M296.648 219.706H311.478V195.825H296.648V219.706Z" fill="#DAE6F1"/>
<path d="M309.667 195.825H309.195L309.394 195.629L309.667 195.825Z" fill="#D7DEEB"/>
<path d="M296.648 212.563V208.233L309.195 195.825H309.667L311.478 197.13L296.648 212.563Z" fill="#EEF4F9"/>
<path d="M311.479 202.657V199.707L311.862 202.258L311.479 202.657Z" fill="#D7DEEB"/>
<path d="M297.031 217.692V214.74L311.478 199.708V202.658L297.031 217.692Z" fill="#EEF4F9"/>
<path d="M297.286 218.734H310.842V196.796H297.286V218.734ZM312.116 220.676H296.012V194.854H312.116V220.676Z" fill="#5E7391"/>
<path d="M313.282 221.841H294.846V218.013H313.282V221.841Z" fill="#2B333F"/>
<path d="M311.478 208.233H296.648V206.598H311.478V208.233Z" fill="#5E7391"/>
<path d="M313.282 223.554H294.846V221.841H313.282V223.554Z" fill="#92A6C2"/>
<path d="M261.558 271.01V240.888H287.605V271.01H288.358V240.136H260.805V271.01H261.558Z" fill="#DAE6F1"/>
<path d="M422.007 271.01H357.246V117.254H422.007V271.01Z" fill="#A7B7D4"/>
<path d="M449.475 271.01H422.008V117.254H449.475V271.01Z" fill="#4870B2"/>
<path d="M422.008 117.255H352.117V110.552H422.008V117.255Z" fill="#2B333F"/>
<path d="M454.479 117.255H422.008V110.552H454.479V117.255Z" fill="#111416"/>
<path d="M380.63 156.054V155.678H366.177V139.574C366.177 137.633 366.964 135.879 368.238 134.607C369.513 133.336 371.27 132.55 373.216 132.55C375.159 132.55 376.917 133.336 378.192 134.607C379.466 135.879 380.253 137.633 380.253 139.574V156.054H380.63H381.007V139.574C381.007 135.279 377.518 131.798 373.216 131.798C368.912 131.798 365.424 135.279 365.424 139.574V156.43H381.007V156.054H380.63Z" fill="#DAE6F1"/>
<path d="M382.432 157.21H363.996V154.361H382.432V157.21Z" fill="#2B333F"/>
<path d="M382.432 158.922H363.996V157.21H382.432V158.922Z" fill="#92A6C2"/>
<path d="M408.476 156.054V155.678H394.023V139.574C394.023 137.633 394.81 135.879 396.084 134.607C397.359 133.336 399.116 132.55 401.061 132.55C403.005 132.55 404.762 133.336 406.038 134.607C407.312 135.879 408.099 137.633 408.099 139.574V156.054H408.476H408.852V139.574C408.852 135.279 405.364 131.798 401.061 131.798C396.757 131.798 393.27 135.279 393.27 139.574V156.43H408.852V156.054H408.476Z" fill="#DAE6F1"/>
<path d="M410.279 157.21H391.842V154.361H410.279V157.21Z" fill="#2B333F"/>
<path d="M410.279 158.922H391.842V157.21H410.279V158.922Z" fill="#92A6C2"/>
<path d="M380.63 190.712V190.336H366.177V174.232C366.177 172.291 366.964 170.537 368.238 169.265C369.513 167.993 371.27 167.208 373.216 167.208C375.159 167.208 376.917 167.993 378.192 169.265C379.466 170.537 380.253 172.291 380.253 174.232V190.712H380.63H381.007V174.232C381.007 169.936 377.518 166.456 373.216 166.456C368.912 166.456 365.424 169.936 365.424 174.232V191.088H381.007V190.712H380.63Z" fill="#DAE6F1"/>
<path d="M382.432 191.868H363.996V189.02H382.432V191.868Z" fill="#2B333F"/>
<path d="M382.432 193.581H363.996V191.868H382.432V193.581Z" fill="#92A6C2"/>
<path d="M408.476 190.712V190.336H394.023V174.232C394.023 172.291 394.81 170.537 396.084 169.265C397.359 167.993 399.116 167.208 401.061 167.208C403.005 167.208 404.762 167.993 406.038 169.265C407.312 170.537 408.099 172.291 408.099 174.232V190.712H408.476H408.852V174.232C408.852 169.936 405.364 166.456 401.061 166.456C396.757 166.456 393.27 169.936 393.27 174.232V191.088H408.852V190.712H408.476Z" fill="#DAE6F1"/>
<path d="M410.279 191.868H391.842V189.02H410.279V191.868Z" fill="#2B333F"/>
<path d="M410.279 193.581H391.842V191.868H410.279V193.581Z" fill="#92A6C2"/>
<path d="M380.63 225.37V224.994H366.177V208.89C366.177 206.949 366.964 205.196 368.238 203.923C369.513 202.651 371.27 201.866 373.216 201.866C375.159 201.866 376.917 202.651 378.192 203.923C379.466 205.196 380.253 206.949 380.253 208.89V225.37H380.63H381.007V208.89C381.007 204.595 377.518 201.114 373.216 201.114C368.912 201.114 365.424 204.595 365.424 208.89V225.746H381.007V225.37H380.63Z" fill="#DAE6F1"/>
<path d="M382.432 226.527H363.996V223.678H382.432V226.527Z" fill="#2B333F"/>
<path d="M382.432 228.239H363.996V226.527H382.432V228.239Z" fill="#92A6C2"/>
<path d="M408.476 225.37V224.994H394.023V208.89C394.023 206.949 394.81 205.196 396.084 203.923C397.359 202.651 399.116 201.866 401.061 201.866C403.005 201.866 404.762 202.651 406.038 203.923C407.312 205.196 408.099 206.949 408.099 208.89V225.37H408.476H408.852V208.89C408.852 204.595 405.364 201.114 401.061 201.114C396.757 201.114 393.27 204.595 393.27 208.89V225.746H408.852V225.37H408.476Z" fill="#DAE6F1"/>
<path d="M410.279 226.527H391.842V223.678H410.279V226.527Z" fill="#2B333F"/>
<path d="M410.279 228.239H391.842V226.527H410.279V228.239Z" fill="#92A6C2"/>
<path d="M402.359 256.497C395.719 256.497 390.336 251.125 390.336 244.498V225.807C390.336 219.18 395.719 213.808 402.359 213.808C409 213.808 414.383 219.18 414.383 225.807V244.498C414.383 251.125 409 256.497 402.359 256.497Z" fill="white"/>
<path d="M401.871 268.335H402.847V226.296H401.871V268.335Z" fill="#2B333F"/>
<path d="M402.713 241.054L408.921 234.489L408.212 233.821L402.004 240.386" fill="#2B333F"/>
<path d="M483.188 220.746C483.188 232.588 473.569 242.188 461.703 242.188C449.838 242.188 440.219 232.588 440.219 220.746C440.219 208.904 449.838 199.304 461.703 199.304C473.569 199.304 483.188 208.904 483.188 220.746Z" fill="#9ADB7C"/>
<path d="M461.217 265.731H462.192V213.295H461.217V265.731Z" fill="#2B333F"/>
<path d="M462.059 228.053L468.267 221.488L467.557 220.82L461.35 227.385" fill="#2B333F"/>
<path d="M82.231 225.368C82.231 237.211 72.6119 246.811 60.7463 246.811C48.8808 246.811 39.2617 237.211 39.2617 225.368C39.2617 213.526 48.8808 203.926 60.7463 203.926C72.6119 203.926 82.231 213.526 82.231 225.368Z" fill="#9ADB7C"/>
<path d="M60.2578 270.354H61.233V217.916H60.2578V270.354Z" fill="#2B333F"/>
<path d="M61.0999 232.674L67.3075 226.109L66.5982 225.441L60.3906 232.006" fill="#2B333F"/>
<path d="M125.507 259.173C118.867 259.173 113.484 253.8 113.484 247.173V228.483C113.484 221.856 118.867 216.482 125.507 216.482C132.147 216.482 137.531 221.856 137.531 228.483V247.173C137.531 253.8 132.147 259.173 125.507 259.173Z" fill="white"/>
<path d="M125.018 271.01H125.993V228.971H125.018V271.01Z" fill="#2B333F"/>
<path d="M125.861 243.729L132.069 237.164L131.359 236.496L125.152 243.06" fill="#2B333F"/>
<path d="M357.246 256.501C348.652 256.501 341.531 262.791 340.252 271.01H374.24C372.96 262.791 365.839 256.501 357.246 256.501Z" fill="#9ADB7C"/>
<path d="M39.2615 256.501C30.6677 256.501 23.547 262.791 22.2676 271.01H56.2555C54.9761 262.791 47.8554 256.501 39.2615 256.501Z" fill="#9ADB7C"/>
<path d="M461.705 256.501C453.111 256.501 445.99 262.791 444.711 271.01H478.699C477.42 262.791 470.299 256.501 461.705 256.501Z" fill="#9ADB7C"/>
<path d="M62.4145 262.379C57.3021 262.379 53.0659 266.121 52.3047 271.01H72.5245C71.7635 266.121 67.5272 262.379 62.4145 262.379Z" fill="#9ADB7C"/>
<path d="M143.201 262.379C138.089 262.379 133.853 266.121 133.092 271.01H153.312C152.55 266.121 148.314 262.379 143.201 262.379Z" fill="#9ADB7C"/>
<path d="M409.109 261.001C403.181 261.001 398.269 265.341 397.387 271.01H420.831C419.949 265.341 415.037 261.001 409.109 261.001Z" fill="#9ADB7C"/>
<path d="M511 270.69H0V340H511V270.69Z" fill="#DAE6F1"/>
<g filter="url(#filter0_d_4037_946)">
<path d="M511 270.691H0V286.854H511V270.691Z" fill="#B9C9E0"/>
</g>
<g filter="url(#filter1_d_4037_946)">
<path d="M189.289 316.393L312.939 315.6C318.978 315.536 323.822 310.599 323.757 304.571L323.794 135.589C323.731 129.562 318.783 124.728 312.744 124.792L189.094 125.585C183.055 125.649 178.211 130.587 178.275 136.614L178.238 305.596C178.302 311.623 183.25 316.457 189.289 316.393Z" fill="#1C1C1C"/>
</g>
<path d="M191.836 310.272L310.299 309.524C315.011 309.474 318.791 305.621 318.74 300.918L318.809 138.357C318.759 133.654 314.898 129.882 310.186 129.932L191.722 130.681C187.01 130.73 183.231 134.583 183.28 139.286L183.213 301.848C183.263 306.551 187.124 310.322 191.836 310.272Z" fill="white"/>
<mask id="mask0_4037_946" style="mask-type:luminance" maskUnits="userSpaceOnUse" x="183" y="129" width="136" height="182">
<path d="M191.836 310.272L310.299 309.524C315.011 309.474 318.791 305.621 318.74 300.918L318.809 138.357C318.759 133.654 314.898 129.882 310.186 129.932L191.722 130.681C187.01 130.73 183.231 134.583 183.281 139.287L183.213 301.848C183.263 306.55 187.124 310.322 191.836 310.272Z" fill="white"/>
</mask>
<g mask="url(#mask0_4037_946)">
<g filter="url(#filter2_d_4037_946)">
<path d="M299.296 208H202.705C200.107 208 198 206.314 198 204.232V184.769C198 182.687 200.107 181 202.705 181H299.296C301.894 181 304 182.687 304 184.769V204.232C304 206.314 301.894 208 299.296 208Z" fill="#148B16"/>
</g>
<path d="M208.996 199V190.6H212.632C213.384 190.6 214.032 190.724 214.576 190.972C215.12 191.212 215.54 191.56 215.836 192.016C216.132 192.472 216.28 193.016 216.28 193.648C216.28 194.272 216.132 194.812 215.836 195.268C215.54 195.724 215.12 196.076 214.576 196.324C214.032 196.564 213.384 196.684 212.632 196.684H210.076L210.94 195.808V199H208.996ZM210.94 196.024L210.076 195.1H212.524C213.124 195.1 213.572 194.972 213.868 194.716C214.164 194.46 214.312 194.104 214.312 193.648C214.312 193.184 214.164 192.824 213.868 192.568C213.572 192.312 213.124 192.184 212.524 192.184H210.076L210.94 191.26V196.024ZM221.865 199.144C221.201 199.144 220.585 199.036 220.017 198.82C219.457 198.604 218.969 198.3 218.553 197.908C218.145 197.516 217.825 197.056 217.593 196.528C217.369 196 217.257 195.424 217.257 194.8C217.257 194.176 217.369 193.6 217.593 193.072C217.825 192.544 218.149 192.084 218.565 191.692C218.981 191.3 219.469 190.996 220.029 190.78C220.589 190.564 221.197 190.456 221.853 190.456C222.517 190.456 223.125 190.564 223.677 190.78C224.237 190.996 224.721 191.3 225.129 191.692C225.545 192.084 225.869 192.544 226.101 193.072C226.333 193.592 226.449 194.168 226.449 194.8C226.449 195.424 226.333 196.004 226.101 196.54C225.869 197.068 225.545 197.528 225.129 197.92C224.721 198.304 224.237 198.604 223.677 198.82C223.125 199.036 222.521 199.144 221.865 199.144ZM221.853 197.488C222.229 197.488 222.573 197.424 222.885 197.296C223.205 197.168 223.485 196.984 223.725 196.744C223.965 196.504 224.149 196.22 224.277 195.892C224.413 195.564 224.481 195.2 224.481 194.8C224.481 194.4 224.413 194.036 224.277 193.708C224.149 193.38 223.965 193.096 223.725 192.856C223.493 192.616 223.217 192.432 222.897 192.304C222.577 192.176 222.229 192.112 221.853 192.112C221.477 192.112 221.129 192.176 220.809 192.304C220.497 192.432 220.221 192.616 219.981 192.856C219.741 193.096 219.553 193.38 219.417 193.708C219.289 194.036 219.225 194.4 219.225 194.8C219.225 195.192 219.289 195.556 219.417 195.892C219.553 196.22 219.737 196.504 219.969 196.744C220.209 196.984 220.489 197.168 220.809 197.296C221.129 197.424 221.477 197.488 221.853 197.488ZM230.67 199.144C229.998 199.144 229.354 199.056 228.738 198.88C228.122 198.696 227.626 198.46 227.25 198.172L227.91 196.708C228.27 196.964 228.694 197.176 229.182 197.344C229.678 197.504 230.178 197.584 230.682 197.584C231.066 197.584 231.374 197.548 231.606 197.476C231.846 197.396 232.022 197.288 232.134 197.152C232.246 197.016 232.302 196.86 232.302 196.684C232.302 196.46 232.214 196.284 232.038 196.156C231.862 196.02 231.63 195.912 231.342 195.832C231.054 195.744 230.734 195.664 230.382 195.592C230.038 195.512 229.69 195.416 229.338 195.304C228.994 195.192 228.678 195.048 228.39 194.872C228.102 194.696 227.866 194.464 227.682 194.176C227.506 193.888 227.418 193.52 227.418 193.072C227.418 192.592 227.546 192.156 227.802 191.764C228.066 191.364 228.458 191.048 228.978 190.816C229.506 190.576 230.166 190.456 230.958 190.456C231.486 190.456 232.006 190.52 232.518 190.648C233.03 190.768 233.482 190.952 233.874 191.2L233.274 192.676C232.882 192.452 232.49 192.288 232.098 192.184C231.706 192.072 231.322 192.016 230.946 192.016C230.57 192.016 230.262 192.06 230.022 192.148C229.782 192.236 229.61 192.352 229.506 192.496C229.402 192.632 229.35 192.792 229.35 192.976C229.35 193.192 229.438 193.368 229.614 193.504C229.79 193.632 230.022 193.736 230.31 193.816C230.598 193.896 230.914 193.976 231.258 194.056C231.61 194.136 231.958 194.228 232.302 194.332C232.654 194.436 232.974 194.576 233.262 194.752C233.55 194.928 233.782 195.16 233.958 195.448C234.142 195.736 234.234 196.1 234.234 196.54C234.234 197.012 234.102 197.444 233.838 197.836C233.574 198.228 233.178 198.544 232.65 198.784C232.13 199.024 231.47 199.144 230.67 199.144ZM237.185 199V192.184H234.497V190.6H241.817V192.184H239.129V199H237.185ZM246.262 199V190.6H248.206V197.416H252.418V199H246.262ZM253.504 199V190.6H255.448V199H253.504ZM260.201 199.144C259.529 199.144 258.885 199.056 258.269 198.88C257.653 198.696 257.157 198.46 256.781 198.172L257.441 196.708C257.801 196.964 258.225 197.176 258.713 197.344C259.209 197.504 259.709 197.584 260.213 197.584C260.597 197.584 260.905 197.548 261.137 197.476C261.377 197.396 261.553 197.288 261.665 197.152C261.777 197.016 261.833 196.86 261.833 196.684C261.833 196.46 261.745 196.284 261.569 196.156C261.393 196.02 261.161 195.912 260.873 195.832C260.585 195.744 260.265 195.664 259.913 195.592C259.569 195.512 259.221 195.416 258.869 195.304C258.525 195.192 258.209 195.048 257.921 194.872C257.633 194.696 257.397 194.464 257.213 194.176C257.037 193.888 256.949 193.52 256.949 193.072C256.949 192.592 257.077 192.156 257.333 191.764C257.597 191.364 257.989 191.048 258.509 190.816C259.037 190.576 259.697 190.456 260.489 190.456C261.017 190.456 261.537 190.52 262.049 190.648C262.561 190.768 263.013 190.952 263.405 191.2L262.805 192.676C262.413 192.452 262.021 192.288 261.629 192.184C261.237 192.072 260.853 192.016 260.477 192.016C260.101 192.016 259.793 192.06 259.553 192.148C259.313 192.236 259.141 192.352 259.037 192.496C258.933 192.632 258.881 192.792 258.881 192.976C258.881 193.192 258.969 193.368 259.145 193.504C259.321 193.632 259.553 193.736 259.841 193.816C260.129 193.896 260.445 193.976 260.789 194.056C261.141 194.136 261.489 194.228 261.833 194.332C262.185 194.436 262.505 194.576 262.793 194.752C263.081 194.928 263.313 195.16 263.489 195.448C263.673 195.736 263.765 196.1 263.765 196.54C263.765 197.012 263.633 197.444 263.369 197.836C263.105 198.228 262.709 198.544 262.181 198.784C261.661 199.024 261.001 199.144 260.201 199.144ZM266.716 199V192.184H264.028V190.6H271.348V192.184H268.66V199H266.716ZM272.394 199V190.6H274.338V199H272.394ZM276.332 199V190.6H277.94L282.896 196.648H282.116V190.6H284.036V199H282.44L277.472 192.952H278.252V199H276.332ZM290.079 199.144C289.415 199.144 288.803 199.04 288.243 198.832C287.691 198.616 287.207 198.312 286.791 197.92C286.383 197.528 286.063 197.068 285.831 196.54C285.607 196.012 285.495 195.432 285.495 194.8C285.495 194.168 285.607 193.588 285.831 193.06C286.063 192.532 286.387 192.072 286.803 191.68C287.219 191.288 287.707 190.988 288.267 190.78C288.827 190.564 289.443 190.456 290.115 190.456C290.859 190.456 291.527 190.58 292.119 190.828C292.719 191.076 293.223 191.436 293.631 191.908L292.383 193.06C292.079 192.74 291.747 192.504 291.387 192.352C291.027 192.192 290.635 192.112 290.211 192.112C289.803 192.112 289.431 192.176 289.095 192.304C288.759 192.432 288.467 192.616 288.219 192.856C287.979 193.096 287.791 193.38 287.655 193.708C287.527 194.036 287.463 194.4 287.463 194.8C287.463 195.192 287.527 195.552 287.655 195.88C287.791 196.208 287.979 196.496 288.219 196.744C288.467 196.984 288.755 197.168 289.083 197.296C289.419 197.424 289.787 197.488 290.187 197.488C290.571 197.488 290.943 197.428 291.303 197.308C291.671 197.18 292.027 196.968 292.371 196.672L293.475 198.076C293.019 198.42 292.487 198.684 291.879 198.868C291.279 199.052 290.679 199.144 290.079 199.144ZM291.699 197.824V194.668H293.475V198.076L291.699 197.824Z" fill="white"/>
</g>
<path d="M203.092 226V219.4C203.092 218.672 203.308 218.092 203.74 217.66C204.172 217.22 204.788 217 205.588 217C205.86 217 206.12 217.028 206.368 217.084C206.624 217.14 206.84 217.228 207.016 217.348L206.524 218.704C206.42 218.632 206.304 218.576 206.176 218.536C206.048 218.496 205.912 218.476 205.768 218.476C205.496 218.476 205.284 218.556 205.132 218.716C204.988 218.868 204.916 219.1 204.916 219.412V220.012L204.964 220.816V226H203.092ZM202.096 221.128V219.688H206.572V221.128H202.096ZM210.495 226.096C209.807 226.096 209.195 225.952 208.659 225.664C208.131 225.376 207.711 224.984 207.399 224.488C207.095 223.984 206.943 223.412 206.943 222.772C206.943 222.124 207.095 221.552 207.399 221.056C207.711 220.552 208.131 220.16 208.659 219.88C209.195 219.592 209.807 219.448 210.495 219.448C211.175 219.448 211.783 219.592 212.319 219.88C212.855 220.16 213.275 220.548 213.579 221.044C213.883 221.54 214.035 222.116 214.035 222.772C214.035 223.412 213.883 223.984 213.579 224.488C213.275 224.984 212.855 225.376 212.319 225.664C211.783 225.952 211.175 226.096 210.495 226.096ZM210.495 224.56C210.807 224.56 211.087 224.488 211.335 224.344C211.583 224.2 211.779 223.996 211.923 223.732C212.067 223.46 212.139 223.14 212.139 222.772C212.139 222.396 212.067 222.076 211.923 221.812C211.779 221.548 211.583 221.344 211.335 221.2C211.087 221.056 210.807 220.984 210.495 220.984C210.183 220.984 209.903 221.056 209.655 221.2C209.407 221.344 209.207 221.548 209.055 221.812C208.911 222.076 208.839 222.396 208.839 222.772C208.839 223.14 208.911 223.46 209.055 223.732C209.207 223.996 209.407 224.2 209.655 224.344C209.903 224.488 210.183 224.56 210.495 224.56ZM215.286 226V219.544H217.074V221.368L216.822 220.84C217.014 220.384 217.322 220.04 217.746 219.808C218.17 219.568 218.686 219.448 219.294 219.448V221.176C219.214 221.168 219.142 221.164 219.078 221.164C219.014 221.156 218.946 221.152 218.874 221.152C218.362 221.152 217.946 221.3 217.626 221.596C217.314 221.884 217.158 222.336 217.158 222.952V226H215.286ZM224.08 226V219.4C224.08 218.672 224.296 218.092 224.728 217.66C225.16 217.22 225.776 217 226.576 217C226.848 217 227.108 217.028 227.356 217.084C227.612 217.14 227.828 217.228 228.004 217.348L227.512 218.704C227.408 218.632 227.292 218.576 227.164 218.536C227.036 218.496 226.9 218.476 226.756 218.476C226.484 218.476 226.272 218.556 226.12 218.716C225.976 218.868 225.904 219.1 225.904 219.412V220.012L225.952 220.816V226H224.08ZM223.084 221.128V219.688H227.56V221.128H223.084ZM228.54 226V219.544H230.328V221.368L230.076 220.84C230.268 220.384 230.576 220.04 231 219.808C231.424 219.568 231.94 219.448 232.548 219.448V221.176C232.468 221.168 232.396 221.164 232.332 221.164C232.268 221.156 232.2 221.152 232.128 221.152C231.616 221.152 231.2 221.3 230.88 221.596C230.568 221.884 230.412 222.336 230.412 222.952V226H228.54ZM236.818 226.096C236.082 226.096 235.434 225.952 234.874 225.664C234.322 225.376 233.894 224.984 233.59 224.488C233.286 223.984 233.134 223.412 233.134 222.772C233.134 222.124 233.282 221.552 233.578 221.056C233.882 220.552 234.294 220.16 234.814 219.88C235.334 219.592 235.922 219.448 236.578 219.448C237.21 219.448 237.778 219.584 238.282 219.856C238.794 220.12 239.198 220.504 239.494 221.008C239.79 221.504 239.938 222.1 239.938 222.796C239.938 222.868 239.934 222.952 239.926 223.048C239.918 223.136 239.91 223.22 239.902 223.3H234.658V222.208H238.918L238.198 222.532C238.198 222.196 238.13 221.904 237.994 221.656C237.858 221.408 237.67 221.216 237.43 221.08C237.19 220.936 236.91 220.864 236.59 220.864C236.27 220.864 235.986 220.936 235.738 221.08C235.498 221.216 235.31 221.412 235.174 221.668C235.038 221.916 234.97 222.212 234.97 222.556V222.844C234.97 223.196 235.046 223.508 235.198 223.78C235.358 224.044 235.578 224.248 235.858 224.392C236.146 224.528 236.482 224.596 236.866 224.596C237.21 224.596 237.51 224.544 237.766 224.44C238.03 224.336 238.27 224.18 238.486 223.972L239.482 225.052C239.186 225.388 238.814 225.648 238.366 225.832C237.918 226.008 237.402 226.096 236.818 226.096ZM244.388 226.096C243.652 226.096 243.004 225.952 242.444 225.664C241.892 225.376 241.464 224.984 241.16 224.488C240.856 223.984 240.704 223.412 240.704 222.772C240.704 222.124 240.852 221.552 241.148 221.056C241.452 220.552 241.864 220.16 242.384 219.88C242.904 219.592 243.492 219.448 244.148 219.448C244.78 219.448 245.348 219.584 245.852 219.856C246.364 220.12 246.768 220.504 247.064 221.008C247.36 221.504 247.508 222.1 247.508 222.796C247.508 222.868 247.504 222.952 247.496 223.048C247.488 223.136 247.48 223.22 247.472 223.3H242.228V222.208H246.488L245.768 222.532C245.768 222.196 245.7 221.904 245.564 221.656C245.428 221.408 245.24 221.216 245 221.08C244.76 220.936 244.48 220.864 244.16 220.864C243.84 220.864 243.556 220.936 243.308 221.08C243.068 221.216 242.88 221.412 242.744 221.668C242.608 221.916 242.54 222.212 242.54 222.556V222.844C242.54 223.196 242.616 223.508 242.768 223.78C242.928 224.044 243.148 224.248 243.428 224.392C243.716 224.528 244.052 224.596 244.436 224.596C244.78 224.596 245.08 224.544 245.336 224.44C245.6 224.336 245.84 224.18 246.056 223.972L247.052 225.052C246.756 225.388 246.384 225.648 245.936 225.832C245.488 226.008 244.972 226.096 244.388 226.096ZM252.285 223.084L251.913 217.6H254.145L253.773 223.084H252.285ZM253.029 226.096C252.693 226.096 252.417 225.988 252.201 225.772C251.985 225.556 251.877 225.3 251.877 225.004C251.877 224.7 251.985 224.448 252.201 224.248C252.417 224.04 252.693 223.936 253.029 223.936C253.373 223.936 253.649 224.04 253.857 224.248C254.073 224.448 254.181 224.7 254.181 225.004C254.181 225.3 254.073 225.556 253.857 225.772C253.649 225.988 253.373 226.096 253.029 226.096Z" fill="#17282F"/>
<path d="M192.419 318.752L182.603 340H144.615L166.551 305.629L192.419 318.752Z" fill="#ECAB8F"/>
<g filter="url(#filter3_d_4037_946)">
<path d="M200.861 229.361C200.014 228.738 198.585 228.352 197.597 228.262C192.972 227.841 190.177 230.951 188.739 241.978C186.995 255.36 188.586 266.008 180.782 268.506C179.625 268.877 179.75 268.786 178.239 269.129V218.364C171.289 230.081 164.201 245.967 159.241 253.924C156.056 259.032 154.558 265.144 155.886 271.012C163.439 304.389 163.069 332.055 172.702 334.672C172.702 334.672 203.903 333.721 203.9 271.326C203.9 271.326 204.249 239.924 202.847 232.922C202.395 230.663 201.45 229.796 200.861 229.361Z" fill="#ECAB8F"/>
</g>
<path d="M193.674 239.924C193.674 239.924 192.842 230.429 198.35 230.429C203.1 230.429 202.271 239.924 202.271 239.924H193.674Z" fill="#41D1D4"/>
<path d="M178.237 269.129L172.285 270.32L178.237 239.884V269.129Z" fill="#BE6A47"/>
<path d="M340.702 263.46L326.993 235.177C325.515 232.008 321.758 230.613 318.564 232.048C315.383 233.478 313.935 237.189 315.31 240.389L327.864 268.076L340.702 263.46Z" fill="#ECAB8F"/>
<path d="M318.563 232.048C318.563 232.048 302.503 244.029 285.823 247.688C284.372 248.006 283.332 249.271 283.332 250.753C283.332 252.341 284.516 253.689 286.096 253.869C292.328 254.577 306.063 256.169 324.316 241.575L318.563 232.048Z" fill="#ECAB8F"/>
<path d="M292.602 245.715C292.602 245.715 294.621 249.188 289.422 249.994C286.249 250.486 285.056 249.658 284.61 248.939C284.358 248.535 284.597 248.002 285.06 247.889L292.602 245.715Z" fill="#41D1D4"/>
<path d="M350.624 264.571L336.914 236.287C335.436 233.117 331.68 231.723 328.486 233.158C325.304 234.587 323.857 238.298 325.233 241.499L337.786 269.187L350.624 264.571Z" fill="#ECAB8F"/>
<path d="M360.143 269.186C360.143 269.186 351.088 246.382 346.35 239.186C344.427 236.264 341.115 234.622 337.922 236.057C334.74 237.487 333.293 241.197 334.668 244.398L347.221 272.086L360.143 269.186Z" fill="#ECAB8F"/>
<path d="M310.204 270.074C310.032 270.009 309.869 269.933 309.71 269.841C308.195 268.963 298.53 263.753 290.331 261.964C285.554 260.922 281.422 262.675 279.166 265.016C277.229 267.026 278.597 270.017 281.315 270.671C290.318 272.837 292.934 275.963 297.381 279.159C307.386 286.35 312.437 310.214 339.142 311.627C340.759 311.713 353.651 311.159 354.058 309.595L348.226 287.615C348.66 285.945 347.764 284.216 346.146 283.607L310.204 270.074Z" fill="#ECAB8F"/>
<path d="M309.936 269.972C309.936 269.972 313.223 269.846 312.551 263.825C312.551 263.825 335.122 254.791 354.564 256.629C354.564 256.629 365.963 281.386 375.128 306.281L329.745 308.205L309.936 269.972Z" fill="#ECAB8F"/>
<path d="M313.508 267.302C313.508 267.302 311.789 252.58 291.912 215.577C290.774 213.461 286.554 204.766 290.608 202.039C293.206 200.291 296.023 202.355 298.127 204.861C299.333 206.298 302.472 211.646 303.46 213.253C314.518 231.241 331.15 261.401 331.15 261.401L313.508 267.302Z" fill="#ECAB8F"/>
<path d="M315.646 234.049L328.866 257.839L329.471 257.504L316.252 233.714" fill="#BE6A47"/>
<path d="M326.322 234.589L336.752 253.971L337.363 253.644L326.932 234.262" fill="#BE6A47"/>
<path d="M336.754 236.693L344.579 251.055L345.187 250.724L337.362 236.363" fill="#BE6A47"/>
<path d="M303.254 241.516L307.514 251.651L308.153 251.384L303.892 241.249" fill="#BE6A47"/>
<path d="M302.03 210.908C302.03 210.908 296.765 212.906 294.254 208.586C292.668 205.855 292.891 203.822 293.531 202.728C294.183 201.613 295.654 201.956 295.946 202.263C297.952 204.368 300.617 208.796 302.03 210.908Z" fill="#41D1D4"/>
<path d="M281.316 270.671C281.316 270.671 281.444 266.578 286.039 267.968C286.039 267.968 289.827 269.149 290.583 270.167L289.236 273.524C289.236 273.524 287.568 272.486 281.316 270.671Z" fill="#41D1D4"/>
<path d="M309.936 269.972C309.936 269.972 313.218 269.726 312.551 263.825C312.551 263.825 315.335 269.781 315.022 275.402C315.022 275.402 311.883 271.042 309.936 269.972Z" fill="#BE6A47"/>
<g filter="url(#filter4_d_4037_946)">
<path d="M375.128 306.282L393.937 340H353.38L337.473 300.57L375.128 306.282Z" fill="#ECAB8F"/>
</g>
<g filter="url(#filter5_d_4037_946)">
<path d="M315.944 121.238H315.936C318.064 117.251 319.279 112.705 319.279 107.872C319.279 92.1431 306.503 79.3917 290.743 79.3917C274.983 79.3917 262.207 92.1431 262.207 107.872C262.207 112.705 263.422 117.251 265.55 121.238H265.542L265.604 121.35C265.644 121.423 265.683 121.494 265.723 121.565L284.967 156.438C287.474 160.98 294.012 160.98 296.519 156.438L315.763 121.565C315.803 121.494 315.842 121.423 315.882 121.35L315.944 121.238Z" fill="#F0C811"/>
</g>
<path d="M293.275 114.5H287.973V108.948C287.973 107.482 289.154 106.302 290.625 106.302C292.094 106.302 293.275 107.482 293.275 108.948V114.5ZM302.785 100.809L291.373 92.0367C290.941 91.692 290.307 91.692 289.875 92.0367L285.466 95.4021V92.9017C285.466 92.5563 285.178 92.2972 284.861 92.2972H282.498C282.152 92.2972 281.892 92.5848 281.892 92.9017V98.1629L278.434 100.781C277.512 101.5 278.031 102.995 279.184 102.995H279.702V117.912H301.517V102.995H302.036C303.218 102.995 303.708 101.5 302.785 100.809Z" fill="white"/>
<path d="M278.907 122.63L279.649 124.621L279.762 124.703L281.888 124.791C282.005 124.796 282.053 124.944 281.962 125.016L280.294 126.336L280.25 126.467L280.822 128.514C280.854 128.626 280.728 128.717 280.632 128.652L278.858 127.477H278.719L276.946 128.652C276.849 128.717 276.724 128.626 276.755 128.514L277.327 126.467L277.284 126.336L275.616 125.016C275.525 124.944 275.573 124.796 275.689 124.791L277.816 124.703L277.929 124.621L278.671 122.63C278.711 122.52 278.866 122.52 278.907 122.63Z" fill="white"/>
<path d="M286.792 122.63L287.534 124.621L287.647 124.703L289.773 124.791C289.89 124.796 289.938 124.944 289.846 125.016L288.178 126.336L288.135 126.467L288.708 128.514C288.739 128.626 288.614 128.717 288.516 128.652L286.743 127.477H286.604L284.831 128.652C284.734 128.717 284.609 128.626 284.64 128.514L285.212 126.467L285.169 126.336L283.501 125.016C283.409 124.944 283.457 124.796 283.574 124.791L285.701 124.703L285.813 124.621L286.555 122.63C286.597 122.52 286.751 122.52 286.792 122.63Z" fill="white"/>
<path d="M294.674 122.63L295.416 124.621L295.529 124.703L297.656 124.791C297.772 124.796 297.82 124.944 297.729 125.016L296.061 126.336L296.018 126.467L296.59 128.514C296.622 128.626 296.496 128.717 296.399 128.652L294.627 127.477H294.487L292.714 128.652C292.617 128.717 292.491 128.626 292.523 128.514L293.095 126.467L293.051 126.336L291.384 125.016C291.292 124.944 291.341 124.796 291.456 124.791L293.583 124.703L293.697 124.621L294.438 122.63C294.479 122.52 294.634 122.52 294.674 122.63Z" fill="white"/>
<path d="M302.557 122.63L303.299 124.621L303.412 124.703L305.538 124.791C305.655 124.796 305.704 124.944 305.612 125.016L303.945 126.336L303.901 126.467L304.473 128.514C304.505 128.626 304.379 128.717 304.282 128.652L302.509 127.477H302.369L300.597 128.652C300.5 128.717 300.374 128.626 300.406 128.514L300.978 126.467L300.935 126.336L299.267 125.016C299.175 124.944 299.223 124.796 299.34 124.791L301.467 124.703L301.58 124.621L302.322 122.63C302.362 122.52 302.517 122.52 302.557 122.63Z" fill="white"/>
<defs>
<filter id="filter0_d_4037_946" x="-4" y="270.69" width="519" height="24.1631" filterUnits="userSpaceOnUse" color-interpolation-filters="sRGB">
<feFlood flood-opacity="0" result="BackgroundImageFix"/>
<feColorMatrix in="SourceAlpha" type="matrix" values="0 0 0 0 0 0 0 0 0 0 0 0 0 0 0 0 0 0 127 0" result="hardAlpha"/>
<feOffset dy="4"/>
<feGaussianBlur stdDeviation="2"/>
<feComposite in2="hardAlpha" operator="out"/>
<feColorMatrix type="matrix" values="0 0 0 0 0 0 0 0 0 0 0 0 0 0 0 0 0 0 0.25 0"/>
<feBlend mode="normal" in2="BackgroundImageFix" result="effect1_dropShadow_4037_946"/>
<feBlend mode="normal" in="SourceGraphic" in2="effect1_dropShadow_4037_946" result="shape"/>
</filter>
<filter id="filter1_d_4037_946" x="174.238" y="124.791" width="153.557" height="199.603" filterUnits="userSpaceOnUse" color-interpolation-filters="sRGB">
<feFlood flood-opacity="0" result="BackgroundImageFix"/>
<feColorMatrix in="SourceAlpha" type="matrix" values="0 0 0 0 0 0 0 0 0 0 0 0 0 0 0 0 0 0 127 0" result="hardAlpha"/>
<feOffset dy="4"/>
<feGaussianBlur stdDeviation="2"/>
<feComposite in2="hardAlpha" operator="out"/>
<feColorMatrix type="matrix" values="0 0 0 0 0 0 0 0 0 0 0 0 0 0 0 0 0 0 0.25 0"/>
<feBlend mode="normal" in2="BackgroundImageFix" result="effect1_dropShadow_4037_946"/>
<feBlend mode="normal" in="SourceGraphic" in2="effect1_dropShadow_4037_946" result="shape"/>
</filter>
<filter id="filter2_d_4037_946" x="194" y="181" width="114" height="35" filterUnits="userSpaceOnUse" color-interpolation-filters="sRGB">
<feFlood flood-opacity="0" result="BackgroundImageFix"/>
<feColorMatrix in="SourceAlpha" type="matrix" values="0 0 0 0 0 0 0 0 0 0 0 0 0 0 0 0 0 0 127 0" result="hardAlpha"/>
<feOffset dy="4"/>
<feGaussianBlur stdDeviation="2"/>
<feComposite in2="hardAlpha" operator="out"/>
<feColorMatrix type="matrix" values="0 0 0 0 0 0 0 0 0 0 0 0 0 0 0 0 0 0 0.25 0"/>
<feBlend mode="normal" in2="BackgroundImageFix" result="effect1_dropShadow_4037_946"/>
<feBlend mode="normal" in="SourceGraphic" in2="effect1_dropShadow_4037_946" result="shape"/>
</filter>
<filter id="filter3_d_4037_946" x="151.402" y="218.364" width="56.5352" height="124.308" filterUnits="userSpaceOnUse" color-interpolation-filters="sRGB">
<feFlood flood-opacity="0" result="BackgroundImageFix"/>
<feColorMatrix in="SourceAlpha" type="matrix" values="0 0 0 0 0 0 0 0 0 0 0 0 0 0 0 0 0 0 127 0" result="hardAlpha"/>
<feOffset dy="4"/>
<feGaussianBlur stdDeviation="2"/>
<feComposite in2="hardAlpha" operator="out"/>
<feColorMatrix type="matrix" values="0 0 0 0 0 0 0 0 0 0 0 0 0 0 0 0 0 0 0.25 0"/>
<feBlend mode="normal" in2="BackgroundImageFix" result="effect1_dropShadow_4037_946"/>
<feBlend mode="normal" in="SourceGraphic" in2="effect1_dropShadow_4037_946" result="shape"/>
</filter>
<filter id="filter4_d_4037_946" x="333.473" y="300.57" width="64.4648" height="47.4297" filterUnits="userSpaceOnUse" color-interpolation-filters="sRGB">
<feFlood flood-opacity="0" result="BackgroundImageFix"/>
<feColorMatrix in="SourceAlpha" type="matrix" values="0 0 0 0 0 0 0 0 0 0 0 0 0 0 0 0 0 0 127 0" result="hardAlpha"/>
<feOffset dy="4"/>
<feGaussianBlur stdDeviation="2"/>
<feComposite in2="hardAlpha" operator="out"/>
<feColorMatrix type="matrix" values="0 0 0 0 0 0 0 0 0 0 0 0 0 0 0 0 0 0 0.25 0"/>
<feBlend mode="normal" in2="BackgroundImageFix" result="effect1_dropShadow_4037_946"/>
<feBlend mode="normal" in="SourceGraphic" in2="effect1_dropShadow_4037_946" result="shape"/>
</filter>
<filter id="filter5_d_4037_946" x="258.207" y="79.3916" width="65.0723" height="88.4531" filterUnits="userSpaceOnUse" color-interpolation-filters="sRGB">
<feFlood flood-opacity="0" result="BackgroundImageFix"/>
<feColorMatrix in="SourceAlpha" type="matrix" values="0 0 0 0 0 0 0 0 0 0 0 0 0 0 0 0 0 0 127 0" result="hardAlpha"/>
<feOffset dy="4"/>
<feGaussianBlur stdDeviation="2"/>
<feComposite in2="hardAlpha" operator="out"/>
<feColorMatrix type="matrix" values="0 0 0 0 0 0 0 0 0 0 0 0 0 0 0 0 0 0 0.25 0"/>
<feBlend mode="normal" in2="BackgroundImageFix" result="effect1_dropShadow_4037_946"/>
<feBlend mode="normal" in="SourceGraphic" in2="effect1_dropShadow_4037_946" result="shape"/>
</filter>
</defs>
</svg>