<svg xmlns="http://www.w3.org/2000/svg" width="372" height="444" viewBox="0 0 372 444" fill="none">
  <path d="M93.2958 417.902C90.9624 414.157 88.5651 410.229 88.1784 405.833C87.8211 401.759 87.1558 397.263 87.7718 393.221C88.3878 389.177 88.1104 385.031 87.2158 381.038C84.4131 368.522 79.1571 369.91 77.2464 370.867C75.3691 371.809 74.4864 373.863 74.3958 377.171C74.3238 379.831 76.2464 392.27 72.1811 390.451C67.4771 388.345 67.5518 375.345 66.7851 371.019C65.6411 364.547 62.9424 357.643 57.9558 353.174C55.4984 350.973 51.8931 349.371 48.9411 350.845C47.1731 351.727 46.0424 353.543 45.4171 355.418C43.5371 361.065 45.5304 366.905 47.7758 372.121C48.7144 374.301 56.3051 384.362 50.0891 383.423C48.6038 383.199 36.1651 373.597 35.0278 383.647C34.6264 387.186 38.6064 390.786 44.9184 395.278C48.8584 398.083 63.4211 405.375 62.7184 409.293C62.0158 413.21 53.9291 407.019 54.9344 414.295C55.4971 418.371 60.8771 421.271 64.5224 422.785C66.2571 423.505 68.1291 423.877 69.8131 424.709C71.8104 425.695 74.2638 428.099 72.7624 430.471C72.1064 431.507 70.8264 432.031 70.2051 433.087C69.5744 434.161 69.7864 435.577 70.4518 436.629C71.1158 437.682 72.1611 438.433 73.2264 439.077C80.0598 443.201 88.5878 443.815 96.4038 442.206C104.221 440.597 111.458 436.939 118.372 432.95" fill="#9DEDE9"/>
  <path d="M63.3738 400.658C62.4765 395.573 53.1111 363.609 36.6751 372.097C26.9125 377.14 28.6685 395.705 43.9178 409.732C40.9245 406.837 37.4685 403.554 33.3845 402.744C31.1778 402.305 28.4778 403.321 26.8258 404.846C25.3551 406.204 24.9218 408.349 24.8538 410.349C24.6071 417.624 28.4005 424.906 34.5018 428.876C31.1298 426.99 28.2071 424.632 24.3578 424.301C23.1071 424.193 20.9871 424.909 20.4085 426.024C19.7778 427.236 19.8218 431.78 27.2471 435.174C-3.01687 429.434 -4.7822 442.334 6.09646 442.334H95.3151" fill="#78D1CF"/>
  <path d="M76.338 362.011C76.338 362.011 76.8953 356.245 72.4873 351.483C72.4873 351.483 75.9806 352.928 78.666 356.936C78.666 356.936 81.114 349.747 85.2926 349.391C85.2926 349.391 80.6486 354.255 80.6446 362.011" fill="#78D1CF"/>
  <path d="M203.047 440.487C203.047 440.487 203.921 431.435 197 423.956C197 423.956 202.487 426.226 206.703 432.519C206.703 432.519 210.547 421.231 217.107 420.671C217.107 420.671 209.815 428.308 209.809 440.487" fill="#78D1CF"/>
  <path d="M90.2221 369.645C90.2221 370.652 89.4061 371.468 88.3995 371.468C87.3941 371.468 86.5781 370.652 86.5781 369.645C86.5781 368.639 87.3941 367.823 88.3995 367.823C89.4061 367.823 90.2221 368.639 90.2221 369.645Z" fill="#01AFB8"/>
  <path d="M74.2175 342.261H72.4081V340.453C72.4081 340.057 72.0882 339.737 71.6935 339.737C71.2975 339.737 70.9775 340.057 70.9775 340.453V342.261H69.1682C68.7721 342.261 68.4521 342.582 68.4521 342.977C68.4521 343.373 68.7721 343.693 69.1682 343.693H70.9775V345.502C70.9775 345.897 71.2975 346.218 71.6935 346.218C72.0882 346.218 72.4081 345.897 72.4081 345.502V343.693H74.2175C74.6122 343.693 74.9335 343.373 74.9335 342.977C74.9335 342.582 74.6122 342.261 74.2175 342.261Z" fill="#01AFB8"/>
  <path d="M205.917 86.1284C205.917 125.832 238.102 158.018 277.806 158.018C317.509 158.018 349.696 125.832 349.696 86.1284C349.696 46.4257 317.509 14.2391 277.806 14.2391C238.102 14.2391 205.917 46.4257 205.917 86.1284Z" fill="black"/>
  <path d="M158.813 419.735L159.768 428.751C159.768 428.751 163.229 431.627 166.741 431.562C168.16 431.535 170.587 429.996 170.587 428.751V419.099" fill="#FFCCAF"/>
  <path d="M88.5926 413.021L85.6659 421.601C85.6659 421.601 83.9099 423.434 84.9659 424.773C85.8339 425.874 89.3592 426.445 90.8099 427.085C92.1072 427.657 94.9552 427.283 95.4806 426.153L99.5406 417.397" fill="#FFCCAF"/>
  <path d="M112.811 288.555C112.811 288.555 103.137 260.111 130.585 236.677C130.585 236.677 145.295 242.535 157.075 243.241C166.351 243.797 171.062 242.943 171.062 242.943C171.062 242.943 171.708 268.265 171.74 281.885L112.811 288.555Z" fill="#616D75"/>
  <path d="M174.082 334.447L175.111 334L171.5 278.171L171.74 281.885L141 285.347L138.647 285.615C138.647 285.615 145.103 321.555 152.753 343.686C152.751 343.69 152.751 343.692 152.75 343.696C152.75 343.696 148.865 356.491 157.469 420.13C157.469 420.13 159.437 420.672 162.322 420.859C164.426 420.995 167.039 420.944 169.754 420.384C170.485 420.231 171.214 420.028 171.961 419.79C171.961 419.79 174.506 347.43 175.117 334.006L174.082 334.447Z" fill="#616D75"/>
  <path d="M146.082 288.559C146.082 288.559 133.558 338.383 131.284 346.869C129.264 354.387 105.43 406.039 99.9485 417.614C93.8498 416.871 89.7578 414.291 87.6191 413.206C88.1285 410.389 89.0111 405.909 90.3005 400.241C93.6778 385.477 99.8045 362.601 109.511 339.861C109.511 339.861 110.775 317.489 112.811 288.555L147.5 284.607C147.5 284.607 146.608 275.713 145.234 279.973C144.962 280.838 144.283 283.519 143.35 287.286L146.082 288.559Z" fill="#616D75"/>
  <path d="M186.072 172.982C181.774 164.725 176.092 156.409 176.092 156.409L165.333 189.889C165.333 189.889 169.232 188.255 171.965 193.345C172.542 194.418 173.117 195.482 173.69 196.541C177.678 195.245 185.913 192.211 192.637 187.449C190.4 182.106 187.993 176.673 186.072 172.982Z" fill="#0073C6"/>
  <path d="M199.224 204.319C198.567 202.218 195.156 195.347 192.025 187.874C184.812 192.253 180.419 194.081 176.263 195.658C181.053 204.491 185.405 211.683 190.739 218.058C187.273 207.357 199.224 204.319 199.224 204.319Z" fill="#FFCCAF"/>
  <path d="M219.478 173.899C219.478 173.899 228.329 179.515 226.934 180.877C225.541 182.238 202.686 216.589 195.757 217.118C192.9 217.335 189.19 213.93 188.432 210.303C188.15 208.949 190.684 209.608 190.5 208.171C193.347 197.29 219.478 173.899 219.478 173.899Z" fill="#FFCCAF"/>
  <path d="M233.323 165.61C233.323 165.61 234.061 167.698 233.954 170.34L232.021 167.976L233.323 165.61Z" fill="#FFA180"/>
  <path d="M175.717 156.025C172.843 153.634 170.441 153.301 161.836 152.03C159.679 151.935 157.085 151.427 154.033 151.523C145.313 151.798 121.565 153.237 118.911 159.071C117.555 162.053 116.099 192.59 118.084 203.119C119.579 211.037 121.903 230.981 121.903 235.714C121.903 240.447 120.856 242.146 122.043 243.521C124.7 246.599 142.871 247.893 151.401 247.893C158.995 247.893 170.459 247.138 171.115 244.705C172.088 241.094 171.093 239.959 170.76 236.174C170.428 232.39 174.599 184.697 176.596 179.327C178.112 175.251 179.208 158.927 175.717 156.025Z" fill="#0073C6"/>
  <path d="M155.986 143.671C155.986 143.671 155.927 149.428 156.454 150.267C157.291 151.599 159.223 151.8 159.223 151.8C159.223 151.8 159.7 158.887 155.322 159.875C145.682 162.048 138.058 152.692 138.058 152.692C138.058 152.692 140.275 151.862 140.506 151.176C142.038 146.627 140.506 136.998 140.506 136.998" fill="#FFCCAF"/>
  <path d="M152.366 108.773C154.246 109.285 161.041 105.914 162.409 107.965C163.776 110.015 166.776 123.61 167.517 126.417C167.986 128.194 170.021 139.542 166.117 143.105C161.5 146.671 149.5 141.671 149.5 141.671C149.5 141.671 140 137.531 138.146 135.037L137.669 115.266L152.366 108.773Z" fill="#FFCCAF"/>
  <path d="M158.445 244.818C162.778 245.472 164.379 247.081 166.821 249.493C167.021 249.689 167.231 249.937 167.186 250.214C167.13 250.56 166.725 250.713 166.379 250.769C164.366 251.092 164.038 249.806 162.158 249.021C160.887 248.49 159.626 247.94 158.363 247.39" fill="#FFA180"/>
  <path d="M137.589 305.564C140.108 305.564 142.577 304.341 144.068 302.084L237.737 160.315C240.099 156.74 239.116 151.928 235.543 149.567C231.969 147.205 227.156 148.189 224.797 151.763L131.127 293.532C128.765 297.105 129.748 301.917 133.321 304.279C134.637 305.149 136.121 305.564 137.589 305.564Z" fill="#065C6C"/>
  <path d="M131.286 302.324C131.826 303.089 132.501 303.741 133.311 304.281C134.638 305.159 136.123 305.564 137.585 305.564C140.105 305.564 142.581 304.35 144.065 302.076L237.746 160.317C240.109 156.74 239.118 151.925 235.541 149.563C235.114 149.271 234.641 149.023 234.169 148.865C236.014 151.408 236.194 154.895 234.371 157.663L140.69 299.444C139.205 301.695 136.73 302.909 134.21 302.909C133.221 302.909 132.231 302.729 131.286 302.324Z" fill="#004D59"/>
  <path d="M205.917 86.1284C205.917 125.832 238.102 158.018 277.806 158.018C317.509 158.018 349.696 125.832 349.696 86.1284C349.696 46.4257 317.509 14.2391 277.806 14.2391C238.102 14.2391 205.917 46.4257 205.917 86.1284Z" fill="white"/>
  <path d="M220.963 47.8799C210.916 63.0839 207.393 81.2892 211.04 99.1439C214.688 116.997 225.068 132.361 240.273 142.407C271.663 163.144 314.064 154.481 334.8 123.095C344.847 107.891 348.369 89.6852 344.723 71.8319C341.075 53.9772 330.695 38.6132 315.491 28.5678C303.935 20.9345 290.896 17.2865 277.988 17.2865C255.828 17.2865 234.065 28.0465 220.963 47.8799ZM233.179 153.147C215.104 141.205 202.764 122.943 198.428 101.719C194.093 80.4972 198.281 58.8572 210.223 40.7839C234.871 3.47718 285.28 -6.81882 322.584 17.8278C340.659 29.7692 352.999 48.0332 357.335 69.2559C361.669 90.4772 357.481 112.119 345.54 130.192C329.963 153.768 304.1 166.556 277.757 166.556C262.415 166.556 246.908 162.219 233.179 153.147Z" fill="#FFD864"/>
  <path d="M217.86 45.8296C207.265 61.8629 203.55 81.0603 207.396 99.8883C211.242 118.715 222.189 134.918 238.222 145.511C271.324 167.376 316.037 158.242 337.904 125.146C348.497 109.112 352.213 89.9149 348.366 71.0869C344.521 52.2603 333.573 36.0576 317.54 25.4643C305.356 17.4149 291.606 13.5683 277.993 13.5683C254.625 13.5683 231.677 24.9163 217.86 45.8296ZM230.741 156.835C211.682 144.243 198.669 124.984 194.097 102.604C189.526 80.2256 193.942 57.4056 206.534 38.3469C232.526 -0.993053 285.684 -11.8504 325.021 14.1403C344.081 26.7323 357.093 45.9909 361.666 68.3709C366.237 90.7496 361.821 113.57 349.228 132.628C332.802 157.49 305.529 170.976 277.75 170.976C261.572 170.976 245.22 166.402 230.741 156.835Z" fill="#FFC700"/>
  <path d="M154.145 243.494C157.505 244.196 158.558 244.755 159.498 245.199C160.622 245.728 164.331 248.541 165.208 249.421C168.579 252.8 166.856 254.379 168.184 258.963C168.252 259.199 168.266 259.443 168.267 259.689C168.268 260.168 167.622 260.579 166.97 260.132C166.619 260.724 165.578 260.359 165.074 259.715C165.082 260.173 164.44 260.463 163.41 259.892C162.852 259.583 162.952 259.612 161.666 258.463C160.746 257.641 159.676 256.991 158.02 256.244C156.906 255.741 155.486 255.292 154.464 254.62C153.103 253.724 150.676 253.512 149.48 249.627C149.215 248.768 148.372 248.239 147.611 247.761C145.786 246.616 147.549 247.722 145.722 246.577" fill="#FFCCAF"/>
  <path d="M99.0998 220.978C100.773 225.854 115.927 234.628 127.525 239.178C137.738 243.186 145.722 246.577 145.722 246.577L154.145 243.494L145.777 237.542L116.851 216.673C116.851 216.673 120.029 208.704 122.702 196.717C110.909 193.078 107.667 191.328 104.397 189.538C101.095 204.406 97.2692 215.646 99.0998 220.978Z" fill="#FFCCAF"/>
  <path d="M129.84 177.379L124.454 155.464C124.454 155.464 116.727 156.803 113.195 161.43C108.552 167.51 104.586 178.842 102.211 189.538C105.479 191.328 112.852 194.384 124.476 197.272C126.851 190.222 129.071 182.72 129.84 177.379Z" fill="#0073C6"/>
  <path d="M159.836 254.06C159.836 254.06 160.239 254.271 160.821 254.624C161.108 254.807 161.439 255.025 161.788 255.277C162.151 255.519 162.475 255.875 162.779 256.207C163.095 256.54 163.356 256.915 163.608 257.256C163.864 257.595 164.075 257.929 164.26 258.213C164.632 258.777 164.86 259.176 164.86 259.176C164.86 259.176 164.497 258.891 164.037 258.387C163.805 258.136 163.537 257.843 163.279 257.509C163.013 257.181 162.72 256.843 162.447 256.492C161.908 255.777 161.213 255.252 160.691 254.804C160.177 254.357 159.836 254.06 159.836 254.06Z" fill="#FFA180"/>
  <path d="M161.675 251.848C161.675 251.848 161.808 251.898 162.019 252.044C162.225 252.192 162.503 252.424 162.809 252.73C163.109 253.042 163.441 253.422 163.78 253.842C163.951 254.051 164.108 254.282 164.269 254.518C164.421 254.738 164.604 255.03 164.709 255.284C165.195 256.31 165.68 257.335 166.045 258.103C166.412 258.876 166.619 259.415 166.619 259.415C166.619 259.415 166.26 258.963 165.799 258.239C165.568 257.878 165.297 257.455 165.049 256.978C164.796 256.503 164.52 255.998 164.308 255.462C164.205 255.183 164.081 254.99 163.927 254.742C163.775 254.51 163.624 254.282 163.479 254.062C163.187 253.619 162.896 253.218 162.632 252.886C162.132 252.196 161.675 251.848 161.675 251.848Z" fill="#FFA180"/>
  <path d="M163.787 250.059C163.787 250.059 163.871 250.171 164.042 250.342C164.215 250.511 164.462 250.753 164.758 251.043C165.058 251.333 165.4 251.67 165.743 252.086C166.08 252.55 166.291 253.034 166.535 253.547C167.004 254.563 167.326 255.643 167.48 256.466C167.65 257.287 167.663 257.849 167.663 257.849C167.663 257.849 167.48 257.326 167.206 256.541C166.927 255.762 166.556 254.733 166.138 253.721C166.03 253.469 165.922 253.217 165.815 252.97C165.695 252.726 165.62 252.462 165.483 252.275C165.2 251.862 164.867 251.502 164.612 251.177C164.351 250.854 164.132 250.582 163.991 250.383C163.85 250.183 163.787 250.059 163.787 250.059Z" fill="#FFA180"/>
  <path d="M228.36 169.276C228.36 169.276 228.513 168.992 228.125 168.13C227.603 166.973 227.043 165.929 226.707 166.19C226.373 166.452 226.261 166.898 226.447 167.794C226.634 168.689 227.473 171.082 227.473 171.082" fill="#FFCCAF"/>
  <path d="M226.934 180.877C226.934 180.877 228.01 178.998 229.092 178.096C230.173 177.195 233.205 175.754 233.897 174.492C234.589 173.23 233.868 166.562 231.885 165.931C229.902 165.3 228 170.015 226.934 172.239C226.028 174.131 226.734 176.794 226.734 176.794L225.366 179.051C225.366 179.051 226.319 180.009 226.934 180.877Z" fill="#FFCCAF"/>
  <path d="M233.323 167.825C233.323 167.825 231.979 164.566 231.458 163.409C230.935 162.253 230.375 161.209 230.04 161.47C229.704 161.73 229.502 162.399 229.688 163.294C229.875 164.19 230.5 166.671 230.5 166.671" fill="#FFCCAF"/>
  <path d="M230.5 166.671C230.5 166.671 230.354 164.6 229.723 163.204C229.092 161.808 228.418 160.548 228.012 160.863C227.607 161.179 227.472 161.719 227.698 162.799C227.923 163.879 229.361 167.561 229.361 167.561" fill="#FFCCAF"/>
  <path d="M229.361 167.561C229.361 167.561 229.294 166.967 228.771 165.811C228.25 164.653 227.69 163.609 227.354 163.871C227.019 164.132 226.907 164.579 227.094 165.475C227.279 166.369 228.36 169.276 228.36 169.276" fill="#FFCCAF"/>
  <path d="M166.112 95.8921C166.112 95.8921 162.701 100.639 155.544 98.5415C148.384 96.4455 134.829 97.7441 134.829 105.343C134.829 105.343 130.564 104.481 126.968 109.877C124.157 114.092 125.388 119.752 125.712 121.437C127.026 128.263 132.632 135.603 141.02 140.247L140.506 136.998C140.506 136.998 137.87 132.115 140.184 128.268C142.756 124.931 145.654 128.731 147.368 130.328C147.608 130.553 148.002 130.388 148.01 130.059C148.056 128.208 147.426 127.172 148.632 123.925C150.006 120.219 147.869 117.212 147.337 116.391C147.337 116.391 155.844 117.92 161.53 113.239C167.214 108.56 166.112 95.8921 166.112 95.8921Z" fill="#1B1B1B"/>
  <path d="M88.2804 406.406C88.2804 406.406 95.4724 409.706 103.463 411.686L100.282 418.649C100.282 418.649 93.4418 419.205 86.3711 413.972L88.2804 406.406Z" fill="#202020"/>
  <path d="M155.939 413.868C155.939 413.868 164.214 414.241 172.743 413.021L172.39 421.379C172.39 421.379 165.978 424.253 157.062 421.959L155.939 413.868Z" fill="#202020"/>
  <path d="M108.117 192.202L112.231 193.421C113.595 193.842 114.964 194.243 116.335 194.629C119.068 195.431 121.813 196.182 124.575 196.797L124.016 197.117L128.164 185.191C127.821 187.277 127.308 189.331 126.748 191.365C126.205 193.405 125.595 195.422 124.937 197.429L124.804 197.834L124.379 197.749C121.547 197.186 118.793 196.354 116.079 195.435C114.729 194.951 113.388 194.446 112.055 193.925C110.728 193.382 109.408 192.827 108.117 192.202Z" fill="#025897"/>
  <path d="M174.9 174.48C174.9 174.48 174.857 177.397 174.676 181.765C174.566 183.948 174.482 186.497 174.313 189.224C174.145 191.949 173.966 194.857 173.788 197.765C173.564 200.669 173.341 203.575 173.13 206.297C172.925 209.02 172.654 211.556 172.464 213.733C172.041 218.084 171.68 220.979 171.68 220.979C171.68 220.979 171.72 218.061 171.902 213.693C172.012 211.511 172.093 208.961 172.265 206.235C172.433 203.509 172.612 200.601 172.792 197.693C173.016 194.789 173.238 191.884 173.449 189.161C173.657 186.439 173.925 183.901 174.117 181.725C174.54 177.375 174.9 174.48 174.9 174.48Z" fill="#025897"/>
  <path d="M159.489 428.186C159.192 428.277 159.001 428.561 158.976 428.87C158.927 429.474 158.769 430.758 158.283 432.516C157.729 434.52 157.672 436.696 158.168 438.381C158.368 439.058 159 439.516 159.705 439.516H186.072C186.072 439.516 189.873 439.554 189.945 437.058C189.991 435.504 188.617 435.698 185.383 434.849C182.148 434.001 174.033 429.016 170.587 428.751C170.587 428.751 168.307 431.244 165.708 430.713C163.389 430.24 160.964 427.738 159.489 428.186Z" fill="#0682CE"/>
  <path d="M85.6659 421.601C85.6659 421.601 84.5687 421.167 83.3487 422.652C82.13 424.137 79.3194 428.38 79.1593 429.333C79.0007 430.288 82.6247 432.516 83.614 433.576C84.6033 434.637 88.918 439.039 91.8167 439.516C94.7153 439.993 102.847 440.029 104.403 439.516C105.958 439.004 106.413 436.033 103.463 435.327C100.514 434.62 96.6086 427.302 95.4806 426.153C94.7512 425.409 93.266 424.296 89.802 425.003C88.5073 425.267 87.554 425.929 86.902 425.427C84.4753 423.556 85.6659 421.601 85.6659 421.601Z" fill="#0682CE"/>
  <path d="M203.679 439.887H22.3799H203.679Z" fill="white"/>
  <path d="M208.676 439.887H239.585H208.676Z" fill="white"/>
  <path d="M371.811 16.8988C311.862 34.6788 275.17 131.595 275.17 131.595C253.107 89.0202 218.873 71.7735 217.822 71.2562C217.806 71.2402 217.79 71.2402 217.79 71.2402C245.673 72.1295 273.958 96.8428 273.958 96.8428C317.325 14.9268 371.811 16.8988 371.811 16.8988Z" fill="#148B16"/>
  <path d="M371.811 16.8988C311.862 34.6788 275.17 131.595 275.17 131.595C253.107 89.0202 218.873 71.7735 217.822 71.2562C218.857 71.6122 252.542 83.5242 272.924 116.417C272.924 116.417 310.973 31.3322 371.811 16.8988Z" fill="#1CAD1F"/>
  <path d="M231 165.671H232L232.5 166.171C233.14 166.811 233.5 167.68 233.5 168.585V168.671L232 170.171L227.5 171.171V170.671L229 167.671L231 165.671Z" fill="#FFCCAF"/>
</svg>