<svg xmlns="http://www.w3.org/2000/svg" width="712" height="434" viewBox="0 0 712 434" fill="none">
  <path d="M452.494 17.5569C465.483 9.73557 480.681 5.21344 496.944 5.17465C544.809 5.06512 583.701 43.7769 583.809 91.6424C583.811 92.3816 583.777 93.1162 583.758 93.8509C584.425 93.835 585.084 93.7962 585.755 93.7962C633.62 93.6867 672.512 132.398 672.62 180.264C672.64 188.505 671.483 196.47 669.35 204.027C694.813 219.076 711.927 246.761 712 278.482C712.098 320.57 682.177 355.704 642.414 363.654L642.781 367.781L330.347 368.502C321.743 371.388 312.539 372.985 302.963 373.008C255.098 373.12 216.206 334.406 216.094 286.543C216.007 247.762 241.404 214.88 276.504 203.732C276.047 200.155 275.78 196.52 275.769 192.817C275.698 160.629 293.196 132.519 319.215 117.513C315.585 107.985 313.573 97.6635 313.547 86.867C313.433 39.0015 352.15 0.111786 400.013 0C400.079 0 400.148 0 400.216 0C419.851 0 437.958 6.54361 452.494 17.5569Z" fill="url(#paint0_linear_443_13048)"/>
  <path d="M183.674 247.949L301.29 73.0145L434.321 154.926H405.598V388.905H183.674V247.949Z" fill="white"/>
  <path d="M292.06 298.904H360.499V276.134H292.06V298.904Z" fill="#E1DDC4"/>
  <path d="M354.078 170.597V263.663H300.71V170.597H354.078Z" fill="url(#paint1_linear_443_13048)"/>
  <path d="M360.485 274.959H294.306V164.574H360.485V274.959ZM291.956 277.307H362.833V162.221H291.956V277.307Z" fill="#B2B2B2"/>
  <path d="M326.217 276.132H328.568V163.396H326.217V276.132Z" fill="#B2B2B2"/>
  <path d="M293.129 220.938H361.657V218.588H293.129V220.938Z" fill="#B2B2B2"/>
  <path d="M284.814 137.588L261.995 166.767V388.905H249.193V149.267L256.013 137.588H284.814Z" fill="#E1DDC4"/>
  <path d="M248.016 390.08H406.771V156.977H404.421V387.73H250.363V169.389H248.016V390.08Z" fill="#B2B2B2"/>
  <path d="M265.439 132.78H379.277V130.429H265.439V132.78Z" fill="#B2B2B2"/>
  <path d="M369.64 179.284C369.64 179.284 329.57 209.394 328.836 225.171C327.855 246.378 351.629 257.707 351.629 257.707L354.574 254.006C354.574 254.006 345.058 233.478 357.497 219.488L369.64 179.284Z" fill="#C6CDD9"/>
  <path d="M356.897 236.966L344.036 373.946H359.804L389.068 264.905C389.068 264.905 370.194 234.632 356.897 236.966Z" fill="#987E89"/>
  <path d="M417.181 376.828C417.181 376.828 430.125 385.657 434.503 386.109C435.265 386.191 435.956 386.876 436.071 387.8C436.187 388.712 435.829 389.778 433.928 390.378C430.129 391.585 408.007 390.49 408.007 390.49C408.007 390.49 407.669 386.702 407.293 382.696C407.11 380.752 407.644 378.155 407.644 378.155L417.181 376.828Z" fill="#598D98"/>
  <path d="M357.648 246.828C358.018 246.513 360.74 234.861 361.224 234.822L401.624 231.644C402.121 231.603 402.564 231.952 402.634 232.445C403.533 238.664 408.97 276.788 411.243 304.981C413.499 332.979 418.485 370.508 418.537 376.167C418.542 376.655 418.172 377.066 417.686 377.116L406.703 378.222C406.203 378.27 405.751 377.924 405.674 377.428C405.674 377.428 378.942 311.684 372.796 274.143C370.927 262.738 353.526 250.321 357.648 246.828Z" fill="#987E89"/>
  <path d="M371.991 180.365C373.707 180.515 374.337 180.082 376.032 180.39C379.726 181.065 390.552 181.565 391.316 182.938C392.414 184.916 392.793 202.464 396.087 207.075C399.379 211.684 402.633 232.446 404.7 247.304C405.255 251.304 373.344 256.905 355.717 249.508C355.717 249.508 345.694 178.044 371.991 180.365Z" fill="#C6CDD9"/>
  <path d="M454.901 185.72C454.901 185.72 461.438 182.256 460.078 180.413C458.716 178.567 457.082 176.278 455.367 177.1C453.651 177.924 451.492 182.441 451.492 182.441C451.492 182.441 453.163 185.398 454.901 185.72Z" fill="#F59778"/>
  <path d="M391.629 183.082C391.629 183.082 420.541 198.891 422.147 198.891C423.753 198.891 451.662 182.203 451.662 182.203L455.876 186.595C455.876 186.595 435.698 209.845 422.501 214.136C413.591 217.036 393.871 205.891 393.871 205.891C393.871 205.891 385.003 187.693 391.629 183.082Z" fill="#C6CDD9"/>
  <path d="M355.429 373.947C355.429 373.947 367.198 386.181 371.473 387.235C372.217 387.417 372.806 388.195 372.794 389.122C372.783 390.046 372.283 391.049 370.317 391.385C366.388 392.056 344.628 385.774 344.628 385.774C344.628 385.774 344.815 381.978 344.993 377.955C345.08 376.002 345.915 373.947 345.915 373.947H355.429Z" fill="#598D98"/>
  <path d="M395.069 205.006C395.082 205.043 395.098 205.07 395.112 205.107C397.476 207.286 402.632 210.179 402.632 210.179C399.805 208.956 397.574 207.849 396.091 207.078C398.594 210.592 401.074 223.435 403.024 235.92C403.004 235.844 399.848 223.711 398.299 219.093C396.26 213.015 393.967 203.61 393.967 203.61C394.056 204.007 394.473 204.488 395.069 205.006Z" fill="#987E89"/>
  <path d="M385.508 158.187C382.955 155.392 379.61 158.29 378.729 158.47C377.141 158.792 370.319 162.289 372.776 165.376C373.509 166.296 373.894 167.459 374.748 168.265C375.003 168.504 375.284 168.744 375.391 169.075C375.528 169.483 375.382 169.976 375.628 170.33C375.993 170.848 376.883 170.546 377.178 169.985C377.472 169.422 377.404 168.749 377.49 168.121C377.641 167.033 378.293 166.029 379.222 165.449C380.146 164.874 381.266 164.728 382.345 164.596C383.598 164.443 384.059 164.532 384.709 163.432C385.168 162.657 387.223 160.065 385.508 158.187Z" fill="#472A29"/>
  <path d="M383.084 181.214C383.269 178.648 382.653 165.093 382.653 165.093C382.653 165.093 379.579 165.994 377.615 167.34C377.597 166.927 377.492 166.384 377.236 165.654C377.236 165.654 376.613 164.223 375.913 164.426C375.212 164.627 374.432 165.64 375.66 166.986L376.362 168.501C376.221 168.702 376.118 168.907 376.061 169.12C376.061 169.12 376.67 179.432 376.032 180.391L376.96 181.376C378.489 183.001 381.04 183.092 382.682 181.584L383.084 181.214Z" fill="#F59778"/>
  <path d="M383.083 178.045C383.077 176.954 383.056 176.601 383.017 175.136C383.017 175.136 379.663 174.593 378.157 171.572C378.157 171.572 379.294 178.116 383.083 178.045Z" fill="#CE7F64"/>
  <path d="M383.987 163.602C383.987 163.602 383.968 166.302 384.536 167.184C385.102 168.07 385.162 173.605 384.327 174.81C383.9 175.426 381.595 175.629 379.271 173.828C376.943 172.028 376.398 167.575 376.398 167.575C376.398 167.575 375.246 162.895 383.987 163.602Z" fill="#F59778"/>
  <path d="M382.034 165.43C382.018 165.166 382 164.901 381.986 164.634C381.137 164.796 380.284 164.96 379.501 165.28C378.716 165.599 377.993 166.092 377.605 166.765C377.163 166.037 376.788 165.278 376.49 164.497C376.401 164.269 376.318 164.029 376.355 163.792C376.405 163.443 376.693 163.162 376.987 162.921C378.037 162.056 379.362 161.387 380.804 161.282C381.952 161.198 383.829 161.586 384.398 162.597C384.904 163.5 382.803 164.951 382.034 165.43Z" fill="#472A29"/>
  <path d="M351.63 257.706C351.63 257.706 355.68 263.893 357.391 262.369C359.102 260.843 361.231 259.004 360.254 257.373C359.278 255.741 354.575 254.007 354.575 254.007C354.575 254.007 351.787 255.947 351.63 257.706Z" fill="#F59778"/>
  <path d="M80.924 238.014H189.979L301.622 74.6062L442.444 162.269L443.685 160.273L300.958 71.4211L188.738 235.664H80.924V238.014Z" fill="#B2B2B2"/>
  <path d="M297.355 71.4987L189.867 228.823H53.3777L159.189 78.218L297.355 71.4987Z" fill="#0A7060"/>
  <path d="M299.533 271.228H301.883V171.774H357.018V169.421H299.533V271.228Z" fill="#B2B2B2"/>
  <path d="M121.704 390.098H239.495V387.709H124.095V236.837H121.704V390.098Z" fill="#B2B2B2"/>
  <path d="M67.2226 392.039H181.487V260.838H67.2226V392.039Z" fill="#E3B75F"/>
  <path d="M150.888 392.039C153.772 368.762 173.58 350.733 197.635 350.733C200.446 350.733 203.184 351.025 205.86 351.495C216.641 332.795 236.792 320.176 259.932 320.176C294.407 320.176 322.356 348.125 322.356 382.602C322.356 385.817 322.039 388.952 321.569 392.039H150.888Z" fill="#4587BE"/>
  <path d="M0 392.039C1.44196 380.401 11.3463 371.386 23.3749 371.386C24.7781 371.386 26.1493 371.532 27.4863 371.767C32.8777 362.417 42.9532 356.108 54.5209 356.108C71.7606 356.108 85.7353 370.081 85.7353 387.321C85.7353 388.929 85.5756 390.497 85.3406 392.039H0Z" fill="#4587BE"/>
  <path d="M73.6358 269.508H174.493V267.115H73.6358V269.508Z" fill="white"/>
  <path d="M73.6358 296.908H174.493V294.515H73.6358V296.908Z" fill="white"/>
  <path d="M73.6358 324.31H174.493V321.917H73.6358V324.31Z" fill="white"/>
  <path d="M73.6358 351.71H174.493V349.316H73.6358V351.71Z" fill="white"/>
  <path d="M151.437 374.998H153.83V268.311H151.437V374.998Z" fill="white"/>
  <path d="M91.9715 374.998H94.3648V268.311H91.9715V374.998Z" fill="white"/>
  <path d="M219.965 302.199H234.248V257.706H219.965V302.199Z" fill="#E1DDC4"/>
  <path d="M196.645 302.199H210.928V257.706H196.645V302.199Z" fill="#E1DDC4"/>
  <path d="M423.533 296.419C430.711 296.419 437.321 298.781 442.69 302.735V102.308H469.158V302.735C474.527 298.781 481.137 296.419 488.315 296.419C506.202 296.419 520.704 310.919 520.704 328.809C520.704 346.696 506.202 361.2 488.315 361.2C488.315 379.088 473.813 393.59 455.923 393.59C438.033 393.59 423.533 379.088 423.533 361.2C405.644 361.2 391.144 346.696 391.144 328.809C391.144 310.919 405.644 296.419 423.533 296.419Z" fill="white"/>
  <path d="M425.953 138.312H442.691V116.126H425.953V138.312Z" fill="#E4EBF9"/>
  <path d="M425.953 172.762H442.691V150.576H425.953V172.762Z" fill="#E4EBF9"/>
  <path d="M441.42 335.257C441.42 343.268 447.914 349.761 455.922 349.761C463.933 349.761 470.426 343.268 470.426 335.257C470.426 327.247 463.933 320.756 455.922 320.756C447.914 320.756 441.42 327.247 441.42 335.257Z" fill="#C6CDD9"/>
  <path d="M442.691 290.316H469.159V288.749H442.691V290.316Z" fill="#DE6442"/>
  <path d="M442.691 283.533H469.159V281.966H442.691V283.533Z" fill="#DE6442"/>
  <path d="M429.427 134.427H442.688V132.859H429.427V134.427Z" fill="white"/>
  <path d="M429.427 169.458H442.688V167.891H429.427V169.458Z" fill="white"/>
  <path d="M458.94 308.897V289.533H469.159L469.158 302.735C474.525 298.781 481.137 296.418 488.313 296.418C506.203 296.418 520.702 310.92 520.702 328.81C520.702 346.696 506.203 361.2 488.313 361.2C503.438 308.897 458.94 308.897 458.94 308.897Z" fill="#E8EAEF"/>
  <path d="M458.94 282.751H469.159V102.311H458.94V282.751Z" fill="#E8EAEF"/>
  <path d="M488.316 297.593C505.526 297.593 519.53 311.596 519.53 328.81C519.53 346.022 505.526 360.025 488.316 360.025H487.139V361.2C487.139 378.412 473.139 392.416 455.924 392.416C438.712 392.416 424.708 378.412 424.708 361.2V360.025H423.533C406.32 360.025 392.318 346.022 392.318 328.81C392.318 311.596 406.32 297.593 423.533 297.593C430.202 297.593 436.586 299.699 441.991 303.678L443.866 305.056V103.485H467.985V305.059L469.858 303.678C475.263 299.699 481.647 297.593 488.316 297.593ZM455.924 394.766C474.047 394.766 488.859 380.333 489.473 362.356C507.445 361.745 521.88 346.931 521.88 328.81C521.88 310.3 506.822 295.246 488.316 295.246C481.898 295.246 475.726 297.057 470.335 300.5V101.135H441.514V300.5C436.122 297.055 429.951 295.246 423.533 295.246C405.027 295.246 389.968 310.3 389.968 328.81C389.968 346.931 404.404 361.745 422.378 362.356C422.99 380.333 437.802 394.766 455.924 394.766Z" fill="#B2B2B2"/>
  <path d="M441.512 137.137H427.127V117.301H441.512V137.137ZM424.777 139.487H443.862V114.953H424.777V139.487Z" fill="#B2B2B2"/>
  <path d="M441.512 171.587H427.127V151.751H441.512V171.587ZM424.777 173.937H443.862V149.401H424.777V173.937Z" fill="#B2B2B2"/>
  <path d="M441.518 291.494H470.334V287.574H441.518V291.494Z" fill="#B2B2B2"/>
  <path d="M441.518 284.708H470.334V280.789H441.518V284.708Z" fill="#B2B2B2"/>
  <path d="M597.797 377.578C597.797 377.578 584.853 386.406 580.475 386.858C579.713 386.94 579.022 387.626 578.905 388.548C578.789 389.461 579.149 390.526 581.048 391.129C584.849 392.336 606.971 391.238 606.971 391.238C606.971 391.238 607.309 387.451 607.685 383.444C607.868 381.5 607.724 377.578 607.724 377.578H597.797Z" fill="#598D98"/>
  <path d="M486.418 308.492H568.708V255.44H486.418V308.492Z" fill="#472A29"/>
  <path d="M588.567 242.915C588.567 242.915 586.628 272.941 588.567 299.23C589.836 316.449 609.031 377.935 609.031 377.935L593.304 377.577C593.304 377.577 561.175 357.394 558.841 313.264C556.685 272.592 558.393 245.325 558.393 245.325C558.393 245.325 578.645 230.98 588.567 242.915Z" fill="#D9AD5B"/>
  <path d="M588.567 242.915C588.567 242.915 574.33 274.536 570.264 298.443C561.551 349.644 539.825 378.839 539.825 378.839H524.555C524.555 378.839 528.641 300.895 534.479 288.75C540.936 275.316 548.463 242.916 548.463 242.916L588.567 242.915Z" fill="#E3B75F"/>
  <path d="M545.446 180.212C545.446 180.212 534.684 196.128 528.227 219.243C524.668 231.993 523.333 250.512 523.333 250.512H530.764C530.764 250.512 538.38 243.143 543.094 228.112C547.808 213.08 545.446 180.212 545.446 180.212Z" fill="#4587BE"/>
  <path d="M545.446 180.212C545.446 180.212 538.561 194.495 538.743 208.59C538.926 222.688 544.778 252.926 544.778 252.926C544.778 252.926 573.054 260.036 588.338 250.512C588.338 250.512 551.787 177.44 545.446 180.212Z" fill="#472A29"/>
  <path d="M545.446 180.212C545.446 180.212 553.003 176.954 562.13 178.688C577.056 181.524 588.142 198.843 590.442 212.054C592.742 225.264 589.162 238.609 588.776 243.754C588.391 248.897 588.338 250.512 588.338 250.512C588.338 250.512 565.47 259.276 549.184 250.38C543.97 247.53 545.552 235.073 544.557 231.755C533.215 193.817 545.446 180.212 545.446 180.212Z" fill="#4587BE"/>
  <path d="M557.157 176.851C555.508 176.513 553.783 176.319 551.978 176.319C549.685 179.84 546.491 185.5 548.946 186.477C552.555 187.916 558.579 182.737 558.848 181.136C559.473 177.43 557.88 177.848 557.157 176.851Z" fill="#472A29"/>
  <path d="M544.794 162.422C544.794 162.422 545.236 165.194 544.794 166.191C544.351 167.188 545.168 172.887 546.213 173.991C546.749 174.557 550 175.825 551.255 172.187C552.5 169.325 553.22 165.303 553.22 165.303C553.22 165.303 553.665 160.316 544.794 162.422Z" fill="#E77A76"/>
  <path d="M545.446 180.212C545.517 177.538 551.255 172.187 551.255 172.187L553.091 167.464C553.153 167.037 552.766 165.11 553.104 164.38C553.104 164.38 553.896 162.963 554.601 163.246C555.304 163.527 556.009 164.654 554.601 165.92L553.72 167.417C553.846 167.638 553.93 167.862 553.964 168.088C553.964 168.088 555.215 175.934 555.968 179.256C556.184 180.214 555.936 181.207 555.299 181.96C553.759 183.787 550.866 186.824 548.947 186.477C546.223 185.984 545.378 182.886 545.446 180.212Z" fill="#E77A76"/>
  <path d="M545.446 180.212C545.563 179.085 545.902 175.607 546.093 174.096C546.169 174.03 546.214 173.992 546.214 173.992C546.214 173.992 549.262 176.164 551.257 172.187C551.257 172.187 549.357 180.673 545.446 180.212Z" fill="#BD6360"/>
  <path d="M543.946 163.277C543.292 164.799 545.25 165.511 544.794 166.191C545.271 166.052 544.966 164.326 545.84 163.608C546.299 163.229 546.995 163.199 547.54 163.437C547.752 163.528 547.942 163.66 548.154 163.756C548.624 163.966 549.185 163.966 549.655 163.754C549.874 163.658 550.079 163.517 550.317 163.487C550.506 163.466 550.7 163.519 550.869 163.61C551.307 163.845 551.594 164.331 551.59 164.826C551.585 165.123 551.487 165.413 551.462 165.709C551.426 166.17 551.588 166.642 551.893 166.987C551.866 166.448 552.893 164.365 553.529 166.088C553.698 166.544 553.249 167.023 553.201 167.507C553.114 168.388 553.586 169.22 554.109 169.932C554.688 169.392 554.916 168.566 554.967 167.774C555.065 166.268 554.613 164.73 553.707 163.517C552.806 162.307 551.462 161.431 549.99 161.093C549.301 160.938 548.589 160.895 547.882 160.918C547.371 160.934 546.851 160.986 546.385 161.196C545.858 161.436 545.448 161.865 544.932 162.125C544.683 162.248 544.519 162.255 544.343 162.472C544.161 162.7 544.063 163.01 543.946 163.277Z" fill="#472A29"/>
  <path d="M543.102 160.856C543.049 159.976 543.264 158.922 544.078 158.577C544.674 158.326 545.349 158.566 545.981 158.719C546.741 158.906 547.533 158.958 548.311 158.881C549.351 158.773 550.428 158.436 551.416 158.785C552.47 159.154 553.129 160.213 554.101 160.761C554.59 161.034 555.142 161.174 555.628 161.45C556.622 162.013 557.241 163.129 557.323 164.267C557.41 165.406 556.997 166.549 556.31 167.464C556.123 167.715 555.911 167.952 555.76 168.228C555.575 168.566 555.381 168.882 555 168.825C554.822 168.797 554.665 168.796 554.564 168.648C554.126 167.982 554.14 167.126 554.113 166.328C554.085 165.531 553.96 164.648 553.346 164.135C552.855 163.724 552.164 163.647 551.642 163.277C551.37 163.081 551.156 162.814 550.88 162.622C550.298 162.219 549.538 162.209 548.831 162.214C548.187 162.219 547.521 162.23 546.948 162.515C546.166 162.901 545.224 164.441 544.224 163.918C543.323 163.444 543.154 161.728 543.102 160.856Z" fill="#472A29"/>
  <path d="M524.8 258.214C524.8 258.214 529.227 258.935 530.655 256.384C532.081 253.831 530.034 250.249 530.034 250.249L524.581 249.795C524.581 249.795 523.053 256.792 524.8 258.214Z" fill="#E77A76"/>
  <path d="M566.875 256.835C571.821 256.835 575.691 256.305 578.572 255.657C585.271 254.158 588.132 251.795 588.251 251.697C588.353 251.61 588.367 251.457 588.283 251.354C588.194 251.254 588.039 251.24 587.936 251.322C587.909 251.35 585.018 253.725 578.419 255.194C572.323 256.554 561.72 257.396 545.85 253.686C545.717 253.661 545.587 253.739 545.558 253.869C545.528 254.001 545.608 254.129 545.738 254.161C554.246 256.148 561.253 256.835 566.875 256.835Z" fill="black"/>
  <path d="M528.333 246.775H503.012C505.779 239.802 504.029 232.887 502.332 226.188C500.582 219.27 498.923 212.724 501.932 206.176H527.251C524.484 213.146 526.234 220.062 527.929 226.763C529.681 233.681 531.337 240.226 528.333 246.775ZM499.281 249.125H529.793L530.117 248.479C533.941 240.929 532.045 233.434 530.208 226.188C528.401 219.044 526.692 212.297 530.117 205.53L530.982 203.826H500.472L500.146 204.472C496.322 212.021 498.22 219.516 500.052 226.763C501.862 233.906 503.568 240.653 500.146 247.418L499.281 249.125Z" fill="#B2B2B2"/>
  <path d="M501.195 247.951H529.069C536.318 233.634 521.823 219.317 529.069 205H501.195C493.946 219.317 508.441 233.634 501.195 247.951Z" fill="white"/>
  <path d="M521.263 232.118C521.263 232.118 521.122 236.604 523.837 237.687C526.55 238.771 529.84 236.277 529.84 236.277L529.582 230.813C529.582 230.813 522.448 230.204 521.263 232.118Z" fill="#E77A76"/>
  <path d="M586.891 201.12C586.891 201.12 594.119 233.706 529.838 236.277L529.582 230.813C529.582 230.813 556.836 219.451 554.981 199.509C554.981 199.509 576.147 175.181 586.891 201.12Z" fill="#4587BE"/>
  <path d="M580.546 220.062C580.546 220.062 566.112 235.075 544.006 235.107L544.684 237.45C544.684 237.45 568.492 235.898 580.546 220.062Z" fill="#472A29"/>
  <path d="M525.754 377.578C525.754 377.578 512.808 386.406 508.43 386.858C507.668 386.94 506.979 387.626 506.862 388.548C506.746 389.461 507.104 390.526 509.005 391.129C512.804 392.336 534.928 391.238 534.928 391.238C534.928 391.238 535.266 387.451 535.642 383.444C535.825 381.5 535.289 378.904 535.289 378.904L525.754 377.578Z" fill="#598D98"/>
  <path d="M259.286 127.221L183.674 220.912L53.3793 228.822H189.866L259.286 127.221Z" fill="#08473D"/>
  <path d="M316.447 87.8799L288.171 127.221H268.061L302.456 78.8449L316.447 87.8799Z" fill="#E1DDC4"/>
  <path d="M44.8938 117.386C46.297 117.386 47.618 117.646 48.7999 118.1C49.8494 113.117 54.2643 109.377 59.5599 109.377C60.2124 109.377 60.8467 109.444 61.4673 109.553C62.5624 104.095 67.3789 99.984 73.1604 99.984C79.4645 99.984 84.6163 104.883 85.0475 111.079C85.8255 110.904 86.6515 110.803 87.5048 110.803C91.5888 110.803 95.0249 112.962 96.079 115.9C96.9551 115.59 97.8974 115.412 98.8808 115.412C103.538 115.412 107.309 119.186 107.309 123.84C107.309 128.495 103.538 132.269 98.8808 132.269C98.0868 132.269 97.3225 132.152 96.5946 131.947L96.419 132.269H27.1385C27.1385 120.375 39.9701 117.386 44.8938 117.386Z" fill="#E1DDC4"/>
  <path d="M260.35 43.1184C261.37 43.1184 262.33 43.3078 263.188 43.6386C263.95 40.0177 267.161 37.2981 271.01 37.2981C271.484 37.2981 271.945 37.346 272.395 37.4258C273.193 33.4604 276.693 30.4716 280.896 30.4716C285.479 30.4716 289.221 34.0308 289.534 38.5347C290.102 38.4069 290.7 38.3339 291.32 38.3339C294.289 38.3339 296.787 39.9014 297.554 42.0392C298.19 41.8133 298.875 41.6856 299.589 41.6856C302.975 41.6856 305.717 44.428 305.717 47.8116C305.717 51.1952 302.975 53.9377 299.589 53.9377C299.014 53.9377 298.457 53.851 297.93 53.7027L297.8 53.9377H247.445C247.445 45.2905 256.772 43.1184 260.35 43.1184Z" fill="#E1DDC4"/>
  <path d="M177.015 80.5106H209.14V36.0401H177.015V80.5106Z" fill="#0A7060"/>
  <path d="M173.094 44.9793H193.077H213.06V36.0424H173.094V44.9793Z" fill="#0A7060"/>
  <path d="M25.9633 279.951H28.311V238.013H60.5202V235.663H25.9633V279.951Z" fill="#B2B2B2"/>
  <path d="M297.355 426.882C297.355 430.745 324.483 433.877 357.947 433.877C391.411 433.877 418.537 430.745 418.537 426.882C418.537 423.019 391.411 419.886 357.947 419.886C324.483 419.886 297.355 423.019 297.355 426.882Z" fill="#E1DDC4"/>
  <path d="M672.723 342.483C676.467 335.951 681.635 330.37 686.764 324.858C688.621 322.862 690.547 320.737 691.159 318.082C691.772 315.426 690.497 312.127 687.841 311.515C685.719 311.025 683.627 312.341 681.936 313.715C674.325 319.884 668.79 328.572 666.415 338.077C666.501 323.43 665.066 308.615 660.22 294.791C655.374 280.965 646.916 268.129 634.908 259.735C631.981 257.69 628.588 255.851 625.033 256.198C622.232 256.47 619.699 258.096 617.801 260.175C613.578 264.797 612.25 271.551 613.176 277.743C614.105 283.935 617.048 289.651 620.486 294.882C627.584 305.672 636.868 314.819 644.933 324.906C653.001 334.991 660.04 346.544 661.397 359.388C660.546 353.46 655.997 348.224 650.243 346.554C649.273 346.273 648.164 346.102 647.293 346.617C646.401 347.154 646.031 348.251 645.86 349.28C645.305 352.577 646.131 356.084 648.096 358.787C651.342 363.255 657.754 366.285 657.56 371.804C657.505 373.296 656.928 374.711 656.54 376.155C655.411 380.351 656.132 385.322 659.396 388.19C661.988 390.463 668.046 391.197 669.591 387.383C670.786 384.423 667.138 377.223 666.704 374.04C665.235 363.25 667.298 351.95 672.723 342.483Z" fill="#E1DDC4"/>
  <path d="M543.729 163.415L543.5 162.5L546 160.5H550L554 162.5L555 166V168.5L554.5 169.5L554 168L553.5 164.5L552.5 164L548.5 162.5L546 163.5L545 164C544.487 164.257 543.868 163.972 543.729 163.415Z" fill="#472A29"/>
  <path d="M547 170L552 166.5L552.91 165.135C552.957 165.065 553.055 165.055 553.115 165.115C553.361 165.361 553.5 165.696 553.5 166.045V166.268C553.5 166.422 553.475 166.574 553.427 166.721L553.198 167.408C553.066 167.801 552.977 168.208 552.931 168.621L552 177L549 174.5L547 170Z" fill="#E77A76"/>
  <defs>
    <linearGradient id="paint0_linear_443_13048" x1="356.834" y1="-7.40415" x2="354.787" y2="413.046" gradientUnits="userSpaceOnUse">
<stop stop-color="white"/>
      <stop offset="1" stop-color="#BBDFF3"/>
    </linearGradient>
    <linearGradient id="paint1_linear_443_13048" x1="381.175" y1="-15.0522" x2="375.469" y2="415.593" gradientUnits="userSpaceOnUse">
      <stop stop-color="white"/>
      <stop offset="1" stop-color="#BBDFF3"/>
    </linearGradient>
  </defs>
</svg>