<svg className="sideCoverImage" xmlns="http://www.w3.org/2000/svg" width="404" height="369" viewBox="0 0 404 369" fill="none">
  <path d="M32.5518 274.024C13.7803 250.48 5.63076 217.671 11.0034 187.273C12.9895 176.036 16.8278 164.962 23.599 156.109C30.3692 147.256 40.3237 140.825 51.0074 140.262C68.1742 139.357 85.813 153.017 101.475 145.449C110.408 141.133 115.582 130.949 118.292 120.878C125.36 94.6029 142.233 68.8837 163.736 53.8906C189.793 35.724 224.16 33.8284 252.486 46.9886C281.265 60.359 307.027 94.78 302.062 129.802C300.722 139.266 298.406 148.879 300.107 158.277C305.276 186.823 335.416 183.088 355.193 190.749C369.626 196.34 381.59 208.816 387.177 224.102C392.764 239.389 391.88 257.229 384.816 271.801L32.5518 274.024Z" fill="white"/>
  <path d="M348.061 97.8281C356.109 100.457 365.815 97.8899 370.697 90.5627C374.692 84.5658 374.993 76.5272 373.544 69.3287C372.19 62.5936 369.306 56.0026 364.391 51.5472C354.409 42.4964 329.627 36.0949 325.785 54.697C322.428 70.9494 333.087 92.9361 348.061 97.8281Z" fill="white"/>
  <path d="M41.5463 31.3335C31.0572 41.3986 23.71 55.7945 23.7148 70.8627C23.7206 85.931 31.9925 101.224 45.0985 106.769C53.2143 110.202 62.302 109.808 70.9225 108.351C81.2285 106.61 89.9146 99.2674 96.47 90.9734C114.393 68.2999 107.277 20.0318 75.357 16.9191C62.6901 15.6835 50.7129 22.537 41.5463 31.3335Z" fill="white"/>
  <path d="M18.4727 213.611H65.217V241.315H89.7734V189.957H98.7455V266.945H114.33V170.81H137.469V209.104H169.581V195.318H176.192V181.532H196.971V195.318H207.36V215.232H216.332V170.81H230.028V209.87H256V193.02H286.14V254.557H303.224V217.039H337.437V232.732H342.892V196.851H349.975V224.423H361.309V207.611H369.337V215.997H385.846V363.079H18.4727V213.611Z" fill="#81CCEF"/>
  <path d="M394.829 255.202H339.189L339.103 281.091H314.546V266.945H305.574V298.276H289.99V241.006H266.85V259.493H234.738V250.248H228.127V241.006H207.349V250.248H196.959V263.601H187.986V233.816H174.292V260.007H148.319V248.708H128.591V289.969H108.214V248.708H66.8822V275.335H61.4277V251.276H54.3444V269.764H43.0106V238.952H34.9825V282.543H6.93164V361.106H394.743L394.829 255.202Z" fill="#38B7E2"/>
  <path d="M390.206 368.71H3.91535C1.753 368.71 0 366.836 0 364.524C0 362.213 1.753 360.339 3.91535 360.339H390.206C392.369 360.339 394.121 362.213 394.121 364.524C394.121 366.836 392.369 368.71 390.206 368.71Z" fill="#276BA6"/>
  <path d="M131.097 296.342C122.585 296.342 115.684 303.252 115.684 311.775C115.684 312.35 115.721 312.917 115.782 313.476C114.518 313.092 113.177 312.881 111.787 312.881C104.182 312.881 98.0154 319.056 98.0154 326.671C98.0154 330.858 99.8859 334.601 102.827 337.13C102.414 337.085 101.996 337.061 101.571 337.061C95.1316 337.061 89.9102 342.288 89.9102 348.737C89.9102 355.186 95.1316 360.415 101.571 360.415H146.51V311.775C146.51 303.252 139.61 296.342 131.097 296.342Z" fill="#009957"/>
  <path d="M283.962 296.342C292.474 296.342 299.375 303.252 299.375 311.775C299.375 312.35 299.338 312.917 299.276 313.476C300.542 313.092 301.881 312.881 303.272 312.881C310.877 312.881 317.043 319.056 317.043 326.671C317.043 330.858 315.173 334.601 312.232 337.13C312.643 337.085 313.062 337.061 313.487 337.061C319.928 337.061 325.148 342.288 325.148 348.737C325.148 355.186 319.928 360.415 313.487 360.415H268.549V311.775C268.549 303.252 275.449 296.342 283.962 296.342Z" fill="#009957"/>
  <path d="M400.085 368.71H13.7933C11.6319 368.71 9.87891 366.836 9.87891 364.524C9.87891 362.213 11.6319 360.339 13.7933 360.339H400.085C402.247 360.339 404 362.213 404 364.524C404 366.836 402.247 368.71 400.085 368.71Z" fill="#276BA6"/>
  <path d="M104.033 132.174H41.285C32.3467 132.174 25.0332 139.992 25.0332 149.548C25.0332 159.103 32.3467 166.921 41.285 166.921H83.7403L101.482 187.267V166.921H104.033C112.971 166.921 120.284 159.103 120.284 149.548C120.284 139.992 112.971 132.174 104.033 132.174Z" fill="#276BA6"/>
  <path d="M43.8364 144.224L45.4546 147.729L49.0733 148.291L46.4544 151.02L47.0727 154.872L43.8364 153.053L40.6001 154.872L41.2175 151.02L38.5996 148.291L42.2183 147.729L43.8364 144.224Z" fill="#FFED00"/>
  <path d="M58.2466 144.224L59.8648 147.729L63.4834 148.291L60.8645 151.02L61.4829 154.872L58.2466 153.053L55.0103 154.872L55.6277 151.02L53.0098 148.291L56.6285 147.729L58.2466 144.224Z" fill="#FFED00"/>
  <path d="M72.6587 144.224L74.2769 147.729L77.8955 148.291L75.2766 151.02L75.895 154.872L72.6587 153.053L69.4224 154.872L70.0398 151.02L67.4219 148.291L71.0406 147.729L72.6587 144.224Z" fill="#FFED00"/>
  <path d="M87.0708 144.224L88.689 147.729L92.3077 148.291L89.6888 151.02L90.3071 154.872L87.0708 153.053L83.8345 154.872L84.4519 151.02L81.834 148.291L85.4527 147.729L87.0708 144.224Z" fill="#FFED00"/>
  <path d="M101.481 144.224L103.099 147.729L106.718 148.291L104.099 151.02L104.717 154.872L101.481 153.053L98.2447 154.872L98.8621 151.02L96.2441 148.291L99.8628 147.729L101.481 144.224Z" fill="white"/>
  <path d="M265.361 360.529H149.453C142.724 360.529 137.27 354.698 137.27 347.505V92.3826C137.27 85.1893 142.724 79.3593 149.453 79.3593H265.361C272.088 79.3593 277.543 85.1893 277.543 92.3826V347.505C277.543 354.698 272.088 360.529 265.361 360.529Z" fill="#144A76"/>
  <path d="M264.247 341.284H150.061V98.5982H264.247V341.284Z" fill="#0F2940"/>
  <path d="M264.247 341.284H150.061V101.102H264.247V341.284Z" fill="#A3D8F4"/>
  <path d="M223.581 92.0901H184.708C183.429 92.0901 182.383 90.9718 182.383 89.6034C182.383 88.236 183.429 87.1167 184.708 87.1167H223.581C224.86 87.1167 225.907 88.236 225.907 89.6034C225.907 90.9718 224.86 92.0901 223.581 92.0901Z" fill="#002749"/>
  <path d="M228.212 352.925H188.257C187.276 352.925 186.473 352.066 186.473 351.016C186.473 349.967 187.276 349.108 188.257 349.108H228.212C229.195 349.108 229.998 349.967 229.998 351.016C229.998 352.066 229.195 352.925 228.212 352.925Z" fill="#002749"/>
  <path d="M236.952 89.6038C236.952 91.2781 235.683 92.6352 234.117 92.6352C232.55 92.6352 231.279 91.2781 231.279 89.6038C231.279 87.9296 232.55 86.5714 234.117 86.5714C235.683 86.5714 236.952 87.9296 236.952 89.6038Z" fill="#002749"/>
  <path d="M235.269 89.6038C235.269 90.2855 234.752 90.8374 234.116 90.8374C233.478 90.8374 232.961 90.2855 232.961 89.6038C232.961 88.9222 233.478 88.3703 234.116 88.3703C234.752 88.3703 235.269 88.9222 235.269 89.6038Z" fill="#144A76"/>
  <path d="M235.564 88.7089C235.564 89.0704 235.29 89.3638 234.951 89.3638C234.614 89.3638 234.34 89.0704 234.34 88.7089C234.34 88.3475 234.614 88.0551 234.951 88.0551C235.29 88.0551 235.564 88.3475 235.564 88.7089Z" fill="white"/>
  <path d="M264.246 341.132H243.953V305.179H264.246V341.132Z" fill="#2DA0C8"/>
  <path d="M264.246 296.342H243.953V260.389H264.246V296.342Z" fill="#2DA0C8"/>
  <path d="M204.656 317.253H234.972V260.388L204.656 317.253Z" fill="#2DA0C8"/>
  <path d="M234.97 324.213H204.654V341.132H234.97V324.213Z" fill="#2DA0C8"/>
  <path d="M225.096 257.259L195.877 309.392L151.451 294.351L180.67 242.218L225.096 257.259Z" fill="#2DA0C8"/>
  <path d="M193.623 341.132H150.061V323.156H193.623V341.132Z" fill="#2DA0C8"/>
  <path d="M150.061 316.382H193.623L150.061 301.947V316.382Z" fill="#009957"/>
  <path d="M264.246 251.017H227.754V224.739H264.246V251.017Z" fill="#2DA0C8"/>
  <path d="M264.246 217.495H243.953V181.542H264.246V217.495Z" fill="#2DA0C8"/>
  <path d="M264.246 172.705H243.953V136.752H264.246V172.705Z" fill="#2DA0C8"/>
  <path d="M204.656 193.617H234.972V136.752L204.656 193.617Z" fill="#009957"/>
  <path d="M234.97 200.577H204.654V217.496H234.97V200.577Z" fill="#2DA0C8"/>
  <path d="M225.096 133.622L195.877 185.756L151.451 170.714L180.67 118.582L225.096 133.622Z" fill="#2DA0C8"/>
  <path d="M193.623 217.495H150.061V199.519H193.623V217.495Z" fill="#2DA0C8"/>
  <path d="M150.061 192.746H193.623L150.061 178.311V192.746Z" fill="#009957"/>
  <path d="M264.246 127.381H226.229V101.102L264.247 101.102L264.246 127.381Z" fill="#2DA0C8"/>
  <path d="M219.812 248.708L182.19 235.989H150.061V224.74H219.812V248.708Z" fill="#2DA0C8"/>
  <path d="M150.061 282.543V241.585H171.841L150.061 282.543Z" fill="#2DA0C8"/>
  <path d="M219.813 122.846V101.103H184.938V110.677L219.813 122.846Z" fill="#2DA0C8"/>
  <path d="M150.061 157.069L177.05 109.593V101.103L150.061 101.102V157.069Z" fill="#2DA0C8"/>
  <path d="M155.505 106.406H258.801V305.178H155.505V106.406ZM150.061 101.102V341.132L264.246 341.132L264.247 101.102H150.061Z" fill="white"/>
  <path d="M225.328 323.156H191.142C188.027 323.156 185.479 320.431 185.479 317.101V315.825C185.479 312.494 188.027 309.771 191.142 309.771H225.328C228.442 309.771 230.992 312.494 230.992 315.825V317.101C230.992 320.431 228.442 323.156 225.328 323.156Z" fill="#008DB1"/>
  <path d="M225.328 322.317H191.142C188.027 322.317 185.479 319.593 185.479 316.263V314.987C185.479 311.656 188.027 308.932 191.142 308.932H225.328C228.442 308.932 230.992 311.656 230.992 314.987V316.263C230.992 319.593 228.442 322.317 225.328 322.317Z" fill="#38B7E2"/>
  <path d="M194.695 315.593H196.299C196.985 315.593 197.504 315.689 197.856 315.882C198.209 316.075 198.385 316.413 198.385 316.897C198.385 317.092 198.353 317.268 198.29 317.425C198.229 317.583 198.14 317.712 198.022 317.813C197.905 317.914 197.761 317.98 197.592 318.01V318.046C197.764 318.081 197.919 318.142 198.057 318.229C198.196 318.314 198.306 318.438 198.389 318.603C198.473 318.765 198.516 318.981 198.516 319.251C198.516 319.563 198.439 319.831 198.286 320.055C198.134 320.278 197.915 320.449 197.631 320.569C197.349 320.686 197.013 320.745 196.623 320.745H194.695V315.593ZM195.788 317.633H196.422C196.739 317.633 196.959 317.584 197.081 317.485C197.203 317.384 197.264 317.236 197.264 317.041C197.264 316.844 197.192 316.703 197.046 316.618C196.903 316.532 196.675 316.488 196.362 316.488H195.788V317.633ZM195.788 318.5V319.843H196.5C196.829 319.843 197.058 319.78 197.187 319.653C197.316 319.526 197.381 319.356 197.381 319.142C197.381 319.015 197.353 318.903 197.296 318.807C197.24 318.711 197.145 318.635 197.011 318.581C196.879 318.527 196.697 318.5 196.464 318.5H195.788Z" fill="white"/>
  <path d="M203.738 315.593V318.927C203.738 319.282 203.66 319.602 203.502 319.889C203.347 320.173 203.111 320.399 202.794 320.565C202.479 320.732 202.082 320.816 201.603 320.816C200.921 320.816 200.402 320.642 200.045 320.294C199.688 319.946 199.509 319.486 199.509 318.913V315.593H200.598V318.747C200.598 319.172 200.685 319.471 200.859 319.642C201.033 319.814 201.29 319.899 201.631 319.899C201.87 319.899 202.064 319.858 202.212 319.776C202.363 319.694 202.473 319.567 202.544 319.395C202.614 319.224 202.649 319.005 202.649 318.74V315.593H203.738Z" fill="white"/>
  <path d="M206.603 317.714L207.678 315.593H208.855L207.146 318.74V320.745H206.061V318.775L204.352 315.593H205.536L206.603 317.714Z" fill="white"/>
  <path d="M199.266 330.745H197.878L195.636 326.848H195.605C195.614 327.01 195.622 327.173 195.629 327.337C195.636 327.502 195.643 327.666 195.65 327.831C195.657 327.993 195.664 328.156 195.672 328.321V330.745H194.695V325.593H196.073L198.311 329.452H198.336C198.331 329.292 198.325 329.134 198.318 328.976C198.311 328.819 198.304 328.661 198.297 328.504C198.292 328.346 198.288 328.189 198.283 328.032V325.593H199.266V330.745Z" fill="white"/>
  <path d="M205.243 328.162C205.243 328.559 205.194 328.921 205.095 329.247C204.996 329.572 204.846 329.851 204.644 330.086C204.444 330.321 204.191 330.502 203.883 330.629C203.575 330.753 203.211 330.816 202.79 330.816C202.37 330.816 202.006 330.753 201.698 330.629C201.39 330.502 201.135 330.321 200.933 330.086C200.733 329.851 200.584 329.57 200.486 329.244C200.387 328.917 200.337 328.554 200.337 328.155C200.337 327.622 200.424 327.158 200.598 326.763C200.774 326.366 201.045 326.058 201.409 325.84C201.773 325.621 202.236 325.512 202.797 325.512C203.357 325.512 203.816 325.621 204.175 325.84C204.537 326.058 204.805 326.366 204.979 326.763C205.155 327.16 205.243 327.626 205.243 328.162ZM201.483 328.162C201.483 328.521 201.527 328.832 201.617 329.092C201.708 329.351 201.851 329.551 202.043 329.691C202.236 329.83 202.485 329.899 202.79 329.899C203.1 329.899 203.352 329.83 203.544 329.691C203.737 329.551 203.877 329.351 203.964 329.092C204.053 328.832 204.098 328.521 204.098 328.162C204.098 327.622 203.997 327.196 203.795 326.886C203.593 326.576 203.26 326.421 202.797 326.421C202.49 326.421 202.238 326.492 202.043 326.633C201.851 326.771 201.708 326.971 201.617 327.232C201.527 327.49 201.483 327.8 201.483 328.162Z" fill="white"/>
  <path d="M212.64 325.593L211.329 330.745H210.085L209.388 328.039C209.373 327.987 209.355 327.908 209.331 327.803C209.308 327.697 209.283 327.582 209.257 327.457C209.231 327.33 209.208 327.212 209.187 327.101C209.168 326.988 209.155 326.899 209.148 326.833C209.141 326.899 209.127 326.987 209.106 327.098C209.087 327.208 209.064 327.326 209.039 327.45C209.015 327.575 208.992 327.691 208.968 327.799C208.945 327.907 208.926 327.989 208.912 328.046L208.217 330.745H206.977L205.662 325.593H206.737L207.396 328.405C207.415 328.49 207.436 328.591 207.46 328.708C207.486 328.826 207.51 328.949 207.534 329.078C207.56 329.205 207.582 329.329 207.601 329.448C207.622 329.566 207.637 329.668 207.647 329.755C207.658 329.666 207.674 329.562 207.692 329.445C207.711 329.325 207.731 329.204 207.752 329.082C207.776 328.957 207.799 328.842 207.823 328.736C207.846 328.631 207.867 328.545 207.886 328.479L208.637 325.593H209.669L210.42 328.479C210.437 328.543 210.455 328.628 210.476 328.736C210.5 328.842 210.523 328.957 210.547 329.082C210.57 329.206 210.592 329.329 210.61 329.448C210.632 329.566 210.647 329.668 210.656 329.755C210.673 329.637 210.695 329.495 210.723 329.329C210.754 329.159 210.785 328.991 210.818 328.825C210.854 328.658 210.884 328.518 210.91 328.405L211.565 325.593H212.64Z" fill="white"/>
  <path d="M214.106 329.036H213.246L213.067 325.593H214.286L214.106 329.036ZM213.053 330.241C213.053 330.02 213.113 329.865 213.232 329.776C213.355 329.687 213.501 329.642 213.673 329.642C213.84 329.642 213.983 329.687 214.103 329.776C214.225 329.865 214.286 330.02 214.286 330.241C214.286 330.453 214.225 330.605 214.103 330.699C213.983 330.793 213.84 330.84 213.673 330.84C213.501 330.84 213.355 330.793 213.232 330.699C213.113 330.605 213.053 330.453 213.053 330.241Z" fill="white"/>
  <path d="M264.247 328.378H150.061V341.284H264.247V328.378Z" fill="#002749"/>
  <path d="M338.44 145.805L315.105 196.692L316.16 199.52L340.335 146.797L338.44 145.805Z" fill="#F3A700"/>
  <path d="M249.021 224.048C249.021 226.571 231.614 228.616 210.139 228.616C188.664 228.616 171.256 226.571 171.256 224.048C171.256 221.527 188.664 219.482 210.139 219.482C231.614 219.482 249.021 221.527 249.021 224.048Z" fill="#276BA6"/>
  <path d="M239.79 222.409H177.432V193.259H239.79V222.409Z" fill="#FAC600"/>
  <path d="M177.432 193.259H239.79V199.312H177.432V193.259Z" fill="black"/>
  <path d="M239.79 199.312H177.432V193.259H239.79V199.312Z" fill="#FAC600"/>
  <path d="M245.213 196.177H171.256L177.895 168.919H238.573L245.213 196.177Z" fill="#083353"/>
  <path d="M220.555 188.04L208.235 179.009L195.916 188.04V225.11H220.555V188.04Z" fill="#FACC22"/>
  <path d="M213.209 209.104H204.152V224.032H213.209V209.104Z" fill="white"/>
  <path d="M212.229 210.046H205.129V224.032H212.229V210.046Z" fill="#144A76"/>
  <path d="M207.274 217.716C207.274 218.089 206.99 218.393 206.641 218.393C206.291 218.393 206.008 218.089 206.008 217.716C206.008 217.343 206.291 217.039 206.641 217.039C206.99 217.039 207.274 217.343 207.274 217.716Z" fill="white"/>
  <path d="M213.73 197.826H203.492V186.882H213.73V197.826Z" fill="white"/>
  <path d="M212.96 197.003H204.262V187.704H212.96V197.003Z" fill="#38B7E2"/>
  <path d="M209.441 197.826H207.904V186.882H209.441V197.826Z" fill="white"/>
  <path d="M193.277 213.322H181.162V204.252H193.277V213.322Z" fill="white"/>
  <path d="M192.366 212.64H182.072V204.935H192.366V212.64Z" fill="#38B7E2"/>
  <path d="M187.904 213.322H186.682V204.252H187.904V213.322Z" fill="white"/>
  <path d="M236.364 213.322H224.25V204.252H236.364V213.322Z" fill="white"/>
  <path d="M235.452 212.64H225.158V204.935H235.452V212.64Z" fill="#38B7E2"/>
  <path d="M230.992 213.322H229.77V204.252H230.992V213.322Z" fill="white"/>
  <path d="M215.099 223.419H202.172V225.11H215.099V223.419Z" fill="white"/>
  <path d="M220.555 191.462V188.04L208.235 179.009L195.916 188.04V192.234L208.745 182.653L220.555 191.462Z" fill="#FAC600"/>
  <path d="M193.886 216.675C192.764 216.675 191.856 217.584 191.856 218.706C191.856 218.783 191.861 218.857 191.87 218.93C191.703 218.88 191.527 218.852 191.343 218.852C190.342 218.852 189.53 219.665 189.53 220.668C189.53 221.219 189.777 221.712 190.164 222.045C190.11 222.039 190.054 222.035 189.998 222.035C189.151 222.035 188.463 222.724 188.463 223.573C188.463 224.422 189.151 225.11 189.998 225.11H195.915V218.706C195.915 217.584 195.007 216.675 193.886 216.675Z" fill="#009957"/>
  <path d="M222.583 216.675C223.704 216.675 224.613 217.584 224.613 218.706C224.613 218.783 224.608 218.857 224.6 218.93C224.767 218.88 224.942 218.852 225.126 218.852C226.128 218.852 226.939 219.665 226.939 220.668C226.939 221.219 226.693 221.712 226.305 222.045C226.36 222.039 226.416 222.035 226.471 222.035C227.318 222.035 228.006 222.724 228.006 223.573C228.006 224.422 227.318 225.11 226.471 225.11L220.555 225.11L220.555 218.706C220.555 217.584 221.463 216.675 222.583 216.675Z" fill="#009957"/>
  <path d="M252.391 247.635L281.054 273.41L286.746 266.177L258.081 240.403L252.391 247.635Z" fill="#C0C0B0"/>
  <path d="M263.117 234.002L258.08 240.403L286.744 266.177L291.78 259.777L263.117 234.002Z" fill="#D1BBBB"/>
  <path d="M341.148 307.587C343.797 304.219 343.392 299.193 340.242 296.36L300.707 260.81C297.557 257.977 292.856 258.412 290.206 261.78L286.746 266.177L337.687 311.985L341.148 307.587Z" fill="#002E55"/>
  <path d="M286.746 266.177L282.322 271.799C279.672 275.166 280.078 280.192 283.228 283.024L322.762 318.575C325.912 321.408 330.614 320.974 333.264 317.605L337.687 311.985L286.746 266.177Z" fill="#002749"/>
  <path d="M215.713 258.808C185.709 262.69 158.443 239.832 154.812 207.757C151.181 175.681 172.562 146.532 202.567 142.651C232.571 138.769 259.838 161.626 263.468 193.703C267.098 225.778 245.718 254.926 215.713 258.808ZM250.415 148.27C237.308 136.484 220.692 130.859 203.627 132.434C186.556 134.012 171.093 142.592 160.069 156.603C149.043 170.616 143.782 188.38 145.255 206.622C146.726 224.865 154.756 241.402 167.863 253.188C180.971 264.975 197.588 270.599 214.652 269.024C215.404 268.955 216.152 268.872 216.897 268.776C233.071 266.684 247.672 258.25 258.211 244.854C269.237 230.842 274.498 213.079 273.025 194.836C271.553 176.595 263.524 160.057 250.415 148.27Z" fill="#002E55"/>
  <path d="M248.151 235.809C239.512 246.789 227.655 253.205 215.277 254.804C201.733 256.554 187.566 252.542 176.326 242.434C154.815 223.091 152.034 188.646 170.129 165.65C178.767 154.67 190.625 148.256 203.003 146.655C216.547 144.902 230.714 148.917 241.954 159.024C263.465 178.368 266.245 212.812 248.151 235.809ZM202.567 142.651C172.562 146.532 151.181 175.681 154.812 207.757C158.443 239.832 185.709 262.689 215.713 258.808C245.719 254.926 267.098 225.779 263.468 193.703C259.838 161.627 232.571 138.769 202.567 142.651Z" fill="#002749"/>
  <path d="M234.216 166.54C234.216 173.291 229.096 178.765 222.78 178.765C216.464 178.765 211.344 173.291 211.344 166.54C211.344 159.787 216.464 154.315 222.78 154.315C229.096 154.315 234.216 159.787 234.216 166.54Z" fill="white"/>
  <path d="M360.365 138.689C356.775 146.331 347.703 149.217 340.101 145.136C332.498 141.056 329.245 131.553 332.835 123.911C336.424 116.27 345.496 113.384 353.098 117.465C360.701 121.545 363.953 131.048 360.365 138.689ZM354.002 115.397C345.173 110.771 334.751 114.142 330.723 122.926C327.672 129.579 329.166 137.425 333.903 142.852L320.78 171.472L321.632 175.327L315.848 178.685L317.066 185.813L311.734 187.657L315.106 196.693L338.44 145.805L340.335 146.797L316.16 199.52L316.204 199.635C317.053 201.911 320.106 202.176 321.077 200.058L344.495 148.985C351.926 150.38 359.421 146.818 362.693 139.68C366.722 130.895 362.83 120.023 354.002 115.397Z" fill="#FAC600"/>
  <path d="M354.786 126.54C353.589 129.152 350.489 130.155 347.864 128.779C345.239 127.404 344.082 124.171 345.279 121.558C346.478 118.946 349.577 117.943 352.202 119.32C354.827 120.695 355.984 123.928 354.786 126.54ZM353.098 117.465C345.496 113.384 336.424 116.27 332.835 123.911C329.245 131.554 332.497 141.055 340.1 145.137C347.703 149.216 356.775 146.332 360.365 138.689C363.953 131.048 360.701 121.545 353.098 117.465Z" fill="#F3A700"/>
  <path d="M201.111 22.2607C201.111 16.9136 205.167 12.5786 210.169 12.5786V0.00012207C198.668 0.00012207 189.346 9.96635 189.346 22.2607C189.346 34.555 210.169 61.8425 210.169 61.8425V31.9438C205.167 31.9438 201.111 27.6078 201.111 22.2607Z" fill="#002E55"/>
  <path d="M210.169 0.00012207V12.5786C215.171 12.5786 219.225 16.9134 219.225 22.2605C219.225 27.6076 215.171 31.9438 210.169 31.9438L210.168 61.8433C210.168 61.8433 230.991 34.5548 230.991 22.2605C230.991 9.96616 221.668 0.00012207 210.169 0.00012207Z" fill="#144A76"/>
</svg>