<svg xmlns="http://www.w3.org/2000/svg" width="26" height="30" viewBox="0 0 26 30" fill="none">
  <path d="M13 29.625C13.8415 29.625 17.131 27.222 19.7523 24.2408C23.2465 20.2695 25.375 15.837 25.375 11.625C25.375 4.95825 19.8962 0.375 13 0.375C6.10375 0.375 0.625 4.95825 0.625 11.625C0.625 15.855 2.7535 20.2875 6.24775 24.2542C8.86675 27.2288 12.1562 29.625 13 29.625ZM13 14.325C13.5967 14.325 14.169 14.0879 14.591 13.666C15.0129 13.244 15.25 12.6717 15.25 12.075C15.25 11.4783 15.0129 10.906 14.591 10.484C14.169 10.0621 13.5967 9.825 13 9.825C12.4033 9.825 11.831 10.0621 11.409 10.484C10.9871 10.906 10.75 11.4783 10.75 12.075C10.75 12.6717 10.9871 13.244 11.409 13.666C11.831 14.0879 12.4033 14.325 13 14.325ZM13 19.275C11.0904 19.275 9.25909 18.5164 7.90883 17.1662C6.55857 15.8159 5.8 13.9846 5.8 12.075C5.8 10.1654 6.55857 8.33409 7.90883 6.98383C9.25909 5.63357 11.0904 4.875 13 4.875C14.9096 4.875 16.7409 5.63357 18.0912 6.98383C19.4414 8.33409 20.2 10.1654 20.2 12.075C20.2 13.9846 19.4414 15.8159 18.0912 17.1662C16.7409 18.5164 14.9096 19.275 13 19.275Z" fill="#007CC2"/>
</svg>